<svg width="132" height="20" viewBox="0 0 132 20" fill="none" xmlns="http://www.w3.org/2000/svg">
<path d="M1.44496 8.71005C1.44496 8.71005 11.8689 4.31967 15.4841 2.77372C16.8699 2.15538 21.5697 0.176548 21.5697 0.176548C21.5697 0.176548 23.7389 -0.689117 23.5581 1.4133C23.4978 2.27905 23.0158 5.30901 22.5338 8.58638C21.8107 13.2242 21.0274 18.2948 21.0274 18.2948C21.0274 18.2948 20.9069 19.717 19.8826 19.9644C18.8583 20.2117 17.1712 19.0987 16.8699 18.8513C16.6289 18.6658 12.3509 15.8831 10.7843 14.5227C10.3625 14.1517 9.8805 13.4097 10.8445 12.544C13.0137 10.5033 15.6046 7.96805 17.1711 6.3603C17.8942 5.61822 18.6172 3.8868 15.6046 5.98921C11.3266 9.01926 7.10882 11.8638 7.10882 11.8638C7.10882 11.8638 6.14473 12.4821 4.33714 11.9255C2.52947 11.3691 0.420584 10.627 0.420584 10.627C0.420584 10.627 -1.02542 9.69947 1.44496 8.71005Z" fill="#B2ABF2"/>
<path d="M56.4711 9.27177C56.4711 9.27177 59.4953 9.04178 59.4953 5.41987C59.4953 1.80096 57.4442 0.0169998 54.309 0.0169998L43.5688 0V19.9995H54.5588C54.5588 19.9995 60.0538 20.1735 60.0538 13.9997C60.0538 13.9997 60.4574 9.27177 56.4711 9.27177ZM47.5652 2.99993H53.0602C53.0602 2.99993 54.9405 3.03092 54.9405 5.47086C54.9405 7.9998 53.0602 7.9998 53.0602 7.9998H47.5652V2.99993ZM53.5597 16.9996H47.5652V10.9997H53.5597C53.5597 10.9997 56.557 11.0307 56.557 13.9997C56.557 16.9686 53.9913 16.9996 53.5597 16.9996Z" fill="#B2ABF2"/>
<path d="M68.5462 5C61.0401 5 61.053 12.4998 61.053 12.4998C61.053 12.4998 60.5535 19.9996 68.5462 19.9996C68.5462 19.9996 75.5398 19.9996 75.5398 13.9998H71.5435C71.5435 13.9998 71.5435 16.9997 68.5462 16.9997C68.5462 16.9997 65.5489 16.9997 65.5489 12.9998C65.5489 12.9998 73.5416 12.9998 75.5398 12.9998C75.5398 10.9999 75.5398 5 68.5462 5ZM65.5489 10.9999C65.5489 10.9999 65.483 7.99993 68.5462 7.99993C71.6084 7.99993 71.5435 10.9999 71.5435 10.9999H65.5489Z" fill="#B2ABF2"/>
<path d="M72.543 2H64.5503V3.99995H72.543V2Z" fill="#B2ABF2"/>
<path fill-rule="evenodd" clip-rule="evenodd" d="M130.616 1.35427C130.866 0.573623 130.616 0 129.428 0H125.501C124.502 0 124.042 0.495525 123.792 1.04195C123.792 1.04195 121.795 5.60867 118.966 8.57505C118.05 9.43373 117.634 9.70694 117.135 9.70694C116.885 9.70694 116.524 9.43373 116.524 8.65315V1.35427C116.524 0.417495 116.234 0 115.402 0H109.23C108.606 0 108.231 0.434779 108.231 0.846835C108.231 1.73488 109.645 1.93967 109.791 4.43773V9.86313C109.791 11.0526 109.562 11.2683 109.063 11.2683C107.731 11.2683 104.493 6.68117 102.572 1.4323C102.195 0.412106 101.818 0 100.814 0H96.8866C95.7645 0 95.54 0.495525 95.54 1.04195C95.54 2.01777 96.8715 6.8577 101.74 13.2589C104.985 17.6303 109.558 20 113.719 20C116.215 20 116.524 19.4737 116.524 18.5671V15.2632C116.524 14.2105 116.76 14.0005 117.551 14.0005C118.133 14.0005 119.132 14.2737 121.462 16.3814C124.125 18.8794 124.564 20 126.062 20H129.989C131.112 20 131.673 19.4737 131.349 18.435C130.995 17.3998 129.723 15.8979 128.036 14.1175C127.121 13.1027 125.748 12.0099 125.332 11.4633C124.749 10.7609 124.916 10.4485 125.332 9.82408C125.332 9.82408 130.117 3.50096 130.616 1.35427Z" fill="#B2ABF2"/>
</svg>
