<svg width="200" height="36" viewBox="0 0 200 36" fill="none" xmlns="http://www.w3.org/2000/svg">
<path d="M0.00172423 27.371L36.4916 27.371M0 8.82929L36.4916 8.82929M4.69853 35.5552L4.69853 0.644294M36.4916 29.9435V24.7995M36.4916 11.651V6.50705" stroke="#B2ABF2" stroke-miterlimit="10"/>
<path d="M13.2808 17.309V22.4353H27.4084V20.6789H22.4053V17.309C22.4053 14.7969 20.3753 12.7546 17.8533 12.7546C15.3312 12.7546 13.2808 14.7969 13.2808 17.309ZM20.6419 17.309V20.6789H15.0442V17.309C15.0442 15.7772 16.2949 14.511 17.8533 14.511C19.3911 14.511 20.6419 15.7772 20.6419 17.309Z" fill="white"/>
<path d="M29.2738 12.3513H32.3863L34.0132 12.8101C32.5933 13.0206 30.6842 13.72 30.6031 18.1027C30.6842 22.4845 32.5933 23.1813 34.0132 23.3909L32.3863 23.8489H29.2738C28.9649 23.482 28.7562 22.9038 28.7984 22.195C28.7984 22.195 27.8417 22.195 27.4484 21.3358C27.4222 21.2799 27.3994 21.2225 27.3802 21.1639C27.1266 20.2669 27.017 19.437 27.0248 18.1035C27.017 16.7701 27.1266 15.9367 27.3802 15.0397C27.3994 14.9811 27.4222 14.9237 27.4484 14.8678C27.8417 14.0087 28.7984 14.0087 28.7984 14.0087C28.7596 13.2998 28.9649 12.7182 29.2738 12.3513Z" fill="black" stroke="#B2ABF2" stroke-width="0.5" stroke-miterlimit="10"/>
<path d="M26.909 13.3821C26.7727 13.633 26.6278 13.9182 26.4837 14.2284C25.9834 15.3109 25.5038 16.7131 25.5038 18.1007C25.5038 19.4883 25.9834 20.8862 26.4837 21.9713C26.6287 22.2823 26.7736 22.5728 26.9099 22.8193C25.1363 21.1551 25.1354 18.2072 25.1363 18.1033C25.1354 17.9967 25.1363 15.0437 26.909 13.3821Z" fill="black" stroke="#B2ABF2" stroke-width="0.5" stroke-miterlimit="10"/>
<path d="M28.975 12.3512H29.2718C28.963 12.718 28.7542 13.2963 28.7965 14.0051C28.7965 14.0051 27.8398 14.0051 27.4464 14.8643L26.4819 14.2293C26.626 13.9192 26.7709 13.6339 26.9072 13.383C27.4803 12.845 28.1993 12.4862 28.975 12.3512Z" fill="black" stroke="#B2ABF2" stroke-width="0.5" stroke-miterlimit="10"/>
<path d="M51.2409 12.7876L49.9158 13.3031L48.5355 13.8435H48.52L47.9541 12.3511H49.2999C49.9727 12.339 50.6385 12.4887 51.2409 12.7876Z" fill="black" stroke="#B2ABF2" stroke-width="0.5" stroke-miterlimit="10"/>
<path d="M32.3862 12.3512L47.9539 12.3512L48.5224 13.8479L37.7097 13.8479L37.6269 13.8247L34.0149 12.8083H34.0132L32.3862 12.3512Z" fill="black" stroke="#B2ABF2" stroke-width="0.5" stroke-miterlimit="10"/>
<path d="M34.0131 12.8099L37.6251 13.8263L37.6174 13.8495C37.3749 14.5901 37.0791 15.9554 37.1049 18.1025C37.0791 20.2504 37.3749 21.6105 37.6174 22.3511L37.6251 22.3743L34.0149 23.3916C32.5932 23.182 30.6841 22.486 30.603 18.1033C30.6841 13.7181 32.5932 13.0187 34.0131 12.8099Z" fill="black" stroke="#B2ABF2" stroke-width="0.5" stroke-miterlimit="10"/>
<path d="M37.619 13.8479L48.4799 13.8479C48.9682 14.6581 49.7998 16.3025 49.7998 18.0896V18.0991C49.7998 19.8862 48.9682 21.5418 48.4799 22.3521H37.619C37.3766 21.6114 37.0807 20.2505 37.1066 18.1034C37.0841 15.9537 37.3766 14.5885 37.619 13.8479Z" fill="black" stroke="#B2ABF2" stroke-width="0.5" stroke-miterlimit="10"/>
<path d="M49.9146 13.3075C50.7074 13.872 51.9358 16.258 51.9358 18.1009V18.1078C51.9358 19.9507 50.7074 22.3281 49.9146 22.8926L48.5344 22.3522H48.4766C48.9648 21.5419 49.7964 19.8863 49.7964 18.0992V18.0897C49.7964 16.3026 48.9648 14.6582 48.4766 13.848H48.5344L49.9146 13.3075Z" fill="black" stroke="#B2ABF2" stroke-width="0.5" stroke-miterlimit="10"/>
<path d="M48.5225 13.8478L48.538 13.8892" stroke="#B2ABF2" stroke-width="0.5" stroke-miterlimit="10"/>
<path d="M37.7097 22.3522H48.5224L47.9539 23.8489H32.3862L34.0132 23.3918H34.0149L37.6269 22.3754L37.7097 22.3522Z" fill="black" stroke="#B2ABF2" stroke-width="0.5" stroke-miterlimit="10"/>
<path d="M48.5226 22.352H48.5381L49.9184 22.8924L51.2409 23.4122C50.6385 23.7111 49.9727 23.8608 49.2999 23.8487H47.9541L48.5226 22.352Z" fill="black" stroke="#B2ABF2" stroke-width="0.5" stroke-miterlimit="10"/>
<path d="M51.2406 12.7877C51.9669 13.1623 52.6709 13.8565 52.8952 15.1376V21.0582C52.6709 22.347 51.9669 23.0343 51.2406 23.4124L49.9155 22.8925C50.7083 22.3281 51.9368 19.9507 51.9368 18.1078V18.1009C51.9368 16.2579 50.7083 13.872 49.9155 13.3075L51.2406 12.7877Z" fill="black" stroke="#B2ABF2" stroke-width="0.5" stroke-miterlimit="10"/>
<path d="M27.4482 21.3365C27.8415 22.1957 28.7982 22.1957 28.7982 22.1957C28.7594 22.9011 28.9647 23.4845 29.2736 23.8496H28.9751C28.1985 23.7151 27.4787 23.3566 26.9047 22.8186C26.7684 22.5677 26.6234 22.2816 26.4785 21.9706L27.4482 21.3365Z" fill="black" stroke="#B2ABF2" stroke-width="0.5" stroke-miterlimit="10"/>
<path d="M48.538 22.3107L48.5225 22.3521" stroke="#B2ABF2" stroke-width="0.5" stroke-miterlimit="10"/>
<path d="M26.4839 14.2285L27.4484 14.8634C27.4222 14.9193 27.3994 14.9767 27.3802 15.0353C27.1266 15.9322 27.017 16.7656 27.0248 18.0991C27.017 19.4326 27.1266 20.2625 27.3802 21.1595C27.3994 21.2181 27.4222 21.2755 27.4484 21.3313L26.4839 21.9714C25.9835 20.8863 25.5039 19.4884 25.5039 18.1008C25.5039 16.7132 25.9835 15.3111 26.4839 14.2285Z" fill="black" stroke="#B2ABF2" stroke-width="0.5" stroke-miterlimit="10"/>
<path d="M62.0139 13.3095H58.5947V11.7523H67.1595V13.3095H63.7404V24.4471H62.0139V13.3095Z" fill="white"/>
<path d="M74.9876 21.6373H68.7418L67.6415 24.4471H65.8304L70.7899 11.7523H72.9734L77.9159 24.4471H76.0879L74.9876 21.6373ZM74.3783 20.0632L71.8732 13.6142L69.3511 20.0632H74.3783Z" fill="white"/>
<path d="M84.0914 17.338C84.6444 17.338 85.1127 17.1462 85.4963 16.7625C85.88 16.3788 86.0718 15.9049 86.0718 15.3407C86.0718 14.7878 85.8744 14.3138 85.4794 13.9189C85.0957 13.5239 84.6331 13.3264 84.0914 13.3264H81.1293V17.338H84.0914ZM79.4367 11.7523H84.0914C84.8136 11.7523 85.4512 11.9103 86.0041 12.2262C86.5683 12.5422 87.0028 12.9766 87.3075 13.5296C87.6121 14.0712 87.7645 14.6749 87.7645 15.3407C87.7645 16.0516 87.5896 16.6948 87.2398 17.2703C86.9012 17.8345 86.4273 18.2577 85.8179 18.5398L88.6277 24.4471H86.7658L84.1084 18.9122H84.0914H81.1293V24.4471H79.4367V11.7523Z" fill="white"/>
<path d="M96.4717 24.6164C95.2869 24.6164 94.1979 24.3287 93.2049 23.7532C92.2119 23.1664 91.422 22.3765 90.8352 21.3834C90.2597 20.3791 89.9719 19.2846 89.9719 18.0997C89.9719 16.9149 90.2597 15.8259 90.8352 14.8329C91.422 13.8286 92.2119 13.0387 93.2049 12.4632C94.1979 11.8764 95.2869 11.583 96.4717 11.583C97.3857 11.583 98.2546 11.7579 99.0784 12.1077C99.9021 12.4575 100.624 12.9484 101.245 13.5803L100.043 14.7483C99.5805 14.2856 99.0389 13.9245 98.4183 13.665C97.8089 13.4054 97.16 13.2757 96.4717 13.2757C95.5915 13.2757 94.7791 13.4901 94.0343 13.9189C93.3008 14.3477 92.7197 14.9345 92.2909 15.6792C91.8621 16.4127 91.6477 17.2195 91.6477 18.0997C91.6477 18.9799 91.8621 19.7924 92.2909 20.5371C92.7197 21.2706 93.3008 21.8517 94.0343 22.2805C94.7791 22.7094 95.5915 22.9238 96.4717 22.9238C97.1149 22.9238 97.7243 22.8109 98.2998 22.5852C98.8866 22.3483 99.4056 22.0267 99.857 21.6204V18.9122H96.3024V17.338H101.516V24.4471H99.857V23.4146C98.8076 24.2158 97.6791 24.6164 96.4717 24.6164Z" fill="white"/>
<path d="M104.465 11.7523H111.642V13.3264H106.158V17.3042H110.931V18.8783H106.158V22.873H111.642V24.4471H104.465V11.7523Z" fill="white"/>
<path d="M116.298 13.3095H112.878V11.7523H121.443V13.3095H118.024V24.4471H116.298V13.3095Z" fill="white"/>
<path d="M129.611 18.9122V24.4471H127.918V11.7523H132.573C133.295 11.7523 133.933 11.9103 134.486 12.2262C135.05 12.5422 135.485 12.9766 135.789 13.5296C136.094 14.0712 136.246 14.6749 136.246 15.3407C136.246 16.0065 136.094 16.6158 135.789 17.1687C135.485 17.7104 135.05 18.1392 134.486 18.4552C133.933 18.7598 133.295 18.9122 132.573 18.9122H129.611ZM132.573 17.338C133.126 17.338 133.594 17.1462 133.978 16.7625C134.362 16.3788 134.554 15.9049 134.554 15.3407C134.554 14.7878 134.356 14.3138 133.961 13.9189C133.578 13.5239 133.115 13.3264 132.573 13.3264H129.611V17.338H132.573Z" fill="white"/>
<path d="M144.644 21.6373H138.398L137.298 24.4471H135.487L140.446 11.7523H142.63L147.572 24.4471H145.744L144.644 21.6373ZM144.035 20.0632L141.53 13.6142L139.008 20.0632H144.035Z" fill="white"/>
<path d="M153.748 17.338C154.301 17.338 154.769 17.1462 155.153 16.7625C155.536 16.3788 155.728 15.9049 155.728 15.3407C155.728 14.7878 155.531 14.3138 155.136 13.9189C154.752 13.5239 154.29 13.3264 153.748 13.3264H150.786V17.338H153.748ZM149.093 11.7523H153.748C154.47 11.7523 155.108 11.9103 155.661 12.2262C156.225 12.5422 156.659 12.9766 156.964 13.5296C157.269 14.0712 157.421 14.6749 157.421 15.3407C157.421 16.0516 157.246 16.6948 156.896 17.2703C156.558 17.8345 156.084 18.2577 155.474 18.5398L158.284 24.4471H156.422L153.765 18.9122H153.748H150.786V24.4471H149.093V11.7523Z" fill="white"/>
<path d="M162.368 19.1322L161.894 18.252V24.4471H160.201V11.7523H161.894V16.6948L166.735 11.7523H168.884L163.079 17.6935L169.003 24.4471H166.938L162.368 19.1322ZM161.911 17.5581L161.894 17.5073V17.575L161.911 17.5581Z" fill="white"/>
<path d="M170.32 11.7523H172.012V24.4471H170.32V11.7523Z" fill="white"/>
<path d="M175.078 11.7184H176.771L184.167 21.6373V11.7184H185.86V24.4471H184.167L176.771 14.5282V24.4471H175.078V11.7184Z" fill="white"/>
<path d="M194.956 24.6164C193.771 24.6164 192.682 24.3287 191.689 23.7532C190.696 23.1664 189.906 22.3765 189.32 21.3834C188.744 20.3791 188.456 19.2846 188.456 18.0997C188.456 16.9149 188.744 15.8259 189.32 14.8329C189.906 13.8286 190.696 13.0387 191.689 12.4632C192.682 11.8764 193.771 11.583 194.956 11.583C195.87 11.583 196.739 11.7579 197.563 12.1077C198.387 12.4575 199.109 12.9484 199.729 13.5803L198.528 14.7483C198.065 14.2856 197.523 13.9245 196.903 13.665C196.293 13.4054 195.644 13.2757 194.956 13.2757C194.076 13.2757 193.263 13.4901 192.519 13.9189C191.785 14.3477 191.204 14.9345 190.775 15.6792C190.346 16.4127 190.132 17.2195 190.132 18.0997C190.132 18.9799 190.346 19.7924 190.775 20.5371C191.204 21.2706 191.785 21.8517 192.519 22.2805C193.263 22.7094 194.076 22.9238 194.956 22.9238C195.599 22.9238 196.209 22.8109 196.784 22.5852C197.371 22.3483 197.89 22.0267 198.341 21.6204V18.9122H194.787V17.338H200V24.4471H198.341V23.4146C197.292 24.2158 196.164 24.6164 194.956 24.6164Z" fill="white"/>
</svg>
