<svg width="548" height="325" viewBox="0 0 548 325" fill="none" xmlns="http://www.w3.org/2000/svg">
<g filter="url(#filter0_bdi_322_281)">
<path d="M4 30.6153C4 14.0467 17.4315 0.615295 34 0.615295H514C530.569 0.615295 544 14.0468 544 30.6153V286.38C544 302.948 530.569 316.38 514 316.38H34C17.4315 316.38 4 302.948 4 286.38V30.6153Z" fill="#515151" fill-opacity="0.15" shape-rendering="crispEdges"/>
<path d="M4.5 30.6153C4.5 14.3229 17.7076 1.1153 34 1.1153H514C530.292 1.1153 543.5 14.3229 543.5 30.6153V286.38C543.5 302.672 530.292 315.88 514 315.88H34C17.7076 315.88 4.5 302.672 4.5 286.38V30.6153Z" stroke="white" stroke-opacity="0.1" shape-rendering="crispEdges"/>
</g>
<path d="M73.995 160.968C73.995 162.216 73.723 163.32 73.179 164.28C72.635 165.24 71.883 165.992 70.923 166.536C69.995 167.08 68.939 167.352 67.755 167.352C66.571 167.352 65.499 167.08 64.539 166.536C63.611 165.992 62.875 165.24 62.331 164.28C61.787 163.32 61.515 162.216 61.515 160.968C61.515 159.688 61.787 158.584 62.331 157.656C62.875 156.696 63.611 155.96 64.539 155.448C65.499 154.904 66.571 154.632 67.755 154.632C68.939 154.632 69.995 154.904 70.923 155.448C71.883 155.96 72.635 156.696 73.179 157.656C73.723 158.584 73.995 159.688 73.995 160.968ZM67.179 182.904L77.403 169.56C78.331 168.344 79.115 167.032 79.755 165.624C80.395 164.184 80.715 162.632 80.715 160.968C80.715 158.344 80.123 156.12 78.939 154.296C77.787 152.472 76.235 151.096 74.283 150.168C72.331 149.208 70.155 148.728 67.755 148.728C65.355 148.728 63.179 149.208 61.227 150.168C59.275 151.096 57.707 152.472 56.523 154.296C55.371 156.12 54.795 158.344 54.795 160.968C54.795 162.6 55.083 164.088 55.659 165.432C56.235 166.776 57.003 167.928 57.963 168.888C58.955 169.848 60.059 170.584 61.275 171.096C62.491 171.608 63.739 171.864 65.019 171.864C66.203 171.864 67.211 171.736 68.043 171.48C68.875 171.192 69.691 170.632 70.491 169.8L69.291 170.232L58.491 182.904H67.179ZM92.2181 171.432C92.2181 170.184 92.4901 169.08 93.0341 168.12C93.5781 167.128 94.3141 166.376 95.2421 165.864C96.2021 165.32 97.2741 165.048 98.4581 165.048C99.6421 165.048 100.698 165.32 101.626 165.864C102.586 166.376 103.338 167.128 103.882 168.12C104.426 169.08 104.698 170.184 104.698 171.432C104.698 172.712 104.426 173.832 103.882 174.792C103.338 175.72 102.586 176.456 101.626 177C100.698 177.512 99.6421 177.768 98.4581 177.768C97.2741 177.768 96.2021 177.512 95.2421 177C94.3141 176.456 93.5781 175.72 93.0341 174.792C92.4901 173.832 92.2181 172.712 92.2181 171.432ZM99.0341 149.496L88.8581 162.84C87.8981 164.056 87.0981 165.384 86.4581 166.824C85.8181 168.232 85.4981 169.768 85.4981 171.432C85.4981 174.056 86.0741 176.28 87.2261 178.104C88.4101 179.928 89.9781 181.32 91.9301 182.28C93.8821 183.208 96.0581 183.672 98.4581 183.672C100.858 183.672 103.034 183.208 104.986 182.28C106.938 181.32 108.49 179.928 109.642 178.104C110.826 176.28 111.418 174.056 111.418 171.432C111.418 169.8 111.13 168.312 110.554 166.968C109.978 165.624 109.21 164.472 108.25 163.512C107.29 162.552 106.186 161.816 104.938 161.304C103.722 160.792 102.474 160.536 101.194 160.536C100.01 160.536 99.0021 160.664 98.1701 160.92C97.3701 161.176 96.5541 161.736 95.7221 162.6L96.9701 162.168L107.722 149.496H99.0341ZM119.993 177.72L115.769 190.152L120.377 191.256L126.185 179.256L119.993 177.72ZM141.993 166.632C144.521 166.632 146.777 166.296 148.761 165.624C150.745 164.952 152.313 163.976 153.465 162.696C154.617 161.384 155.193 159.816 155.193 157.992C155.193 156.296 154.761 154.76 153.897 153.384C153.033 152.008 151.769 150.904 150.105 150.072C148.473 149.24 146.489 148.824 144.153 148.824C141.945 148.824 140.009 149.256 138.345 150.12C136.681 150.984 135.369 152.168 134.409 153.672C133.481 155.144 133.017 156.84 133.017 158.76H139.401C139.401 157.512 139.849 156.488 140.745 155.688C141.673 154.856 142.809 154.44 144.153 154.44C145.113 154.44 145.897 154.6 146.505 154.92C147.113 155.24 147.577 155.704 147.897 156.312C148.217 156.92 148.377 157.624 148.377 158.424C148.377 159.064 148.217 159.688 147.897 160.296C147.609 160.872 147.193 161.4 146.649 161.88C146.105 162.328 145.433 162.68 144.633 162.936C143.865 163.192 142.985 163.32 141.993 163.32V166.632ZM143.865 183.672C146.361 183.672 148.521 183.272 150.345 182.472C152.201 181.64 153.625 180.488 154.617 179.016C155.641 177.544 156.153 175.848 156.153 173.928C156.153 172.232 155.801 170.792 155.097 169.608C154.393 168.392 153.401 167.4 152.121 166.632C150.841 165.832 149.337 165.256 147.609 164.904C145.913 164.552 144.041 164.376 141.993 164.376V168.024C143.177 168.024 144.217 168.152 145.113 168.408C146.041 168.632 146.809 168.968 147.417 169.416C148.057 169.864 148.537 170.424 148.857 171.096C149.177 171.736 149.337 172.44 149.337 173.208C149.337 174.264 149.113 175.144 148.665 175.848C148.217 176.552 147.593 177.096 146.793 177.48C146.025 177.832 145.113 178.008 144.057 178.008C143.033 178.008 142.089 177.816 141.225 177.432C140.361 177.016 139.673 176.424 139.161 175.656C138.649 174.888 138.393 173.96 138.393 172.872H131.577C131.577 174.312 131.865 175.688 132.441 177C133.017 178.28 133.833 179.432 134.889 180.456C135.945 181.448 137.225 182.232 138.729 182.808C140.233 183.384 141.945 183.672 143.865 183.672ZM158.394 170.064C158.394 170.832 158.578 171.544 158.946 172.2C159.33 172.84 159.85 173.352 160.506 173.736C161.162 174.12 161.898 174.312 162.714 174.312C163.546 174.312 164.282 174.12 164.922 173.736C165.578 173.352 166.09 172.84 166.458 172.2C166.826 171.544 167.01 170.832 167.01 170.064C167.01 169.264 166.826 168.544 166.458 167.904C166.09 167.264 165.578 166.76 164.922 166.392C164.282 166.008 163.546 165.816 162.714 165.816C161.898 165.816 161.162 166.008 160.506 166.392C159.85 166.76 159.33 167.264 158.946 167.904C158.578 168.544 158.394 169.264 158.394 170.064ZM160.986 170.064C160.986 169.728 161.058 169.424 161.202 169.152C161.346 168.88 161.546 168.664 161.802 168.504C162.058 168.328 162.362 168.24 162.714 168.24C163.066 168.24 163.362 168.328 163.602 168.504C163.858 168.664 164.058 168.88 164.202 169.152C164.346 169.424 164.418 169.728 164.418 170.064C164.418 170.384 164.346 170.688 164.202 170.976C164.058 171.248 163.858 171.464 163.602 171.624C163.362 171.784 163.066 171.864 162.714 171.864C162.362 171.864 162.058 171.784 161.802 171.624C161.546 171.464 161.346 171.248 161.202 170.976C161.058 170.688 160.986 170.384 160.986 170.064ZM169.314 179.136C169.314 179.92 169.498 180.632 169.866 181.272C170.25 181.912 170.77 182.424 171.426 182.808C172.082 183.192 172.818 183.384 173.634 183.384C174.466 183.384 175.202 183.192 175.842 182.808C176.498 182.424 177.01 181.912 177.378 181.272C177.746 180.632 177.93 179.92 177.93 179.136C177.93 178.352 177.746 177.64 177.378 177C177.01 176.344 176.498 175.832 175.842 175.464C175.202 175.08 174.466 174.888 173.634 174.888C172.818 174.888 172.082 175.08 171.426 175.464C170.77 175.832 170.25 176.344 169.866 177C169.498 177.64 169.314 178.352 169.314 179.136ZM171.906 179.136C171.906 178.8 171.978 178.496 172.122 178.224C172.266 177.952 172.466 177.736 172.722 177.576C172.978 177.416 173.282 177.336 173.634 177.336C173.986 177.336 174.282 177.416 174.522 177.576C174.778 177.736 174.978 177.952 175.122 178.224C175.266 178.496 175.338 178.8 175.338 179.136C175.338 179.456 175.266 179.76 175.122 180.048C174.978 180.32 174.778 180.536 174.522 180.696C174.282 180.856 173.986 180.936 173.634 180.936C173.282 180.936 172.978 180.856 172.722 180.696C172.466 180.536 172.266 180.32 172.122 180.048C171.978 179.76 171.906 179.456 171.906 179.136ZM172.722 166.2L160.482 183H163.626L175.866 166.2H172.722Z" fill="white"/>
<path d="M66.1523 52.54L66.2523 49.3L53.8123 61.46L53.7123 64.7L66.1523 52.54ZM56.0323 50H53.7123V64.7L56.0323 62.06V50ZM66.2523 49.3L63.9323 52V64H66.2523V49.3ZM71.0969 57C71.0969 56 71.3169 55.1333 71.7569 54.4C72.2102 53.6533 72.7969 53.08 73.5169 52.68C74.2502 52.2667 75.0435 52.06 75.8969 52.06C76.5635 52.06 77.1635 52.1467 77.6969 52.32C78.2302 52.4933 78.7102 52.7333 79.1369 53.04C79.5769 53.3333 79.9569 53.6667 80.2769 54.04V51.24C79.6902 50.76 79.0569 50.3933 78.3769 50.14C77.6969 49.8867 76.8435 49.76 75.8169 49.76C74.7902 49.76 73.8302 49.9333 72.9369 50.28C72.0569 50.6267 71.2902 51.1267 70.6369 51.78C69.9835 52.4333 69.4702 53.2067 69.0969 54.1C68.7369 54.98 68.5569 55.9467 68.5569 57C68.5569 58.0533 68.7369 59.0267 69.0969 59.92C69.4702 60.8 69.9835 61.5667 70.6369 62.22C71.2902 62.8733 72.0569 63.3733 72.9369 63.72C73.8302 64.0667 74.7902 64.24 75.8169 64.24C76.8435 64.24 77.6969 64.1133 78.3769 63.86C79.0569 63.6067 79.6902 63.24 80.2769 62.76V59.96C79.9569 60.3333 79.5769 60.6733 79.1369 60.98C78.7102 61.2733 78.2302 61.5067 77.6969 61.68C77.1635 61.8533 76.5635 61.94 75.8969 61.94C75.0435 61.94 74.2502 61.74 73.5169 61.34C72.7969 60.9267 72.2102 60.3467 71.7569 59.6C71.3169 58.8533 71.0969 57.9867 71.0969 57ZM92.385 52.18V64H94.765V50H83.225V64H85.625V52.18H92.385ZM99.6311 57C99.6311 56.04 99.8311 55.1867 100.231 54.44C100.644 53.68 101.211 53.0867 101.931 52.66C102.651 52.2333 103.471 52.02 104.391 52.02C105.338 52.02 106.164 52.2333 106.871 52.66C107.591 53.0867 108.151 53.68 108.551 54.44C108.951 55.1867 109.151 56.04 109.151 57C109.151 57.96 108.944 58.82 108.531 59.58C108.131 60.3267 107.571 60.9133 106.851 61.34C106.144 61.7667 105.324 61.98 104.391 61.98C103.471 61.98 102.651 61.7667 101.931 61.34C101.211 60.9133 100.644 60.3267 100.231 59.58C99.8311 58.82 99.6311 57.96 99.6311 57ZM97.1311 57C97.1311 58.04 97.3111 59.0067 97.6711 59.9C98.0311 60.7933 98.5311 61.5667 99.1711 62.22C99.8244 62.8733 100.598 63.3867 101.491 63.76C102.384 64.12 103.351 64.3 104.391 64.3C105.444 64.3 106.411 64.12 107.291 63.76C108.184 63.3867 108.958 62.8733 109.611 62.22C110.264 61.5667 110.771 60.7933 111.131 59.9C111.491 59.0067 111.671 58.04 111.671 57C111.671 55.9467 111.491 54.98 111.131 54.1C110.771 53.22 110.258 52.46 109.591 51.82C108.938 51.1667 108.171 50.66 107.291 50.3C106.411 49.94 105.444 49.76 104.391 49.76C103.364 49.76 102.404 49.94 101.511 50.3C100.631 50.66 99.8578 51.1667 99.1911 51.82C98.5378 52.46 98.0311 53.22 97.6711 54.1C97.3111 54.98 97.1311 55.9467 97.1311 57ZM124.866 50H114.566V58.6C114.566 59.0933 114.52 59.5467 114.426 59.96C114.346 60.3733 114.22 60.7333 114.046 61.04C113.886 61.3333 113.686 61.5667 113.446 61.74C113.206 61.9 112.926 61.98 112.606 61.98V64C113.58 64 114.38 63.78 115.006 63.34C115.646 62.9 116.12 62.2867 116.426 61.5C116.733 60.7 116.886 59.7867 116.886 58.76V52.18H122.466V64H124.866V50ZM128.029 50V64H130.389V50H128.029ZM129.429 57.38H132.249C132.782 57.38 133.249 57.4667 133.649 57.64C134.062 57.8 134.382 58.0533 134.609 58.4C134.835 58.7333 134.949 59.1533 134.949 59.66C134.949 60.1533 134.835 60.5733 134.609 60.92C134.382 61.2533 134.062 61.5067 133.649 61.68C133.249 61.84 132.782 61.92 132.249 61.92H129.429V64H132.249C133.262 64 134.142 63.8267 134.889 63.48C135.649 63.12 136.235 62.6133 136.649 61.96C137.062 61.3067 137.269 60.54 137.269 59.66C137.269 58.7533 137.062 57.98 136.649 57.34C136.235 56.6867 135.649 56.1867 134.889 55.84C134.142 55.48 133.262 55.3 132.249 55.3H129.429V57.38ZM143.871 57.14C144.671 57.14 145.411 57.06 146.091 56.9C146.785 56.7267 147.378 56.48 147.871 56.16C148.378 55.84 148.771 55.46 149.051 55.02C149.331 54.58 149.471 54.0933 149.471 53.56C149.471 52.8667 149.278 52.24 148.891 51.68C148.518 51.1067 147.971 50.6467 147.251 50.3C146.531 49.9533 145.658 49.78 144.631 49.78C143.618 49.78 142.745 49.9533 142.011 50.3C141.278 50.6333 140.711 51.0933 140.311 51.68C139.925 52.2667 139.731 52.9467 139.731 53.72H141.951C141.951 53.3467 142.065 53.0133 142.291 52.72C142.518 52.4267 142.831 52.2 143.231 52.04C143.645 51.8667 144.111 51.78 144.631 51.78C145.178 51.78 145.631 51.86 145.991 52.02C146.365 52.18 146.638 52.4133 146.811 52.72C146.998 53.0133 147.091 53.3467 147.091 53.72C147.091 54.12 146.965 54.4867 146.711 54.82C146.471 55.14 146.111 55.4 145.631 55.6C145.151 55.7867 144.565 55.88 143.871 55.88V57.14ZM144.611 64.24C145.745 64.24 146.698 64.0733 147.471 63.74C148.258 63.4067 148.851 62.94 149.251 62.34C149.665 61.74 149.871 61.0467 149.871 60.26C149.871 59.3133 149.605 58.5533 149.071 57.98C148.551 57.4067 147.838 56.9867 146.931 56.72C146.025 56.44 145.005 56.3 143.871 56.3V57.64C144.618 57.64 145.258 57.7333 145.791 57.92C146.338 58.1067 146.758 58.3733 147.051 58.72C147.345 59.0667 147.491 59.4933 147.491 60C147.491 60.6933 147.245 61.2333 146.751 61.62C146.258 62.0067 145.531 62.2 144.571 62.2C143.931 62.2 143.385 62.1133 142.931 61.94C142.491 61.7533 142.151 61.5 141.911 61.18C141.671 60.8467 141.531 60.4533 141.491 60H139.131C139.131 60.5733 139.245 61.12 139.471 61.64C139.698 62.1467 140.038 62.6 140.491 63C140.958 63.3867 141.531 63.6933 142.211 63.92C142.891 64.1333 143.691 64.24 144.611 64.24ZM153.908 57C153.908 56.04 154.108 55.1867 154.508 54.44C154.922 53.68 155.488 53.0867 156.208 52.66C156.928 52.2333 157.748 52.02 158.668 52.02C159.615 52.02 160.442 52.2333 161.148 52.66C161.868 53.0867 162.428 53.68 162.828 54.44C163.228 55.1867 163.428 56.04 163.428 57C163.428 57.96 163.222 58.82 162.808 59.58C162.408 60.3267 161.848 60.9133 161.128 61.34C160.422 61.7667 159.602 61.98 158.668 61.98C157.748 61.98 156.928 61.7667 156.208 61.34C155.488 60.9133 154.922 60.3267 154.508 59.58C154.108 58.82 153.908 57.96 153.908 57ZM151.408 57C151.408 58.04 151.588 59.0067 151.948 59.9C152.308 60.7933 152.808 61.5667 153.448 62.22C154.102 62.8733 154.875 63.3867 155.768 63.76C156.662 64.12 157.628 64.3 158.668 64.3C159.722 64.3 160.688 64.12 161.568 63.76C162.462 63.3867 163.235 62.8733 163.888 62.22C164.542 61.5667 165.048 60.7933 165.408 59.9C165.768 59.0067 165.948 58.04 165.948 57C165.948 55.9467 165.768 54.98 165.408 54.1C165.048 53.22 164.535 52.46 163.868 51.82C163.215 51.1667 162.448 50.66 161.568 50.3C160.688 49.94 159.722 49.76 158.668 49.76C157.642 49.76 156.682 49.94 155.788 50.3C154.908 50.66 154.135 51.1667 153.468 51.82C152.815 52.46 152.308 53.22 151.948 54.1C151.588 54.98 151.408 55.9467 151.408 57ZM170.044 56.78H172.464C173.344 56.78 174.117 56.6533 174.784 56.4C175.464 56.1467 175.99 55.78 176.364 55.3C176.75 54.8067 176.944 54.2133 176.944 53.52C176.944 52.72 176.75 52.06 176.364 51.54C175.99 51.02 175.464 50.6333 174.784 50.38C174.117 50.1267 173.344 50 172.464 50H168.244V64H172.704C173.69 64 174.557 63.86 175.304 63.58C176.064 63.2867 176.657 62.84 177.084 62.24C177.524 61.64 177.744 60.88 177.744 59.96C177.744 59.2933 177.61 58.72 177.344 58.24C177.077 57.76 176.704 57.3667 176.224 57.06C175.757 56.7533 175.224 56.5267 174.624 56.38C174.024 56.2333 173.384 56.16 172.704 56.16H170.044V57.46H172.564C172.964 57.46 173.33 57.5067 173.664 57.6C173.997 57.68 174.284 57.82 174.524 58.02C174.777 58.2067 174.97 58.4467 175.104 58.74C175.25 59.02 175.324 59.3467 175.324 59.72C175.324 60.24 175.204 60.6733 174.964 61.02C174.724 61.3667 174.397 61.6267 173.984 61.8C173.57 61.9733 173.097 62.06 172.564 62.06H170.604V51.94H172.304C172.957 51.94 173.49 52.1 173.904 52.42C174.317 52.74 174.524 53.1933 174.524 53.78C174.524 54.1667 174.43 54.5 174.244 54.78C174.057 55.0467 173.797 55.2533 173.464 55.4C173.13 55.5467 172.744 55.62 172.304 55.62H170.044V56.78ZM181.623 60.4H189.023L188.563 58.4H182.063L181.623 60.4ZM185.283 53.96L187.503 59.16L187.563 59.74L189.463 64H192.123L185.283 49.22L178.443 64H181.103L183.043 59.62L183.083 59.1L185.283 53.96ZM194.691 57.58H204.671V55.4H194.691V57.58ZM203.151 50V64H205.511V50H203.151ZM193.751 50V64H196.111V50H193.751ZM221.074 52.54L221.174 49.3L208.734 61.46L208.634 64.7L221.074 52.54ZM210.954 50H208.634V64.7L210.954 62.06V50ZM221.174 49.3L218.854 52V64H221.174V49.3ZM225.739 64H232.799V61.92H225.739V64ZM225.739 52.08H232.799V50H225.739V52.08ZM225.739 57.52H232.399V55.48H225.739V57.52ZM224.279 50V64H226.599V50H224.279ZM250.901 52.18V64H253.281V50H241.741V64H244.141V52.18H250.901ZM256.447 50V64H258.807V50H256.447ZM257.847 52.08H260.667C261.48 52.08 262.133 52.2733 262.627 52.66C263.12 53.0333 263.367 53.5933 263.367 54.34C263.367 55.0867 263.12 55.6533 262.627 56.04C262.133 56.4267 261.48 56.62 260.667 56.62H257.847V58.7H260.667C261.68 58.7 262.56 58.5267 263.307 58.18C264.067 57.82 264.653 57.3133 265.067 56.66C265.48 56.0067 265.687 55.2333 265.687 54.34C265.687 53.4467 265.48 52.68 265.067 52.04C264.653 51.3867 264.067 50.8867 263.307 50.54C262.56 50.18 261.68 50 260.667 50H257.847V52.08ZM280.449 52.54L280.549 49.3L268.109 61.46L268.009 64.7L280.449 52.54ZM270.329 50H268.009V64.7L270.329 62.06V50ZM280.549 49.3L278.229 52V64H280.549V49.3ZM294.554 50H284.254V58.6C284.254 59.0933 284.207 59.5467 284.114 59.96C284.034 60.3733 283.907 60.7333 283.734 61.04C283.574 61.3333 283.374 61.5667 283.134 61.74C282.894 61.9 282.614 61.98 282.294 61.98V64C283.267 64 284.067 63.78 284.694 63.34C285.334 62.9 285.807 62.2867 286.114 61.5C286.42 60.7 286.574 59.7867 286.574 58.76V52.18H292.154V64H294.554V50ZM299.416 57C299.416 56.04 299.616 55.1867 300.016 54.44C300.43 53.68 300.996 53.0867 301.716 52.66C302.436 52.2333 303.256 52.02 304.176 52.02C305.123 52.02 305.95 52.2333 306.656 52.66C307.376 53.0867 307.936 53.68 308.336 54.44C308.736 55.1867 308.936 56.04 308.936 57C308.936 57.96 308.73 58.82 308.316 59.58C307.916 60.3267 307.356 60.9133 306.636 61.34C305.93 61.7667 305.11 61.98 304.176 61.98C303.256 61.98 302.436 61.7667 301.716 61.34C300.996 60.9133 300.43 60.3267 300.016 59.58C299.616 58.82 299.416 57.96 299.416 57ZM296.916 57C296.916 58.04 297.096 59.0067 297.456 59.9C297.816 60.7933 298.316 61.5667 298.956 62.22C299.61 62.8733 300.383 63.3867 301.276 63.76C302.17 64.12 303.136 64.3 304.176 64.3C305.23 64.3 306.196 64.12 307.076 63.76C307.97 63.3867 308.743 62.8733 309.396 62.22C310.05 61.5667 310.556 60.7933 310.916 59.9C311.276 59.0067 311.456 58.04 311.456 57C311.456 55.9467 311.276 54.98 310.916 54.1C310.556 53.22 310.043 52.46 309.376 51.82C308.723 51.1667 307.956 50.66 307.076 50.3C306.196 49.94 305.23 49.76 304.176 49.76C303.15 49.76 302.19 49.94 301.296 50.3C300.416 50.66 299.643 51.1667 298.976 51.82C298.323 52.46 297.816 53.22 297.456 54.1C297.096 54.98 296.916 55.9467 296.916 57ZM314.786 50H311.946L317.906 56.56L311.646 64H314.486L320.706 56.6L314.786 50ZM320.166 50V64H322.586V50H320.166ZM327.766 50L322.046 56.6L328.066 64H330.966L324.706 56.56L330.666 50H327.766ZM334.02 64H341.08V61.92H334.02V64ZM334.02 52.08H341.08V50H334.02V52.08ZM334.02 57.52H340.68V55.48H334.02V57.52ZM332.56 50V64H334.88V50H332.56ZM344.926 57.58H354.906V55.4H344.926V57.58ZM353.386 50V64H355.746V50H353.386ZM343.986 50V64H346.346V50H343.986ZM371.309 52.54L371.409 49.3L358.969 61.46L358.869 64.7L371.309 52.54ZM361.189 50H358.869V64.7L361.189 62.06V50ZM371.409 49.3L369.089 52V64H371.409V49.3ZM380.393 57.32H377.853L373.113 64H375.953L380.393 57.32ZM383.293 50H380.933V64H383.293V50ZM381.893 52.04V50H378.973C377.96 50 377.073 50.18 376.313 50.54C375.566 50.9 374.986 51.4067 374.573 52.06C374.16 52.7 373.953 53.46 373.953 54.34C373.953 55.22 374.16 55.9867 374.573 56.64C374.986 57.2933 375.566 57.8 376.313 58.16C377.073 58.52 377.96 58.7 378.973 58.7H381.893V56.76H379.073C378.54 56.76 378.066 56.6667 377.653 56.48C377.253 56.2933 376.94 56.0267 376.713 55.68C376.486 55.32 376.373 54.8933 376.373 54.4C376.373 53.8933 376.486 53.4667 376.713 53.12C376.94 52.7733 377.253 52.5067 377.653 52.32C378.066 52.1333 378.54 52.04 379.073 52.04H381.893Z" fill="#B2ABF2"/>
<circle cx="409.3" cy="187.3" r="79.8" stroke="#564592" stroke-width="15"/>
<mask id="mask0_322_281" style="mask-type:alpha" maskUnits="userSpaceOnUse" x="308" y="74" width="211" height="205">
<path d="M410 187.5L407.728 95.3985L308 115.093C320.431 167.75 324.342 268.623 324.342 274.322C324.342 280.02 422.84 274.868 471.726 278.5L518.726 171L429.281 74.3996L410 187.5Z" fill="#D9D9D9"/>
</mask>
<g mask="url(#mask0_322_281)">
<g filter="url(#filter1_d_322_281)">
<circle cx="409.966" cy="186.889" r="78.3" stroke="white" stroke-width="18" shape-rendering="crispEdges"/>
</g>
</g>
<path d="M54.836 212.7C54.836 211.644 55.058 210.708 55.502 209.892C55.958 209.064 56.576 208.416 57.356 207.948C58.148 207.468 59.048 207.228 60.056 207.228C61.064 207.228 61.958 207.468 62.738 207.948C63.53 208.416 64.148 209.064 64.592 209.892C65.036 210.708 65.258 211.644 65.258 212.7C65.258 213.744 65.036 214.68 64.592 215.508C64.148 216.336 63.53 216.99 62.738 217.47C61.958 217.938 61.064 218.172 60.056 218.172C59.048 218.172 58.148 217.938 57.356 217.47C56.576 216.99 55.958 216.336 55.502 215.508C55.058 214.68 54.836 213.744 54.836 212.7ZM53.792 212.7C53.792 213.624 53.948 214.482 54.26 215.274C54.572 216.054 55.01 216.738 55.574 217.326C56.138 217.902 56.798 218.352 57.554 218.676C58.322 219 59.156 219.162 60.056 219.162C60.956 219.162 61.784 219 62.54 218.676C63.308 218.352 63.974 217.902 64.538 217.326C65.102 216.738 65.54 216.054 65.852 215.274C66.164 214.482 66.32 213.624 66.32 212.7C66.32 211.776 66.164 210.924 65.852 210.144C65.54 209.352 65.102 208.668 64.538 208.092C63.974 207.504 63.308 207.048 62.54 206.724C61.784 206.4 60.956 206.238 60.056 206.238C59.156 206.238 58.322 206.4 57.554 206.724C56.798 207.048 56.138 207.504 55.574 208.092C55.01 208.668 54.572 209.352 54.26 210.144C53.948 210.924 53.792 211.776 53.792 212.7ZM74.8167 210.72H68.5707V219H69.5067V211.602H73.8807V219H74.8167V210.72ZM78.436 222.96V210.72H77.5V222.96H78.436ZM85.51 214.86C85.51 213.96 85.33 213.192 84.97 212.556C84.622 211.908 84.142 211.41 83.53 211.062C82.93 210.714 82.258 210.54 81.514 210.54C80.818 210.54 80.206 210.732 79.678 211.116C79.15 211.488 78.736 211.998 78.436 212.646C78.148 213.294 78.004 214.032 78.004 214.86C78.004 215.676 78.148 216.414 78.436 217.074C78.736 217.722 79.15 218.238 79.678 218.622C80.206 218.994 80.818 219.18 81.514 219.18C82.258 219.18 82.93 219.006 83.53 218.658C84.142 218.31 84.622 217.812 84.97 217.164C85.33 216.516 85.51 215.748 85.51 214.86ZM84.574 214.86C84.574 215.58 84.43 216.198 84.142 216.714C83.854 217.23 83.47 217.626 82.99 217.902C82.51 218.166 81.976 218.298 81.388 218.298C80.884 218.298 80.404 218.148 79.948 217.848C79.492 217.548 79.126 217.14 78.85 216.624C78.574 216.108 78.436 215.52 78.436 214.86C78.436 214.2 78.574 213.612 78.85 213.096C79.126 212.58 79.492 212.172 79.948 211.872C80.404 211.572 80.884 211.422 81.388 211.422C81.976 211.422 82.51 211.56 82.99 211.836C83.47 212.1 83.854 212.49 84.142 213.006C84.43 213.522 84.574 214.14 84.574 214.86ZM87.1356 214.86C87.1356 215.688 87.3216 216.432 87.6936 217.092C88.0656 217.74 88.5696 218.25 89.2056 218.622C89.8536 218.994 90.5796 219.18 91.3836 219.18C92.1876 219.18 92.9076 218.994 93.5436 218.622C94.1916 218.25 94.7016 217.74 95.0736 217.092C95.4456 216.432 95.6316 215.688 95.6316 214.86C95.6316 214.02 95.4456 213.276 95.0736 212.628C94.7016 211.98 94.1916 211.47 93.5436 211.098C92.9076 210.726 92.1876 210.54 91.3836 210.54C90.5796 210.54 89.8536 210.726 89.2056 211.098C88.5696 211.47 88.0656 211.98 87.6936 212.628C87.3216 213.276 87.1356 214.02 87.1356 214.86ZM88.0896 214.86C88.0896 214.188 88.2336 213.594 88.5216 213.078C88.8096 212.562 89.1996 212.16 89.6916 211.872C90.1956 211.572 90.7596 211.422 91.3836 211.422C92.0076 211.422 92.5656 211.572 93.0576 211.872C93.5616 212.16 93.9576 212.568 94.2456 213.096C94.5336 213.612 94.6776 214.2 94.6776 214.86C94.6776 215.532 94.5336 216.126 94.2456 216.642C93.9576 217.158 93.5616 217.566 93.0576 217.866C92.5656 218.154 92.0076 218.298 91.3836 218.298C90.7596 218.298 90.1956 218.154 89.6916 217.866C89.1996 217.566 88.8096 217.158 88.5216 216.642C88.2336 216.126 88.0896 215.532 88.0896 214.86ZM103.496 218.118V210.72H102.56V218.118H98.5458V210.72H97.6098V219H108.446V210.72H107.51V218.118H103.496ZM111.091 215.094H118.237C118.249 215.022 118.255 214.95 118.255 214.878C118.267 214.794 118.273 214.716 118.273 214.644C118.273 213.816 118.105 213.096 117.769 212.484C117.445 211.872 116.995 211.398 116.419 211.062C115.843 210.714 115.195 210.54 114.475 210.54C113.815 210.54 113.215 210.678 112.675 210.954C112.135 211.218 111.691 211.596 111.343 212.088C110.995 212.568 110.749 213.126 110.605 213.762C110.569 213.942 110.539 214.122 110.515 214.302C110.503 214.47 110.497 214.65 110.497 214.842C110.497 215.67 110.665 216.414 111.001 217.074C111.337 217.734 111.793 218.25 112.369 218.622C112.957 218.994 113.611 219.18 114.331 219.18C115.063 219.18 115.663 219.084 116.131 218.892C116.599 218.688 116.989 218.43 117.301 218.118C117.613 217.794 117.889 217.446 118.129 217.074L117.373 216.588C117.193 216.888 116.971 217.17 116.707 217.434C116.455 217.686 116.143 217.896 115.771 218.064C115.411 218.22 114.967 218.298 114.439 218.298C113.851 218.298 113.329 218.16 112.873 217.884C112.429 217.596 112.081 217.194 111.829 216.678C111.577 216.15 111.451 215.538 111.451 214.842L111.469 214.518C111.469 213.87 111.607 213.312 111.883 212.844C112.159 212.364 112.525 211.998 112.981 211.746C113.437 211.494 113.935 211.368 114.475 211.368C115.015 211.368 115.489 211.494 115.897 211.746C116.317 211.998 116.647 212.346 116.887 212.79C117.127 213.222 117.247 213.72 117.247 214.284H111.091V215.094ZM120.967 215.058H127.015V214.176H120.967V215.058ZM126.439 210.72V219H127.375V210.72H126.439ZM120.409 210.72V219H121.345V210.72H120.409ZM130.635 215.058H136.683V214.176H130.635V215.058ZM136.107 210.72V219H137.043V210.72H136.107ZM130.077 210.72V219H131.013V210.72H130.077ZM147.035 210.72V219H147.971V210.72H147.035ZM139.745 210.72V219H140.681V210.72H139.745ZM140.267 214.68H142.661C143.297 214.68 143.801 214.83 144.173 215.13C144.557 215.418 144.749 215.85 144.749 216.426C144.749 216.822 144.659 217.152 144.479 217.416C144.311 217.668 144.071 217.86 143.759 217.992C143.447 218.112 143.081 218.172 142.661 218.172H140.267V219H142.661C143.237 219 143.753 218.91 144.209 218.73C144.665 218.55 145.025 218.268 145.289 217.884C145.553 217.5 145.685 217.014 145.685 216.426C145.685 215.538 145.391 214.89 144.803 214.482C144.227 214.062 143.513 213.852 142.661 213.852H140.267V214.68ZM155.268 210.72L152.964 213.996L150.66 210.72H149.58L152.442 214.734L149.4 219H150.48L152.964 215.472L155.448 219H156.528L153.486 214.734L156.348 210.72H155.268ZM170.059 211.53L170.149 210.09L163.813 218.19L163.723 219.63L170.059 211.53ZM164.659 210.72H163.723V219.63L164.659 218.298V210.72ZM170.149 210.09L169.213 211.422V219H170.149V210.09ZM173.148 214.86C173.148 214.188 173.292 213.594 173.58 213.078C173.868 212.562 174.258 212.16 174.75 211.872C175.254 211.572 175.818 211.422 176.442 211.422C176.886 211.422 177.3 211.488 177.684 211.62C178.068 211.752 178.398 211.92 178.674 212.124C178.962 212.328 179.166 212.544 179.286 212.772V211.602C179.034 211.314 178.644 211.068 178.116 210.864C177.6 210.648 177.042 210.54 176.442 210.54C175.638 210.54 174.918 210.726 174.282 211.098C173.646 211.47 173.136 211.98 172.752 212.628C172.38 213.276 172.194 214.02 172.194 214.86C172.194 215.688 172.38 216.432 172.752 217.092C173.136 217.74 173.646 218.25 174.282 218.622C174.918 218.994 175.638 219.18 176.442 219.18C177.042 219.18 177.6 219.078 178.116 218.874C178.644 218.67 179.034 218.418 179.286 218.118V216.948C179.166 217.164 178.962 217.38 178.674 217.596C178.398 217.8 178.068 217.968 177.684 218.1C177.3 218.232 176.886 218.298 176.442 218.298C175.818 218.298 175.254 218.154 174.75 217.866C174.258 217.566 173.868 217.158 173.58 216.642C173.292 216.126 173.148 215.532 173.148 214.86ZM187.774 210.72H181.528V219H182.464V211.602H186.838V219H187.774V210.72ZM189.827 214.86C189.827 215.688 190.013 216.432 190.385 217.092C190.757 217.74 191.261 218.25 191.897 218.622C192.545 218.994 193.271 219.18 194.075 219.18C194.879 219.18 195.599 218.994 196.235 218.622C196.883 218.25 197.393 217.74 197.765 217.092C198.137 216.432 198.323 215.688 198.323 214.86C198.323 214.02 198.137 213.276 197.765 212.628C197.393 211.98 196.883 211.47 196.235 211.098C195.599 210.726 194.879 210.54 194.075 210.54C193.271 210.54 192.545 210.726 191.897 211.098C191.261 211.47 190.757 211.98 190.385 212.628C190.013 213.276 189.827 214.02 189.827 214.86ZM190.781 214.86C190.781 214.188 190.925 213.594 191.213 213.078C191.501 212.562 191.891 212.16 192.383 211.872C192.887 211.572 193.451 211.422 194.075 211.422C194.699 211.422 195.257 211.572 195.749 211.872C196.253 212.16 196.649 212.568 196.937 213.096C197.225 213.612 197.369 214.2 197.369 214.86C197.369 215.532 197.225 216.126 196.937 216.642C196.649 217.158 196.253 217.566 195.749 217.866C195.257 218.154 194.699 218.298 194.075 218.298C193.451 218.298 192.887 218.154 192.383 217.866C191.891 217.566 191.501 217.158 191.213 216.642C190.925 216.126 190.781 215.532 190.781 214.86ZM207.051 210.72H200.445V216.12C200.445 216.816 200.313 217.326 200.049 217.65C199.797 217.974 199.491 218.136 199.131 218.136V219C199.611 219 200.019 218.898 200.355 218.694C200.691 218.478 200.943 218.16 201.111 217.74C201.291 217.308 201.381 216.768 201.381 216.12V211.602H206.115V219H207.051V210.72ZM209.846 210.72V219H210.782V210.72H209.846ZM210.368 214.68H212.762C213.398 214.68 213.902 214.83 214.274 215.13C214.658 215.418 214.85 215.85 214.85 216.426C214.85 216.822 214.76 217.152 214.58 217.416C214.412 217.668 214.172 217.86 213.86 217.992C213.548 218.112 213.182 218.172 212.762 218.172H210.368V219H212.762C213.338 219 213.854 218.91 214.31 218.73C214.766 218.55 215.126 218.268 215.39 217.884C215.654 217.5 215.786 217.014 215.786 216.426C215.786 215.538 215.492 214.89 214.904 214.482C214.328 214.062 213.614 213.852 212.762 213.852H210.368V214.68ZM221.08 214.77C222.028 214.77 222.754 214.578 223.258 214.194C223.774 213.81 224.032 213.318 224.032 212.718C224.032 212.298 223.906 211.926 223.654 211.602C223.414 211.278 223.084 211.02 222.664 210.828C222.244 210.636 221.77 210.54 221.242 210.54C220.678 210.54 220.162 210.654 219.694 210.882C219.238 211.11 218.872 211.416 218.596 211.8C218.332 212.184 218.2 212.604 218.2 213.06H219.154C219.154 212.796 219.232 212.538 219.388 212.286C219.556 212.022 219.796 211.806 220.108 211.638C220.42 211.47 220.792 211.386 221.224 211.386C221.776 211.386 222.22 211.512 222.556 211.764C222.904 212.016 223.078 212.358 223.078 212.79C223.078 213.198 222.91 213.534 222.574 213.798C222.238 214.05 221.74 214.176 221.08 214.176V214.77ZM221.188 219.18C221.752 219.18 222.28 219.084 222.772 218.892C223.264 218.688 223.654 218.394 223.942 218.01C224.242 217.626 224.392 217.164 224.392 216.624C224.392 215.88 224.098 215.328 223.51 214.968C222.934 214.596 222.124 214.41 221.08 214.41V215.004C221.548 215.004 221.962 215.064 222.322 215.184C222.682 215.304 222.964 215.484 223.168 215.724C223.372 215.964 223.474 216.27 223.474 216.642C223.474 217.014 223.366 217.326 223.15 217.578C222.946 217.83 222.67 218.022 222.322 218.154C221.986 218.286 221.608 218.352 221.188 218.352C220.432 218.352 219.856 218.16 219.46 217.776C219.064 217.38 218.824 216.918 218.74 216.39H217.786C217.882 217.194 218.23 217.86 218.83 218.388C219.43 218.916 220.216 219.18 221.188 219.18ZM225.897 214.86C225.897 215.688 226.083 216.432 226.455 217.092C226.827 217.74 227.331 218.25 227.967 218.622C228.615 218.994 229.341 219.18 230.145 219.18C230.949 219.18 231.669 218.994 232.305 218.622C232.953 218.25 233.463 217.74 233.835 217.092C234.207 216.432 234.393 215.688 234.393 214.86C234.393 214.02 234.207 213.276 233.835 212.628C233.463 211.98 232.953 211.47 232.305 211.098C231.669 210.726 230.949 210.54 230.145 210.54C229.341 210.54 228.615 210.726 227.967 211.098C227.331 211.47 226.827 211.98 226.455 212.628C226.083 213.276 225.897 214.02 225.897 214.86ZM226.851 214.86C226.851 214.188 226.995 213.594 227.283 213.078C227.571 212.562 227.961 212.16 228.453 211.872C228.957 211.572 229.521 211.422 230.145 211.422C230.769 211.422 231.327 211.572 231.819 211.872C232.323 212.16 232.719 212.568 233.007 213.096C233.295 213.612 233.439 214.2 233.439 214.86C233.439 215.532 233.295 216.126 233.007 216.642C232.719 217.158 232.323 217.566 231.819 217.866C231.327 218.154 230.769 218.298 230.145 218.298C229.521 218.298 228.957 218.154 228.453 217.866C227.961 217.566 227.571 217.158 227.283 216.642C226.995 216.126 226.851 215.532 226.851 214.86ZM236.911 214.752V215.238H239.305C239.581 215.238 239.845 215.262 240.097 215.31C240.349 215.358 240.571 215.436 240.763 215.544C240.955 215.652 241.105 215.796 241.213 215.976C241.333 216.144 241.393 216.366 241.393 216.642C241.393 217.062 241.237 217.422 240.925 217.722C240.625 218.022 240.133 218.172 239.449 218.172H236.911V219H239.665C240.613 219 241.291 218.784 241.699 218.352C242.119 217.908 242.329 217.374 242.329 216.75C242.329 216.21 242.197 215.796 241.933 215.508C241.669 215.22 241.309 215.022 240.853 214.914C240.397 214.806 239.881 214.752 239.305 214.752H236.911ZM236.911 214.968H239.125C239.641 214.968 240.109 214.902 240.529 214.77C240.961 214.626 241.309 214.41 241.573 214.122C241.837 213.822 241.969 213.438 241.969 212.97C241.969 212.43 241.837 211.998 241.573 211.674C241.309 211.338 240.961 211.098 240.529 210.954C240.109 210.798 239.641 210.72 239.125 210.72H236.911V211.548H239.125C239.689 211.548 240.145 211.674 240.493 211.926C240.853 212.178 241.033 212.544 241.033 213.024C241.033 213.276 240.973 213.492 240.853 213.672C240.745 213.84 240.595 213.984 240.403 214.104C240.223 214.224 240.019 214.308 239.791 214.356C239.563 214.404 239.341 214.428 239.125 214.428H236.911V214.968ZM236.371 210.72V219H237.307V210.72H236.371ZM244.427 216.57C244.427 216.15 244.535 215.796 244.751 215.508C244.967 215.22 245.261 215.004 245.633 214.86C246.017 214.704 246.449 214.626 246.929 214.626C247.493 214.626 247.979 214.704 248.387 214.86C248.807 215.004 249.185 215.202 249.521 215.454V214.878C249.425 214.77 249.263 214.638 249.035 214.482C248.819 214.326 248.531 214.188 248.171 214.068C247.823 213.948 247.397 213.888 246.893 213.888C246.245 213.888 245.663 213.996 245.147 214.212C244.631 214.416 244.223 214.722 243.923 215.13C243.623 215.526 243.473 216.018 243.473 216.606C243.473 217.194 243.605 217.68 243.869 218.064C244.133 218.436 244.475 218.718 244.895 218.91C245.327 219.09 245.789 219.18 246.281 219.18C246.869 219.18 247.391 219.066 247.847 218.838C248.315 218.598 248.681 218.274 248.945 217.866C249.221 217.446 249.359 216.972 249.359 216.444L249.143 215.904C249.143 216.42 249.029 216.858 248.801 217.218C248.573 217.578 248.255 217.854 247.847 218.046C247.451 218.238 247.001 218.334 246.497 218.334C246.137 218.334 245.795 218.274 245.471 218.154C245.159 218.022 244.907 217.83 244.715 217.578C244.523 217.314 244.427 216.978 244.427 216.57ZM244.661 212.358C244.829 212.214 245.033 212.064 245.273 211.908C245.525 211.752 245.813 211.626 246.137 211.53C246.461 211.422 246.821 211.368 247.217 211.368C247.793 211.368 248.255 211.524 248.603 211.836C248.963 212.136 249.143 212.568 249.143 213.132V219H250.079V213.132C250.079 212.592 249.965 212.13 249.737 211.746C249.509 211.362 249.179 211.068 248.747 210.864C248.327 210.648 247.817 210.54 247.217 210.54C246.509 210.54 245.903 210.66 245.399 210.9C244.907 211.14 244.505 211.386 244.193 211.638L244.661 212.358ZM259.698 210.72H253.092V216.12C253.092 216.816 252.96 217.326 252.696 217.65C252.444 217.974 252.138 218.136 251.778 218.136V219C252.258 219 252.666 218.898 253.002 218.694C253.338 218.478 253.59 218.16 253.758 217.74C253.938 217.308 254.028 216.768 254.028 216.12V211.602H258.762V219H259.698V210.72ZM268.919 211.53L269.009 210.09L262.673 218.19L262.583 219.63L268.919 211.53ZM263.519 210.72H262.583V219.63L263.519 218.298V210.72ZM269.009 210.09L268.073 211.422V219H269.009V210.09ZM280.752 211.422C281.388 211.422 281.952 211.566 282.444 211.854C282.948 212.142 283.344 212.55 283.632 213.078C283.932 213.594 284.082 214.188 284.082 214.86C284.082 215.532 283.932 216.126 283.632 216.642C283.332 217.158 282.93 217.566 282.426 217.866C281.922 218.154 281.364 218.298 280.752 218.298C280.14 218.298 279.588 218.154 279.096 217.866C278.604 217.566 278.208 217.158 277.908 216.642C277.62 216.126 277.476 215.532 277.476 214.86L276.468 213.78C276.468 214.968 276.654 215.964 277.026 216.768C277.41 217.572 277.926 218.178 278.574 218.586C279.222 218.982 279.948 219.18 280.752 219.18C281.568 219.18 282.294 218.994 282.93 218.622C283.578 218.25 284.088 217.74 284.46 217.092C284.844 216.432 285.036 215.688 285.036 214.86C285.036 214.02 284.844 213.276 284.46 212.628C284.088 211.98 283.578 211.47 282.93 211.098C282.294 210.726 281.568 210.54 280.752 210.54V211.422ZM277.008 214.86H277.476C277.476 214.308 277.572 213.822 277.764 213.402C277.968 212.97 278.232 212.61 278.556 212.322C278.88 212.034 279.234 211.812 279.618 211.656C280.014 211.5 280.392 211.422 280.752 211.422V210.54C280.248 210.54 279.768 210.642 279.312 210.846C278.868 211.038 278.472 211.32 278.124 211.692C277.776 212.064 277.5 212.52 277.296 213.06C277.104 213.588 277.008 214.188 277.008 214.86ZM276.468 213.78L277.296 214.788V213.312C277.296 212.46 277.386 211.68 277.566 210.972C277.758 210.264 278.082 209.652 278.538 209.136C279.006 208.62 279.642 208.23 280.446 207.966C281.07 207.75 281.61 207.498 282.066 207.21C282.534 206.91 282.906 206.574 283.182 206.202C283.458 205.818 283.62 205.404 283.668 204.96H282.75C282.666 205.392 282.426 205.806 282.03 206.202C281.634 206.586 281.028 206.916 280.212 207.192C279.252 207.516 278.496 207.984 277.944 208.596C277.392 209.196 277.008 209.928 276.792 210.792C276.576 211.656 276.468 212.652 276.468 213.78ZM294.304 210.72V219H295.24V210.72H294.304ZM287.014 210.72V219H287.95V210.72H287.014ZM287.536 214.68H289.93C290.566 214.68 291.07 214.83 291.442 215.13C291.826 215.418 292.018 215.85 292.018 216.426C292.018 216.822 291.928 217.152 291.748 217.416C291.58 217.668 291.34 217.86 291.028 217.992C290.716 218.112 290.35 218.172 289.93 218.172H287.536V219H289.93C290.506 219 291.022 218.91 291.478 218.73C291.934 218.55 292.294 218.268 292.558 217.884C292.822 217.5 292.954 217.014 292.954 216.426C292.954 215.538 292.66 214.89 292.072 214.482C291.496 214.062 290.782 213.852 289.93 213.852H287.536V214.68ZM60.596 235.72H54.35V244H55.286V236.602H59.66V244H60.596V235.72ZM64.2153 247.96V235.72H63.2793V247.96H64.2153ZM71.2893 239.86C71.2893 238.96 71.1093 238.192 70.7493 237.556C70.4013 236.908 69.9213 236.41 69.3093 236.062C68.7093 235.714 68.0373 235.54 67.2933 235.54C66.5973 235.54 65.9853 235.732 65.4573 236.116C64.9293 236.488 64.5153 236.998 64.2153 237.646C63.9273 238.294 63.7833 239.032 63.7833 239.86C63.7833 240.676 63.9273 241.414 64.2153 242.074C64.5153 242.722 64.9293 243.238 65.4573 243.622C65.9853 243.994 66.5973 244.18 67.2933 244.18C68.0373 244.18 68.7093 244.006 69.3093 243.658C69.9213 243.31 70.4013 242.812 70.7493 242.164C71.1093 241.516 71.2893 240.748 71.2893 239.86ZM70.3533 239.86C70.3533 240.58 70.2093 241.198 69.9213 241.714C69.6333 242.23 69.2493 242.626 68.7693 242.902C68.2893 243.166 67.7553 243.298 67.1673 243.298C66.6633 243.298 66.1833 243.148 65.7273 242.848C65.2713 242.548 64.9053 242.14 64.6293 241.624C64.3533 241.108 64.2153 240.52 64.2153 239.86C64.2153 239.2 64.3533 238.612 64.6293 238.096C64.9053 237.58 65.2713 237.172 65.7273 236.872C66.1833 236.572 66.6633 236.422 67.1673 236.422C67.7553 236.422 68.2893 236.56 68.7693 236.836C69.2493 237.1 69.6333 237.49 69.9213 238.006C70.2093 238.522 70.3533 239.14 70.3533 239.86ZM79.9889 236.53L80.0789 235.09L73.7429 243.19L73.6529 244.63L79.9889 236.53ZM74.5889 235.72H73.6529V244.63L74.5889 243.298V235.72ZM80.0789 235.09L79.1429 236.422V244H80.0789V235.09ZM89.6117 235.72H83.0057V241.12C83.0057 241.816 82.8737 242.326 82.6097 242.65C82.3577 242.974 82.0517 243.136 81.6917 243.136V244C82.1717 244 82.5797 243.898 82.9157 243.694C83.2517 243.478 83.5037 243.16 83.6717 242.74C83.8517 242.308 83.9417 241.768 83.9417 241.12V236.602H88.6757V244H89.6117V235.72ZM91.7586 239.86C91.7586 240.688 91.9446 241.432 92.3166 242.092C92.6886 242.74 93.1926 243.25 93.8286 243.622C94.4766 243.994 95.2026 244.18 96.0066 244.18C96.8106 244.18 97.5306 243.994 98.1666 243.622C98.8146 243.25 99.3246 242.74 99.6966 242.092C100.069 241.432 100.255 240.688 100.255 239.86C100.255 239.02 100.069 238.276 99.6966 237.628C99.3246 236.98 98.8146 236.47 98.1666 236.098C97.5306 235.726 96.8106 235.54 96.0066 235.54C95.2026 235.54 94.4766 235.726 93.8286 236.098C93.1926 236.47 92.6886 236.98 92.3166 237.628C91.9446 238.276 91.7586 239.02 91.7586 239.86ZM92.7126 239.86C92.7126 239.188 92.8566 238.594 93.1446 238.078C93.4326 237.562 93.8226 237.16 94.3146 236.872C94.8186 236.572 95.3826 236.422 96.0066 236.422C96.6306 236.422 97.1886 236.572 97.6806 236.872C98.1846 237.16 98.5806 237.568 98.8686 238.096C99.1566 238.612 99.3006 239.2 99.3006 239.86C99.3006 240.532 99.1566 241.126 98.8686 241.642C98.5806 242.158 98.1846 242.566 97.6806 242.866C97.1886 243.154 96.6306 243.298 96.0066 243.298C95.3826 243.298 94.8186 243.154 94.3146 242.866C93.8226 242.566 93.4326 242.158 93.1446 241.642C92.8566 241.126 92.7126 240.532 92.7126 239.86ZM109.565 235.72L106.109 239.14L109.925 244H111.113L107.171 239.248L110.753 235.72H109.565ZM106.343 235.72H105.461V244H106.343V235.72ZM102.221 235.72H101.051L104.615 239.248L100.691 244H101.861L105.695 239.14L102.221 235.72ZM112.216 240.094H119.362C119.374 240.022 119.38 239.95 119.38 239.878C119.392 239.794 119.398 239.716 119.398 239.644C119.398 238.816 119.23 238.096 118.894 237.484C118.57 236.872 118.12 236.398 117.544 236.062C116.968 235.714 116.32 235.54 115.6 235.54C114.94 235.54 114.34 235.678 113.8 235.954C113.26 236.218 112.816 236.596 112.468 237.088C112.12 237.568 111.874 238.126 111.73 238.762C111.694 238.942 111.664 239.122 111.64 239.302C111.628 239.47 111.622 239.65 111.622 239.842C111.622 240.67 111.79 241.414 112.126 242.074C112.462 242.734 112.918 243.25 113.494 243.622C114.082 243.994 114.736 244.18 115.456 244.18C116.188 244.18 116.788 244.084 117.256 243.892C117.724 243.688 118.114 243.43 118.426 243.118C118.738 242.794 119.014 242.446 119.254 242.074L118.498 241.588C118.318 241.888 118.096 242.17 117.832 242.434C117.58 242.686 117.268 242.896 116.896 243.064C116.536 243.22 116.092 243.298 115.564 243.298C114.976 243.298 114.454 243.16 113.998 242.884C113.554 242.596 113.206 242.194 112.954 241.678C112.702 241.15 112.576 240.538 112.576 239.842L112.594 239.518C112.594 238.87 112.732 238.312 113.008 237.844C113.284 237.364 113.65 236.998 114.106 236.746C114.562 236.494 115.06 236.368 115.6 236.368C116.14 236.368 116.614 236.494 117.022 236.746C117.442 236.998 117.772 237.346 118.012 237.79C118.252 238.222 118.372 238.72 118.372 239.284H112.216V240.094ZM122.092 240.058H128.14V239.176H122.092V240.058ZM127.564 235.72V244H128.5V235.72H127.564ZM121.534 235.72V244H122.47V235.72H121.534ZM137.628 236.53L137.718 235.09L131.382 243.19L131.292 244.63L137.628 236.53ZM132.228 235.72H131.292V244.63L132.228 243.298V235.72ZM137.718 235.09L136.782 236.422V244H137.718V235.09ZM140.446 240.094H147.592C147.604 240.022 147.61 239.95 147.61 239.878C147.622 239.794 147.628 239.716 147.628 239.644C147.628 238.816 147.46 238.096 147.124 237.484C146.8 236.872 146.35 236.398 145.774 236.062C145.198 235.714 144.55 235.54 143.83 235.54C143.17 235.54 142.57 235.678 142.03 235.954C141.49 236.218 141.046 236.596 140.698 237.088C140.35 237.568 140.104 238.126 139.96 238.762C139.924 238.942 139.894 239.122 139.87 239.302C139.858 239.47 139.852 239.65 139.852 239.842C139.852 240.67 140.02 241.414 140.356 242.074C140.692 242.734 141.148 243.25 141.724 243.622C142.312 243.994 142.966 244.18 143.686 244.18C144.418 244.18 145.018 244.084 145.486 243.892C145.954 243.688 146.344 243.43 146.656 243.118C146.968 242.794 147.244 242.446 147.484 242.074L146.728 241.588C146.548 241.888 146.326 242.17 146.062 242.434C145.81 242.686 145.498 242.896 145.126 243.064C144.766 243.22 144.322 243.298 143.794 243.298C143.206 243.298 142.684 243.16 142.228 242.884C141.784 242.596 141.436 242.194 141.184 241.678C140.932 241.15 140.806 240.538 140.806 239.842L140.824 239.518C140.824 238.87 140.962 238.312 141.238 237.844C141.514 237.364 141.88 236.998 142.336 236.746C142.792 236.494 143.29 236.368 143.83 236.368C144.37 236.368 144.844 236.494 145.252 236.746C145.672 236.998 146.002 237.346 146.242 237.79C146.482 238.222 146.602 238.72 146.602 239.284H140.446V240.094ZM150.38 242.128L148.67 246.754L149.336 246.988L151.316 242.488L150.38 242.128ZM165.819 235.72H159.573V244H160.509V236.602H164.883V244H165.819V235.72ZM167.872 239.86C167.872 240.688 168.058 241.432 168.43 242.092C168.802 242.74 169.306 243.25 169.942 243.622C170.59 243.994 171.316 244.18 172.12 244.18C172.924 244.18 173.644 243.994 174.28 243.622C174.928 243.25 175.438 242.74 175.81 242.092C176.182 241.432 176.368 240.688 176.368 239.86C176.368 239.02 176.182 238.276 175.81 237.628C175.438 236.98 174.928 236.47 174.28 236.098C173.644 235.726 172.924 235.54 172.12 235.54C171.316 235.54 170.59 235.726 169.942 236.098C169.306 236.47 168.802 236.98 168.43 237.628C168.058 238.276 167.872 239.02 167.872 239.86ZM168.826 239.86C168.826 239.188 168.97 238.594 169.258 238.078C169.546 237.562 169.936 237.16 170.428 236.872C170.932 236.572 171.496 236.422 172.12 236.422C172.744 236.422 173.302 236.572 173.794 236.872C174.298 237.16 174.694 237.568 174.982 238.096C175.27 238.612 175.414 239.2 175.414 239.86C175.414 240.532 175.27 241.126 174.982 241.642C174.694 242.158 174.298 242.566 173.794 242.866C173.302 243.154 172.744 243.298 172.12 243.298C171.496 243.298 170.932 243.154 170.428 242.866C169.936 242.566 169.546 242.158 169.258 241.642C168.97 241.126 168.826 240.532 168.826 239.86ZM178.328 235.72V244H179.264V235.72H178.328ZM182.81 235.72L178.922 239.14L183.17 244H184.358L180.11 239.14L184.016 235.72H182.81ZM186.49 241.57C186.49 241.15 186.598 240.796 186.814 240.508C187.03 240.22 187.324 240.004 187.696 239.86C188.08 239.704 188.512 239.626 188.992 239.626C189.556 239.626 190.042 239.704 190.45 239.86C190.87 240.004 191.248 240.202 191.584 240.454V239.878C191.488 239.77 191.326 239.638 191.098 239.482C190.882 239.326 190.594 239.188 190.234 239.068C189.886 238.948 189.46 238.888 188.956 238.888C188.308 238.888 187.726 238.996 187.21 239.212C186.694 239.416 186.286 239.722 185.986 240.13C185.686 240.526 185.536 241.018 185.536 241.606C185.536 242.194 185.668 242.68 185.932 243.064C186.196 243.436 186.538 243.718 186.958 243.91C187.39 244.09 187.852 244.18 188.344 244.18C188.932 244.18 189.454 244.066 189.91 243.838C190.378 243.598 190.744 243.274 191.008 242.866C191.284 242.446 191.422 241.972 191.422 241.444L191.206 240.904C191.206 241.42 191.092 241.858 190.864 242.218C190.636 242.578 190.318 242.854 189.91 243.046C189.514 243.238 189.064 243.334 188.56 243.334C188.2 243.334 187.858 243.274 187.534 243.154C187.222 243.022 186.97 242.83 186.778 242.578C186.586 242.314 186.49 241.978 186.49 241.57ZM186.724 237.358C186.892 237.214 187.096 237.064 187.336 236.908C187.588 236.752 187.876 236.626 188.2 236.53C188.524 236.422 188.884 236.368 189.28 236.368C189.856 236.368 190.318 236.524 190.666 236.836C191.026 237.136 191.206 237.568 191.206 238.132V244H192.142V238.132C192.142 237.592 192.028 237.13 191.8 236.746C191.572 236.362 191.242 236.068 190.81 235.864C190.39 235.648 189.88 235.54 189.28 235.54C188.572 235.54 187.966 235.66 187.462 235.9C186.97 236.14 186.568 236.386 186.256 236.638L186.724 237.358ZM198.052 239.77C199 239.77 199.726 239.578 200.23 239.194C200.746 238.81 201.004 238.318 201.004 237.718C201.004 237.298 200.878 236.926 200.626 236.602C200.386 236.278 200.056 236.02 199.636 235.828C199.216 235.636 198.742 235.54 198.214 235.54C197.65 235.54 197.134 235.654 196.666 235.882C196.21 236.11 195.844 236.416 195.568 236.8C195.304 237.184 195.172 237.604 195.172 238.06H196.126C196.126 237.796 196.204 237.538 196.36 237.286C196.528 237.022 196.768 236.806 197.08 236.638C197.392 236.47 197.764 236.386 198.196 236.386C198.748 236.386 199.192 236.512 199.528 236.764C199.876 237.016 200.05 237.358 200.05 237.79C200.05 238.198 199.882 238.534 199.546 238.798C199.21 239.05 198.712 239.176 198.052 239.176V239.77ZM198.16 244.18C198.724 244.18 199.252 244.084 199.744 243.892C200.236 243.688 200.626 243.394 200.914 243.01C201.214 242.626 201.364 242.164 201.364 241.624C201.364 240.88 201.07 240.328 200.482 239.968C199.906 239.596 199.096 239.41 198.052 239.41V240.004C198.52 240.004 198.934 240.064 199.294 240.184C199.654 240.304 199.936 240.484 200.14 240.724C200.344 240.964 200.446 241.27 200.446 241.642C200.446 242.014 200.338 242.326 200.122 242.578C199.918 242.83 199.642 243.022 199.294 243.154C198.958 243.286 198.58 243.352 198.16 243.352C197.404 243.352 196.828 243.16 196.432 242.776C196.036 242.38 195.796 241.918 195.712 241.39H194.758C194.854 242.194 195.202 242.86 195.802 243.388C196.402 243.916 197.188 244.18 198.16 244.18ZM210.808 235.72V244H211.744V235.72H210.808ZM203.518 235.72V244H204.454V235.72H203.518ZM204.04 239.68H206.434C207.07 239.68 207.574 239.83 207.946 240.13C208.33 240.418 208.522 240.85 208.522 241.426C208.522 241.822 208.432 242.152 208.252 242.416C208.084 242.668 207.844 242.86 207.532 242.992C207.22 243.112 206.854 243.172 206.434 243.172H204.04V244H206.434C207.01 244 207.526 243.91 207.982 243.73C208.438 243.55 208.798 243.268 209.062 242.884C209.326 242.5 209.458 242.014 209.458 241.426C209.458 240.538 209.164 239.89 208.576 239.482C208 239.062 207.286 238.852 206.434 238.852H204.04V239.68ZM214.992 239.752V240.238H217.386C217.662 240.238 217.926 240.262 218.178 240.31C218.43 240.358 218.652 240.436 218.844 240.544C219.036 240.652 219.186 240.796 219.294 240.976C219.414 241.144 219.474 241.366 219.474 241.642C219.474 242.062 219.318 242.422 219.006 242.722C218.706 243.022 218.214 243.172 217.53 243.172H214.992V244H217.746C218.694 244 219.372 243.784 219.78 243.352C220.2 242.908 220.41 242.374 220.41 241.75C220.41 241.21 220.278 240.796 220.014 240.508C219.75 240.22 219.39 240.022 218.934 239.914C218.478 239.806 217.962 239.752 217.386 239.752H214.992ZM214.992 239.968H217.206C217.722 239.968 218.19 239.902 218.61 239.77C219.042 239.626 219.39 239.41 219.654 239.122C219.918 238.822 220.05 238.438 220.05 237.97C220.05 237.43 219.918 236.998 219.654 236.674C219.39 236.338 219.042 236.098 218.61 235.954C218.19 235.798 217.722 235.72 217.206 235.72H214.992V236.548H217.206C217.77 236.548 218.226 236.674 218.574 236.926C218.934 237.178 219.114 237.544 219.114 238.024C219.114 238.276 219.054 238.492 218.934 238.672C218.826 238.84 218.676 238.984 218.484 239.104C218.304 239.224 218.1 239.308 217.872 239.356C217.644 239.404 217.422 239.428 217.206 239.428H214.992V239.968ZM214.452 235.72V244H215.388V235.72H214.452ZM222.507 241.57C222.507 241.15 222.615 240.796 222.831 240.508C223.047 240.22 223.341 240.004 223.713 239.86C224.097 239.704 224.529 239.626 225.009 239.626C225.573 239.626 226.059 239.704 226.467 239.86C226.887 240.004 227.265 240.202 227.601 240.454V239.878C227.505 239.77 227.343 239.638 227.115 239.482C226.899 239.326 226.611 239.188 226.251 239.068C225.903 238.948 225.477 238.888 224.973 238.888C224.325 238.888 223.743 238.996 223.227 239.212C222.711 239.416 222.303 239.722 222.003 240.13C221.703 240.526 221.553 241.018 221.553 241.606C221.553 242.194 221.685 242.68 221.949 243.064C222.213 243.436 222.555 243.718 222.975 243.91C223.407 244.09 223.869 244.18 224.361 244.18C224.949 244.18 225.471 244.066 225.927 243.838C226.395 243.598 226.761 243.274 227.025 242.866C227.301 242.446 227.439 241.972 227.439 241.444L227.223 240.904C227.223 241.42 227.109 241.858 226.881 242.218C226.653 242.578 226.335 242.854 225.927 243.046C225.531 243.238 225.081 243.334 224.577 243.334C224.217 243.334 223.875 243.274 223.551 243.154C223.239 243.022 222.987 242.83 222.795 242.578C222.603 242.314 222.507 241.978 222.507 241.57ZM222.741 237.358C222.909 237.214 223.113 237.064 223.353 236.908C223.605 236.752 223.893 236.626 224.217 236.53C224.541 236.422 224.901 236.368 225.297 236.368C225.873 236.368 226.335 236.524 226.683 236.836C227.043 237.136 227.223 237.568 227.223 238.132V244H228.159V238.132C228.159 237.592 228.045 237.13 227.817 236.746C227.589 236.362 227.259 236.068 226.827 235.864C226.407 235.648 225.897 235.54 225.297 235.54C224.589 235.54 223.983 235.66 223.479 235.9C222.987 236.14 222.585 236.386 222.273 236.638L222.741 237.358ZM231.586 240.094H234.646V239.212H231.586V240.094ZM231.028 235.72V244H231.964V235.72H231.028ZM233.98 239.86C233.98 240.688 234.166 241.432 234.538 242.092C234.91 242.74 235.42 243.25 236.068 243.622C236.716 243.994 237.436 244.18 238.228 244.18C239.032 244.18 239.752 243.994 240.388 243.622C241.024 243.25 241.528 242.74 241.9 242.092C242.284 241.432 242.476 240.688 242.476 239.86C242.476 239.02 242.284 238.276 241.9 237.628C241.528 236.98 241.024 236.47 240.388 236.098C239.752 235.726 239.032 235.54 238.228 235.54C237.424 235.54 236.698 235.726 236.05 236.098C235.414 236.47 234.91 236.98 234.538 237.628C234.166 238.276 233.98 239.02 233.98 239.86ZM234.934 239.86C234.934 239.188 235.078 238.594 235.366 238.078C235.654 237.562 236.044 237.16 236.536 236.872C237.04 236.572 237.604 236.422 238.228 236.422C238.852 236.422 239.41 236.572 239.902 236.872C240.406 237.16 240.802 237.568 241.09 238.096C241.378 238.612 241.522 239.2 241.522 239.86C241.522 240.532 241.378 241.126 241.09 241.642C240.802 242.158 240.406 242.566 239.902 242.866C239.41 243.154 238.852 243.298 238.228 243.298C237.604 243.298 237.04 243.154 236.536 242.866C236.044 242.566 235.654 242.158 235.366 241.642C235.078 241.126 234.934 240.532 234.934 239.86ZM250.414 243.118V235.72H249.478V243.118H245.464V235.72H244.528V244H255.976V245.62H256.804V243.118H255.364V235.72H254.428V243.118H250.414ZM258.73 240.094H265.876C265.888 240.022 265.894 239.95 265.894 239.878C265.906 239.794 265.912 239.716 265.912 239.644C265.912 238.816 265.744 238.096 265.408 237.484C265.084 236.872 264.634 236.398 264.058 236.062C263.482 235.714 262.834 235.54 262.114 235.54C261.454 235.54 260.854 235.678 260.314 235.954C259.774 236.218 259.33 236.596 258.982 237.088C258.634 237.568 258.388 238.126 258.244 238.762C258.208 238.942 258.178 239.122 258.154 239.302C258.142 239.47 258.136 239.65 258.136 239.842C258.136 240.67 258.304 241.414 258.64 242.074C258.976 242.734 259.432 243.25 260.008 243.622C260.596 243.994 261.25 244.18 261.97 244.18C262.702 244.18 263.302 244.084 263.77 243.892C264.238 243.688 264.628 243.43 264.94 243.118C265.252 242.794 265.528 242.446 265.768 242.074L265.012 241.588C264.832 241.888 264.61 242.17 264.346 242.434C264.094 242.686 263.782 242.896 263.41 243.064C263.05 243.22 262.606 243.298 262.078 243.298C261.49 243.298 260.968 243.16 260.512 242.884C260.068 242.596 259.72 242.194 259.468 241.678C259.216 241.15 259.09 240.538 259.09 239.842L259.108 239.518C259.108 238.87 259.246 238.312 259.522 237.844C259.798 237.364 260.164 236.998 260.62 236.746C261.076 236.494 261.574 236.368 262.114 236.368C262.654 236.368 263.128 236.494 263.536 236.746C263.956 236.998 264.286 237.346 264.526 237.79C264.766 238.222 264.886 238.72 264.886 239.284H258.73V240.094ZM267.993 240.094H275.139C275.151 240.022 275.157 239.95 275.157 239.878C275.169 239.794 275.175 239.716 275.175 239.644C275.175 238.816 275.007 238.096 274.671 237.484C274.347 236.872 273.897 236.398 273.321 236.062C272.745 235.714 272.097 235.54 271.377 235.54C270.717 235.54 270.117 235.678 269.577 235.954C269.037 236.218 268.593 236.596 268.245 237.088C267.897 237.568 267.651 238.126 267.507 238.762C267.471 238.942 267.441 239.122 267.417 239.302C267.405 239.47 267.399 239.65 267.399 239.842C267.399 240.67 267.567 241.414 267.903 242.074C268.239 242.734 268.695 243.25 269.271 243.622C269.859 243.994 270.513 244.18 271.233 244.18C271.965 244.18 272.565 244.084 273.033 243.892C273.501 243.688 273.891 243.43 274.203 243.118C274.515 242.794 274.791 242.446 275.031 242.074L274.275 241.588C274.095 241.888 273.873 242.17 273.609 242.434C273.357 242.686 273.045 242.896 272.673 243.064C272.313 243.22 271.869 243.298 271.341 243.298C270.753 243.298 270.231 243.16 269.775 242.884C269.331 242.596 268.983 242.194 268.731 241.678C268.479 241.15 268.353 240.538 268.353 239.842L268.371 239.518C268.371 238.87 268.509 238.312 268.785 237.844C269.061 237.364 269.427 236.998 269.883 236.746C270.339 236.494 270.837 236.368 271.377 236.368C271.917 236.368 272.391 236.494 272.799 236.746C273.219 236.998 273.549 237.346 273.789 237.79C274.029 238.222 274.149 238.72 274.149 239.284H267.993V240.094ZM54.566 264.86C54.566 264.188 54.71 263.594 54.998 263.078C55.286 262.562 55.676 262.16 56.168 261.872C56.672 261.572 57.236 261.422 57.86 261.422C58.304 261.422 58.718 261.488 59.102 261.62C59.486 261.752 59.816 261.92 60.092 262.124C60.38 262.328 60.584 262.544 60.704 262.772V261.602C60.452 261.314 60.062 261.068 59.534 260.864C59.018 260.648 58.46 260.54 57.86 260.54C57.056 260.54 56.336 260.726 55.7 261.098C55.064 261.47 54.554 261.98 54.17 262.628C53.798 263.276 53.612 264.02 53.612 264.86C53.612 265.688 53.798 266.432 54.17 267.092C54.554 267.74 55.064 268.25 55.7 268.622C56.336 268.994 57.056 269.18 57.86 269.18C58.46 269.18 59.018 269.078 59.534 268.874C60.062 268.67 60.452 268.418 60.704 268.118V266.948C60.584 267.164 60.38 267.38 60.092 267.596C59.816 267.8 59.486 267.968 59.102 268.1C58.718 268.232 58.304 268.298 57.86 268.298C57.236 268.298 56.672 268.154 56.168 267.866C55.676 267.566 55.286 267.158 54.998 266.642C54.71 266.126 54.566 265.532 54.566 264.86ZM63.4857 264.752V265.238H65.8797C66.1557 265.238 66.4197 265.262 66.6717 265.31C66.9237 265.358 67.1457 265.436 67.3377 265.544C67.5297 265.652 67.6797 265.796 67.7877 265.976C67.9077 266.144 67.9677 266.366 67.9677 266.642C67.9677 267.062 67.8117 267.422 67.4997 267.722C67.1997 268.022 66.7077 268.172 66.0237 268.172H63.4857V269H66.2397C67.1877 269 67.8657 268.784 68.2737 268.352C68.6937 267.908 68.9037 267.374 68.9037 266.75C68.9037 266.21 68.7717 265.796 68.5077 265.508C68.2437 265.22 67.8837 265.022 67.4277 264.914C66.9717 264.806 66.4557 264.752 65.8797 264.752H63.4857ZM63.4857 264.968H65.6997C66.2157 264.968 66.6837 264.902 67.1037 264.77C67.5357 264.626 67.8837 264.41 68.1477 264.122C68.4117 263.822 68.5437 263.438 68.5437 262.97C68.5437 262.43 68.4117 261.998 68.1477 261.674C67.8837 261.338 67.5357 261.098 67.1037 260.954C66.6837 260.798 66.2157 260.72 65.6997 260.72H63.4857V261.548H65.6997C66.2637 261.548 66.7197 261.674 67.0677 261.926C67.4277 262.178 67.6077 262.544 67.6077 263.024C67.6077 263.276 67.5477 263.492 67.4277 263.672C67.3197 263.84 67.1697 263.984 66.9777 264.104C66.7977 264.224 66.5937 264.308 66.3657 264.356C66.1377 264.404 65.9157 264.428 65.6997 264.428H63.4857V264.968ZM62.9457 260.72V269H63.8817V260.72H62.9457ZM70.1375 264.86C70.1375 265.688 70.3235 266.432 70.6955 267.092C71.0675 267.74 71.5715 268.25 72.2075 268.622C72.8555 268.994 73.5815 269.18 74.3855 269.18C75.1895 269.18 75.9095 268.994 76.5455 268.622C77.1935 268.25 77.7035 267.74 78.0755 267.092C78.4475 266.432 78.6335 265.688 78.6335 264.86C78.6335 264.02 78.4475 263.276 78.0755 262.628C77.7035 261.98 77.1935 261.47 76.5455 261.098C75.9095 260.726 75.1895 260.54 74.3855 260.54C73.5815 260.54 72.8555 260.726 72.2075 261.098C71.5715 261.47 71.0675 261.98 70.6955 262.628C70.3235 263.276 70.1375 264.02 70.1375 264.86ZM71.0915 264.86C71.0915 264.188 71.2355 263.594 71.5235 263.078C71.8115 262.562 72.2015 262.16 72.6935 261.872C73.1975 261.572 73.7615 261.422 74.3855 261.422C75.0095 261.422 75.5675 261.572 76.0595 261.872C76.5635 262.16 76.9595 262.568 77.2475 263.096C77.5355 263.612 77.6795 264.2 77.6795 264.86C77.6795 265.532 77.5355 266.126 77.2475 266.642C76.9595 267.158 76.5635 267.566 76.0595 267.866C75.5675 268.154 75.0095 268.298 74.3855 268.298C73.7615 268.298 73.1975 268.154 72.6935 267.866C72.2015 267.566 71.8115 267.158 71.5235 266.642C71.2355 266.126 71.0915 265.532 71.0915 264.86ZM84.1757 261.422C84.8117 261.422 85.3757 261.566 85.8677 261.854C86.3717 262.142 86.7677 262.55 87.0557 263.078C87.3557 263.594 87.5057 264.188 87.5057 264.86C87.5057 265.532 87.3557 266.126 87.0557 266.642C86.7557 267.158 86.3537 267.566 85.8497 267.866C85.3457 268.154 84.7877 268.298 84.1757 268.298C83.5637 268.298 83.0117 268.154 82.5197 267.866C82.0277 267.566 81.6317 267.158 81.3317 266.642C81.0437 266.126 80.8997 265.532 80.8997 264.86L79.8917 263.78C79.8917 264.968 80.0777 265.964 80.4497 266.768C80.8337 267.572 81.3497 268.178 81.9977 268.586C82.6457 268.982 83.3717 269.18 84.1757 269.18C84.9917 269.18 85.7177 268.994 86.3537 268.622C87.0017 268.25 87.5117 267.74 87.8837 267.092C88.2677 266.432 88.4597 265.688 88.4597 264.86C88.4597 264.02 88.2677 263.276 87.8837 262.628C87.5117 261.98 87.0017 261.47 86.3537 261.098C85.7177 260.726 84.9917 260.54 84.1757 260.54V261.422ZM80.4317 264.86H80.8997C80.8997 264.308 80.9957 263.822 81.1877 263.402C81.3917 262.97 81.6557 262.61 81.9797 262.322C82.3037 262.034 82.6577 261.812 83.0417 261.656C83.4377 261.5 83.8157 261.422 84.1757 261.422V260.54C83.6717 260.54 83.1917 260.642 82.7357 260.846C82.2917 261.038 81.8957 261.32 81.5477 261.692C81.1997 262.064 80.9237 262.52 80.7197 263.06C80.5277 263.588 80.4317 264.188 80.4317 264.86ZM79.8917 263.78L80.7197 264.788V263.312C80.7197 262.46 80.8097 261.68 80.9897 260.972C81.1817 260.264 81.5057 259.652 81.9617 259.136C82.4297 258.62 83.0657 258.23 83.8697 257.966C84.4937 257.75 85.0337 257.498 85.4897 257.21C85.9577 256.91 86.3297 256.574 86.6057 256.202C86.8817 255.818 87.0437 255.404 87.0917 254.96H86.1737C86.0897 255.392 85.8497 255.806 85.4537 256.202C85.0577 256.586 84.4517 256.916 83.6357 257.192C82.6757 257.516 81.9197 257.984 81.3677 258.596C80.8157 259.196 80.4317 259.928 80.2157 260.792C79.9997 261.656 79.8917 262.652 79.8917 263.78ZM89.7899 264.86C89.7899 265.688 89.9759 266.432 90.3479 267.092C90.7199 267.74 91.2239 268.25 91.8599 268.622C92.5079 268.994 93.2339 269.18 94.0379 269.18C94.8419 269.18 95.5619 268.994 96.1979 268.622C96.8459 268.25 97.3559 267.74 97.7279 267.092C98.0999 266.432 98.2859 265.688 98.2859 264.86C98.2859 264.02 98.0999 263.276 97.7279 262.628C97.3559 261.98 96.8459 261.47 96.1979 261.098C95.5619 260.726 94.8419 260.54 94.0379 260.54C93.2339 260.54 92.5079 260.726 91.8599 261.098C91.2239 261.47 90.7199 261.98 90.3479 262.628C89.9759 263.276 89.7899 264.02 89.7899 264.86ZM90.7439 264.86C90.7439 264.188 90.8879 263.594 91.1759 263.078C91.4639 262.562 91.8539 262.16 92.3459 261.872C92.8499 261.572 93.4139 261.422 94.0379 261.422C94.6619 261.422 95.2199 261.572 95.7119 261.872C96.2159 262.16 96.6119 262.568 96.8999 263.096C97.1879 263.612 97.3319 264.2 97.3319 264.86C97.3319 265.532 97.1879 266.126 96.8999 266.642C96.6119 267.158 96.2159 267.566 95.7119 267.866C95.2199 268.154 94.6619 268.298 94.0379 268.298C93.4139 268.298 92.8499 268.154 92.3459 267.866C91.8539 267.566 91.4639 267.158 91.1759 266.642C90.8879 266.126 90.7439 265.532 90.7439 264.86ZM103.868 262.142L106.874 268.604H107.918L103.868 260.09L99.8176 268.604H100.862L103.868 262.142ZM108.062 269V270.62H108.998V268.118H98.7376V270.62H99.7276V269H108.062ZM111.721 265.058H117.769V264.176H111.721V265.058ZM117.193 260.72V269H118.129V260.72H117.193ZM111.163 260.72V269H112.099V260.72H111.163ZM128.12 260.72V269H129.056V260.72H128.12ZM120.83 260.72V269H121.766V260.72H120.83ZM121.352 264.68H123.746C124.382 264.68 124.886 264.83 125.258 265.13C125.642 265.418 125.834 265.85 125.834 266.426C125.834 266.822 125.744 267.152 125.564 267.416C125.396 267.668 125.156 267.86 124.844 267.992C124.532 268.112 124.166 268.172 123.746 268.172H121.352V269H123.746C124.322 269 124.838 268.91 125.294 268.73C125.75 268.55 126.11 268.268 126.374 267.884C126.638 267.5 126.77 267.014 126.77 266.426C126.77 265.538 126.476 264.89 125.888 264.482C125.312 264.062 124.598 263.852 123.746 263.852H121.352V264.68ZM131.71 265.094H138.856C138.868 265.022 138.874 264.95 138.874 264.878C138.886 264.794 138.892 264.716 138.892 264.644C138.892 263.816 138.724 263.096 138.388 262.484C138.064 261.872 137.614 261.398 137.038 261.062C136.462 260.714 135.814 260.54 135.094 260.54C134.434 260.54 133.834 260.678 133.294 260.954C132.754 261.218 132.31 261.596 131.962 262.088C131.614 262.568 131.368 263.126 131.224 263.762C131.188 263.942 131.158 264.122 131.134 264.302C131.122 264.47 131.116 264.65 131.116 264.842C131.116 265.67 131.284 266.414 131.62 267.074C131.956 267.734 132.412 268.25 132.988 268.622C133.576 268.994 134.23 269.18 134.95 269.18C135.682 269.18 136.282 269.084 136.75 268.892C137.218 268.688 137.608 268.43 137.92 268.118C138.232 267.794 138.508 267.446 138.748 267.074L137.992 266.588C137.812 266.888 137.59 267.17 137.326 267.434C137.074 267.686 136.762 267.896 136.39 268.064C136.03 268.22 135.586 268.298 135.058 268.298C134.47 268.298 133.948 268.16 133.492 267.884C133.048 267.596 132.7 267.194 132.448 266.678C132.196 266.15 132.07 265.538 132.07 264.842L132.088 264.518C132.088 263.87 132.226 263.312 132.502 262.844C132.778 262.364 133.144 261.998 133.6 261.746C134.056 261.494 134.554 261.368 135.094 261.368C135.634 261.368 136.108 261.494 136.516 261.746C136.936 261.998 137.266 262.346 137.506 262.79C137.746 263.222 137.866 263.72 137.866 264.284H131.71V265.094ZM152.67 260.72H146.424V269H147.36V261.602H151.734V269H152.67V260.72ZM155.587 266.57C155.587 266.15 155.695 265.796 155.911 265.508C156.127 265.22 156.421 265.004 156.793 264.86C157.177 264.704 157.609 264.626 158.089 264.626C158.653 264.626 159.139 264.704 159.547 264.86C159.967 265.004 160.345 265.202 160.681 265.454V264.878C160.585 264.77 160.423 264.638 160.195 264.482C159.979 264.326 159.691 264.188 159.331 264.068C158.983 263.948 158.557 263.888 158.053 263.888C157.405 263.888 156.823 263.996 156.307 264.212C155.791 264.416 155.383 264.722 155.083 265.13C154.783 265.526 154.633 266.018 154.633 266.606C154.633 267.194 154.765 267.68 155.029 268.064C155.293 268.436 155.635 268.718 156.055 268.91C156.487 269.09 156.949 269.18 157.441 269.18C158.029 269.18 158.551 269.066 159.007 268.838C159.475 268.598 159.841 268.274 160.105 267.866C160.381 267.446 160.519 266.972 160.519 266.444L160.303 265.904C160.303 266.42 160.189 266.858 159.961 267.218C159.733 267.578 159.415 267.854 159.007 268.046C158.611 268.238 158.161 268.334 157.657 268.334C157.297 268.334 156.955 268.274 156.631 268.154C156.319 268.022 156.067 267.83 155.875 267.578C155.683 267.314 155.587 266.978 155.587 266.57ZM155.821 262.358C155.989 262.214 156.193 262.064 156.433 261.908C156.685 261.752 156.973 261.626 157.297 261.53C157.621 261.422 157.981 261.368 158.377 261.368C158.953 261.368 159.415 261.524 159.763 261.836C160.123 262.136 160.303 262.568 160.303 263.132V269H161.239V263.132C161.239 262.592 161.125 262.13 160.897 261.746C160.669 261.362 160.339 261.068 159.907 260.864C159.487 260.648 158.977 260.54 158.377 260.54C157.669 260.54 157.063 260.66 156.559 260.9C156.067 261.14 155.665 261.386 155.353 261.638L155.821 262.358ZM165.026 272.96V260.72H164.09V272.96H165.026ZM172.1 264.86C172.1 263.96 171.92 263.192 171.56 262.556C171.212 261.908 170.732 261.41 170.12 261.062C169.52 260.714 168.848 260.54 168.104 260.54C167.408 260.54 166.796 260.732 166.268 261.116C165.74 261.488 165.326 261.998 165.026 262.646C164.738 263.294 164.594 264.032 164.594 264.86C164.594 265.676 164.738 266.414 165.026 267.074C165.326 267.722 165.74 268.238 166.268 268.622C166.796 268.994 167.408 269.18 168.104 269.18C168.848 269.18 169.52 269.006 170.12 268.658C170.732 268.31 171.212 267.812 171.56 267.164C171.92 266.516 172.1 265.748 172.1 264.86ZM171.164 264.86C171.164 265.58 171.02 266.198 170.732 266.714C170.444 267.23 170.06 267.626 169.58 267.902C169.1 268.166 168.566 268.298 167.978 268.298C167.474 268.298 166.994 268.148 166.538 267.848C166.082 267.548 165.716 267.14 165.44 266.624C165.164 266.108 165.026 265.52 165.026 264.86C165.026 264.2 165.164 263.612 165.44 263.096C165.716 262.58 166.082 262.172 166.538 261.872C166.994 261.572 167.474 261.422 167.978 261.422C168.566 261.422 169.1 261.56 169.58 261.836C170.06 262.1 170.444 262.49 170.732 263.006C171.02 263.522 171.164 264.14 171.164 264.86ZM174.355 260.72V269H175.291V260.72H174.355ZM178.837 260.72L174.949 264.14L179.197 269H180.385L176.137 264.14L180.043 260.72H178.837ZM181.39 264.86C181.39 265.688 181.576 266.432 181.948 267.092C182.32 267.74 182.824 268.25 183.46 268.622C184.108 268.994 184.834 269.18 185.638 269.18C186.442 269.18 187.162 268.994 187.798 268.622C188.446 268.25 188.956 267.74 189.328 267.092C189.7 266.432 189.886 265.688 189.886 264.86C189.886 264.02 189.7 263.276 189.328 262.628C188.956 261.98 188.446 261.47 187.798 261.098C187.162 260.726 186.442 260.54 185.638 260.54C184.834 260.54 184.108 260.726 183.46 261.098C182.824 261.47 182.32 261.98 181.948 262.628C181.576 263.276 181.39 264.02 181.39 264.86ZM182.344 264.86C182.344 264.188 182.488 263.594 182.776 263.078C183.064 262.562 183.454 262.16 183.946 261.872C184.45 261.572 185.014 261.422 185.638 261.422C186.262 261.422 186.82 261.572 187.312 261.872C187.816 262.16 188.212 262.568 188.5 263.096C188.788 263.612 188.932 264.2 188.932 264.86C188.932 265.532 188.788 266.126 188.5 266.642C188.212 267.158 187.816 267.566 187.312 267.866C186.82 268.154 186.262 268.298 185.638 268.298C185.014 268.298 184.45 268.154 183.946 267.866C183.454 267.566 183.064 267.158 182.776 266.642C182.488 266.126 182.344 265.532 182.344 264.86ZM192.404 264.752V265.238H194.798C195.074 265.238 195.338 265.262 195.59 265.31C195.842 265.358 196.064 265.436 196.256 265.544C196.448 265.652 196.598 265.796 196.706 265.976C196.826 266.144 196.886 266.366 196.886 266.642C196.886 267.062 196.73 267.422 196.418 267.722C196.118 268.022 195.626 268.172 194.942 268.172H192.404V269H195.158C196.106 269 196.784 268.784 197.192 268.352C197.612 267.908 197.822 267.374 197.822 266.75C197.822 266.21 197.69 265.796 197.426 265.508C197.162 265.22 196.802 265.022 196.346 264.914C195.89 264.806 195.374 264.752 194.798 264.752H192.404ZM192.404 264.968H194.618C195.134 264.968 195.602 264.902 196.022 264.77C196.454 264.626 196.802 264.41 197.066 264.122C197.33 263.822 197.462 263.438 197.462 262.97C197.462 262.43 197.33 261.998 197.066 261.674C196.802 261.338 196.454 261.098 196.022 260.954C195.602 260.798 195.134 260.72 194.618 260.72H192.404V261.548H194.618C195.182 261.548 195.638 261.674 195.986 261.926C196.346 262.178 196.526 262.544 196.526 263.024C196.526 263.276 196.466 263.492 196.346 263.672C196.238 263.84 196.088 263.984 195.896 264.104C195.716 264.224 195.512 264.308 195.284 264.356C195.056 264.404 194.834 264.428 194.618 264.428H192.404V264.968ZM191.864 260.72V269H192.8V260.72H191.864ZM199.056 264.86C199.056 265.688 199.242 266.432 199.614 267.092C199.986 267.74 200.49 268.25 201.126 268.622C201.774 268.994 202.5 269.18 203.304 269.18C204.108 269.18 204.828 268.994 205.464 268.622C206.112 268.25 206.622 267.74 206.994 267.092C207.366 266.432 207.552 265.688 207.552 264.86C207.552 264.02 207.366 263.276 206.994 262.628C206.622 261.98 206.112 261.47 205.464 261.098C204.828 260.726 204.108 260.54 203.304 260.54C202.5 260.54 201.774 260.726 201.126 261.098C200.49 261.47 199.986 261.98 199.614 262.628C199.242 263.276 199.056 264.02 199.056 264.86ZM200.01 264.86C200.01 264.188 200.154 263.594 200.442 263.078C200.73 262.562 201.12 262.16 201.612 261.872C202.116 261.572 202.68 261.422 203.304 261.422C203.928 261.422 204.486 261.572 204.978 261.872C205.482 262.16 205.878 262.568 206.166 263.096C206.454 263.612 206.598 264.2 206.598 264.86C206.598 265.532 206.454 266.126 206.166 266.642C205.878 267.158 205.482 267.566 204.978 267.866C204.486 268.154 203.928 268.298 203.304 268.298C202.68 268.298 202.116 268.154 201.612 267.866C201.12 267.566 200.73 267.158 200.442 266.642C200.154 266.126 200.01 265.532 200.01 264.86ZM212.32 266.48H214.786V265.598H212.32V266.48ZM214.12 260.72V269H215.056V260.72H214.12ZM210.016 260.72H209.08V263.096C209.08 263.9 209.176 264.554 209.368 265.058C209.56 265.55 209.89 265.91 210.358 266.138C210.838 266.366 211.492 266.48 212.32 266.48V265.598C211.744 265.598 211.288 265.52 210.952 265.364C210.616 265.196 210.376 264.932 210.232 264.572C210.088 264.2 210.016 263.708 210.016 263.096V260.72ZM218.314 265.058H224.362V264.176H218.314V265.058ZM223.786 260.72V269H224.722V260.72H223.786ZM217.756 260.72V269H218.692V260.72H217.756ZM234.714 260.72V269H235.65V260.72H234.714ZM227.424 260.72V269H228.36V260.72H227.424ZM227.946 264.68H230.34C230.976 264.68 231.48 264.83 231.852 265.13C232.236 265.418 232.428 265.85 232.428 266.426C232.428 266.822 232.338 267.152 232.158 267.416C231.99 267.668 231.75 267.86 231.438 267.992C231.126 268.112 230.76 268.172 230.34 268.172H227.946V269H230.34C230.916 269 231.432 268.91 231.888 268.73C232.344 268.55 232.704 268.268 232.968 267.884C233.232 267.5 233.364 267.014 233.364 266.426C233.364 265.538 233.07 264.89 232.482 264.482C231.906 264.062 231.192 263.852 230.34 263.852H227.946V264.68ZM238.304 265.094H245.45C245.462 265.022 245.468 264.95 245.468 264.878C245.48 264.794 245.486 264.716 245.486 264.644C245.486 263.816 245.318 263.096 244.982 262.484C244.658 261.872 244.208 261.398 243.632 261.062C243.056 260.714 242.408 260.54 241.688 260.54C241.028 260.54 240.428 260.678 239.888 260.954C239.348 261.218 238.904 261.596 238.556 262.088C238.208 262.568 237.962 263.126 237.818 263.762C237.782 263.942 237.752 264.122 237.728 264.302C237.716 264.47 237.71 264.65 237.71 264.842C237.71 265.67 237.878 266.414 238.214 267.074C238.55 267.734 239.006 268.25 239.582 268.622C240.17 268.994 240.824 269.18 241.544 269.18C242.276 269.18 242.876 269.084 243.344 268.892C243.812 268.688 244.202 268.43 244.514 268.118C244.826 267.794 245.102 267.446 245.342 267.074L244.586 266.588C244.406 266.888 244.184 267.17 243.92 267.434C243.668 267.686 243.356 267.896 242.984 268.064C242.624 268.22 242.18 268.298 241.652 268.298C241.064 268.298 240.542 268.16 240.086 267.884C239.642 267.596 239.294 267.194 239.042 266.678C238.79 266.15 238.664 265.538 238.664 264.842L238.682 264.518C238.682 263.87 238.82 263.312 239.096 262.844C239.372 262.364 239.738 261.998 240.194 261.746C240.65 261.494 241.148 261.368 241.688 261.368C242.228 261.368 242.702 261.494 243.11 261.746C243.53 261.998 243.86 262.346 244.1 262.79C244.34 263.222 244.46 263.72 244.46 264.284H238.304V265.094ZM261.442 269H262.504L260.344 260.09L259.84 261.782L261.442 269ZM256.78 268.19L257.104 269.558L260.434 262.106L260.344 260.09L256.78 268.19ZM257.104 269.558L257.428 268.19L253.918 260.09L253.828 262.106L257.104 269.558ZM251.758 269H252.838L254.422 261.782L253.918 260.09L251.758 269ZM263.898 265.094H271.044C271.056 265.022 271.062 264.95 271.062 264.878C271.074 264.794 271.08 264.716 271.08 264.644C271.08 263.816 270.912 263.096 270.576 262.484C270.252 261.872 269.802 261.398 269.226 261.062C268.65 260.714 268.002 260.54 267.282 260.54C266.622 260.54 266.022 260.678 265.482 260.954C264.942 261.218 264.498 261.596 264.15 262.088C263.802 262.568 263.556 263.126 263.412 263.762C263.376 263.942 263.346 264.122 263.322 264.302C263.31 264.47 263.304 264.65 263.304 264.842C263.304 265.67 263.472 266.414 263.808 267.074C264.144 267.734 264.6 268.25 265.176 268.622C265.764 268.994 266.418 269.18 267.138 269.18C267.87 269.18 268.47 269.084 268.938 268.892C269.406 268.688 269.796 268.43 270.108 268.118C270.42 267.794 270.696 267.446 270.936 267.074L270.18 266.588C270 266.888 269.778 267.17 269.514 267.434C269.262 267.686 268.95 267.896 268.578 268.064C268.218 268.22 267.774 268.298 267.246 268.298C266.658 268.298 266.136 268.16 265.68 267.884C265.236 267.596 264.888 267.194 264.636 266.678C264.384 266.15 264.258 265.538 264.258 264.842L264.276 264.518C264.276 263.87 264.414 263.312 264.69 262.844C264.966 262.364 265.332 261.998 265.788 261.746C266.244 261.494 266.742 261.368 267.282 261.368C267.822 261.368 268.296 261.494 268.704 261.746C269.124 261.998 269.454 262.346 269.694 262.79C269.934 263.222 270.054 263.72 270.054 264.284H263.898V265.094ZM273.431 264.86C273.431 264.188 273.575 263.594 273.863 263.078C274.151 262.562 274.541 262.16 275.033 261.872C275.537 261.572 276.101 261.422 276.725 261.422C277.169 261.422 277.583 261.488 277.967 261.62C278.351 261.752 278.681 261.92 278.957 262.124C279.245 262.328 279.449 262.544 279.569 262.772V261.602C279.317 261.314 278.927 261.068 278.399 260.864C277.883 260.648 277.325 260.54 276.725 260.54C275.921 260.54 275.201 260.726 274.565 261.098C273.929 261.47 273.419 261.98 273.035 262.628C272.663 263.276 272.477 264.02 272.477 264.86C272.477 265.688 272.663 266.432 273.035 267.092C273.419 267.74 273.929 268.25 274.565 268.622C275.201 268.994 275.921 269.18 276.725 269.18C277.325 269.18 277.883 269.078 278.399 268.874C278.927 268.67 279.317 268.418 279.569 268.118V266.948C279.449 267.164 279.245 267.38 278.957 267.596C278.681 267.8 278.351 267.968 277.967 268.1C277.583 268.232 277.169 268.298 276.725 268.298C276.101 268.298 275.537 268.154 275.033 267.866C274.541 267.566 274.151 267.158 273.863 266.642C273.575 266.126 273.431 265.532 273.431 264.86ZM280.551 260.72V261.602H285.411V260.72H280.551ZM282.513 260.972V269H283.449V260.972H282.513ZM287.072 266.57C287.072 266.15 287.18 265.796 287.396 265.508C287.612 265.22 287.906 265.004 288.278 264.86C288.662 264.704 289.094 264.626 289.574 264.626C290.138 264.626 290.624 264.704 291.032 264.86C291.452 265.004 291.83 265.202 292.166 265.454V264.878C292.07 264.77 291.908 264.638 291.68 264.482C291.464 264.326 291.176 264.188 290.816 264.068C290.468 263.948 290.042 263.888 289.538 263.888C288.89 263.888 288.308 263.996 287.792 264.212C287.276 264.416 286.868 264.722 286.568 265.13C286.268 265.526 286.118 266.018 286.118 266.606C286.118 267.194 286.25 267.68 286.514 268.064C286.778 268.436 287.12 268.718 287.54 268.91C287.972 269.09 288.434 269.18 288.926 269.18C289.514 269.18 290.036 269.066 290.492 268.838C290.96 268.598 291.326 268.274 291.59 267.866C291.866 267.446 292.004 266.972 292.004 266.444L291.788 265.904C291.788 266.42 291.674 266.858 291.446 267.218C291.218 267.578 290.9 267.854 290.492 268.046C290.096 268.238 289.646 268.334 289.142 268.334C288.782 268.334 288.44 268.274 288.116 268.154C287.804 268.022 287.552 267.83 287.36 267.578C287.168 267.314 287.072 266.978 287.072 266.57ZM287.306 262.358C287.474 262.214 287.678 262.064 287.918 261.908C288.17 261.752 288.458 261.626 288.782 261.53C289.106 261.422 289.466 261.368 289.862 261.368C290.438 261.368 290.9 261.524 291.248 261.836C291.608 262.136 291.788 262.568 291.788 263.132V269H292.724V263.132C292.724 262.592 292.61 262.13 292.382 261.746C292.154 261.362 291.824 261.068 291.392 260.864C290.972 260.648 290.462 260.54 289.862 260.54C289.154 260.54 288.548 260.66 288.044 260.9C287.552 261.14 287.15 261.386 286.838 261.638L287.306 262.358Z" fill="white"/>
<defs>
<filter id="filter0_bdi_322_281" x="-46" y="-49.3847" width="640" height="415.765" filterUnits="userSpaceOnUse" color-interpolation-filters="sRGB">
<feFlood flood-opacity="0" result="BackgroundImageFix"/>
<feGaussianBlur in="BackgroundImageFix" stdDeviation="25"/>
<feComposite in2="SourceAlpha" operator="in" result="effect1_backgroundBlur_322_281"/>
<feColorMatrix in="SourceAlpha" type="matrix" values="0 0 0 0 0 0 0 0 0 0 0 0 0 0 0 0 0 0 127 0" result="hardAlpha"/>
<feOffset dy="4"/>
<feGaussianBlur stdDeviation="2"/>
<feComposite in2="hardAlpha" operator="out"/>
<feColorMatrix type="matrix" values="0 0 0 0 0 0 0 0 0 0 0 0 0 0 0 0 0 0 0.25 0"/>
<feBlend mode="normal" in2="effect1_backgroundBlur_322_281" result="effect2_dropShadow_322_281"/>
<feBlend mode="normal" in="SourceGraphic" in2="effect2_dropShadow_322_281" result="shape"/>
<feColorMatrix in="SourceAlpha" type="matrix" values="0 0 0 0 0 0 0 0 0 0 0 0 0 0 0 0 0 0 127 0" result="hardAlpha"/>
<feMorphology radius="1" operator="erode" in="SourceAlpha" result="effect3_innerShadow_322_281"/>
<feOffset/>
<feGaussianBlur stdDeviation="4"/>
<feComposite in2="hardAlpha" operator="arithmetic" k2="-1" k3="1"/>
<feColorMatrix type="matrix" values="0 0 0 0 1 0 0 0 0 1 0 0 0 0 1 0 0 0 0.1 0"/>
<feBlend mode="normal" in2="shape" result="effect3_innerShadow_322_281"/>
</filter>
<filter id="filter1_d_322_281" x="320.666" y="97.5887" width="178.6" height="178.6" filterUnits="userSpaceOnUse" color-interpolation-filters="sRGB">
<feFlood flood-opacity="0" result="BackgroundImageFix"/>
<feColorMatrix in="SourceAlpha" type="matrix" values="0 0 0 0 0 0 0 0 0 0 0 0 0 0 0 0 0 0 127 0" result="hardAlpha"/>
<feMorphology radius="2" operator="dilate" in="SourceAlpha" result="effect1_dropShadow_322_281"/>
<feOffset/>
<feComposite in2="hardAlpha" operator="out"/>
<feColorMatrix type="matrix" values="0 0 0 0 1 0 0 0 0 1 0 0 0 0 1 0 0 0 1 0"/>
<feBlend mode="normal" in2="BackgroundImageFix" result="effect1_dropShadow_322_281"/>
<feBlend mode="normal" in="SourceGraphic" in2="effect1_dropShadow_322_281" result="shape"/>
</filter>
</defs>
</svg>
