<svg width="343" height="200" viewBox="0 0 343 200" fill="none" xmlns="http://www.w3.org/2000/svg">
<g filter="url(#filter0_bdi_322_821)">
<path d="M4 30.6889C4 14.1203 17.4315 0.688843 34 0.688843H309C325.569 0.688843 339 14.1203 339 30.6888V161.571C339 178.139 325.569 191.571 309 191.571H34C17.4315 191.571 4 178.139 4 161.571V30.6889Z" fill="#515151" fill-opacity="0.15" shape-rendering="crispEdges"/>
<path d="M4.5 30.6889C4.5 14.3965 17.7076 1.18884 34 1.18884H309C325.292 1.18884 338.5 14.3964 338.5 30.6888V161.571C338.5 177.863 325.292 191.071 309 191.071H34C17.7076 191.071 4.5 177.863 4.5 161.571V30.6889Z" stroke="white" stroke-opacity="0.1" shape-rendering="crispEdges"/>
</g>
<path d="M40.2 86.476C40.2 87.412 39.996 88.24 39.588 88.96C39.18 89.68 38.616 90.244 37.896 90.652C37.2 91.06 36.408 91.264 35.52 91.264C34.632 91.264 33.828 91.06 33.108 90.652C32.412 90.244 31.86 89.68 31.452 88.96C31.044 88.24 30.84 87.412 30.84 86.476C30.84 85.516 31.044 84.688 31.452 83.992C31.86 83.272 32.412 82.72 33.108 82.336C33.828 81.928 34.632 81.724 35.52 81.724C36.408 81.724 37.2 81.928 37.896 82.336C38.616 82.72 39.18 83.272 39.588 83.992C39.996 84.688 40.2 85.516 40.2 86.476ZM35.088 102.928L42.756 92.92C43.452 92.008 44.04 91.024 44.52 89.968C45 88.888 45.24 87.724 45.24 86.476C45.24 84.508 44.796 82.84 43.908 81.472C43.044 80.104 41.88 79.072 40.416 78.376C38.952 77.656 37.32 77.296 35.52 77.296C33.72 77.296 32.088 77.656 30.624 78.376C29.16 79.072 27.984 80.104 27.096 81.472C26.232 82.84 25.8 84.508 25.8 86.476C25.8 87.7 26.016 88.816 26.448 89.824C26.88 90.832 27.456 91.696 28.176 92.416C28.92 93.136 29.748 93.688 30.66 94.072C31.572 94.456 32.508 94.648 33.468 94.648C34.356 94.648 35.112 94.552 35.736 94.36C36.36 94.144 36.972 93.724 37.572 93.1L36.672 93.424L28.572 102.928H35.088ZM53.8673 94.324C53.8673 93.388 54.0713 92.56 54.4793 91.84C54.8873 91.096 55.4393 90.532 56.1353 90.148C56.8553 89.74 57.6593 89.536 58.5473 89.536C59.4353 89.536 60.2273 89.74 60.9233 90.148C61.6433 90.532 62.2073 91.096 62.6153 91.84C63.0233 92.56 63.2273 93.388 63.2273 94.324C63.2273 95.284 63.0233 96.124 62.6153 96.844C62.2073 97.54 61.6433 98.092 60.9233 98.5C60.2273 98.884 59.4353 99.076 58.5473 99.076C57.6593 99.076 56.8553 98.884 56.1353 98.5C55.4393 98.092 54.8873 97.54 54.4793 96.844C54.0713 96.124 53.8673 95.284 53.8673 94.324ZM58.9793 77.872L51.3473 87.88C50.6273 88.792 50.0273 89.788 49.5473 90.868C49.0673 91.924 48.8273 93.076 48.8273 94.324C48.8273 96.292 49.2593 97.96 50.1233 99.328C51.0113 100.696 52.1873 101.74 53.6513 102.46C55.1153 103.156 56.7473 103.504 58.5473 103.504C60.3473 103.504 61.9793 103.156 63.4433 102.46C64.9073 101.74 66.0713 100.696 66.9353 99.328C67.8233 97.96 68.2673 96.292 68.2673 94.324C68.2673 93.1 68.0513 91.984 67.6193 90.976C67.1873 89.968 66.6113 89.104 65.8913 88.384C65.1713 87.664 64.3433 87.112 63.4073 86.728C62.4953 86.344 61.5593 86.152 60.5993 86.152C59.7113 86.152 58.9553 86.248 58.3313 86.44C57.7313 86.632 57.1193 87.052 56.4953 87.7L57.4313 87.376L65.4953 77.872H58.9793ZM74.6987 99.04L71.5307 108.364L74.9867 109.192L79.3427 100.192L74.6987 99.04ZM91.1988 90.724C93.0948 90.724 94.7868 90.472 96.2748 89.968C97.7628 89.464 98.9388 88.732 99.8028 87.772C100.667 86.788 101.099 85.612 101.099 84.244C101.099 82.972 100.775 81.82 100.127 80.788C99.4788 79.756 98.5308 78.928 97.2828 78.304C96.0588 77.68 94.5708 77.368 92.8188 77.368C91.1628 77.368 89.7108 77.692 88.4628 78.34C87.2148 78.988 86.2308 79.876 85.5108 81.004C84.8148 82.108 84.4668 83.38 84.4668 84.82H89.2548C89.2548 83.884 89.5908 83.116 90.2628 82.516C90.9588 81.892 91.8108 81.58 92.8188 81.58C93.5388 81.58 94.1268 81.7 94.5828 81.94C95.0388 82.18 95.3868 82.528 95.6268 82.984C95.8668 83.44 95.9868 83.968 95.9868 84.568C95.9868 85.048 95.8668 85.516 95.6268 85.972C95.4108 86.404 95.0988 86.8 94.6908 87.16C94.2828 87.496 93.7788 87.76 93.1788 87.952C92.6028 88.144 91.9428 88.24 91.1988 88.24V90.724ZM92.6028 103.504C94.4748 103.504 96.0948 103.204 97.4628 102.604C98.8548 101.98 99.9228 101.116 100.667 100.012C101.435 98.908 101.819 97.636 101.819 96.196C101.819 94.924 101.555 93.844 101.027 92.956C100.499 92.044 99.7548 91.3 98.7948 90.724C97.8348 90.124 96.7068 89.692 95.4108 89.428C94.1388 89.164 92.7348 89.032 91.1988 89.032V91.768C92.0868 91.768 92.8668 91.864 93.5388 92.056C94.2348 92.224 94.8108 92.476 95.2668 92.812C95.7468 93.148 96.1068 93.568 96.3468 94.072C96.5868 94.552 96.7068 95.08 96.7068 95.656C96.7068 96.448 96.5388 97.108 96.2028 97.636C95.8668 98.164 95.3988 98.572 94.7988 98.86C94.2228 99.124 93.5388 99.256 92.7468 99.256C91.9788 99.256 91.2708 99.112 90.6228 98.824C89.9748 98.512 89.4588 98.068 89.0748 97.492C88.6908 96.916 88.4988 96.22 88.4988 95.404H83.3868C83.3868 96.484 83.6028 97.516 84.0348 98.5C84.4668 99.46 85.0788 100.324 85.8708 101.092C86.6628 101.836 87.6228 102.424 88.7508 102.856C89.8788 103.288 91.1628 103.504 92.6028 103.504ZM103.551 92.22C103.551 92.86 103.705 93.4533 104.011 94C104.331 94.5333 104.765 94.96 105.311 95.28C105.858 95.6 106.471 95.76 107.151 95.76C107.845 95.76 108.458 95.6 108.991 95.28C109.538 94.96 109.965 94.5333 110.271 94C110.578 93.4533 110.731 92.86 110.731 92.22C110.731 91.5533 110.578 90.9533 110.271 90.42C109.965 89.8867 109.538 89.4667 108.991 89.16C108.458 88.84 107.845 88.68 107.151 88.68C106.471 88.68 105.858 88.84 105.311 89.16C104.765 89.4667 104.331 89.8867 104.011 90.42C103.705 90.9533 103.551 91.5533 103.551 92.22ZM105.711 92.22C105.711 91.94 105.771 91.6867 105.891 91.46C106.011 91.2333 106.178 91.0533 106.391 90.92C106.605 90.7733 106.858 90.7 107.151 90.7C107.445 90.7 107.691 90.7733 107.891 90.92C108.105 91.0533 108.271 91.2333 108.391 91.46C108.511 91.6867 108.571 91.94 108.571 92.22C108.571 92.4867 108.511 92.74 108.391 92.98C108.271 93.2067 108.105 93.3867 107.891 93.52C107.691 93.6533 107.445 93.72 107.151 93.72C106.858 93.72 106.605 93.6533 106.391 93.52C106.178 93.3867 106.011 93.2067 105.891 92.98C105.771 92.74 105.711 92.4867 105.711 92.22ZM112.651 99.78C112.651 100.433 112.805 101.027 113.111 101.56C113.431 102.093 113.865 102.52 114.411 102.84C114.958 103.16 115.571 103.32 116.251 103.32C116.945 103.32 117.558 103.16 118.091 102.84C118.638 102.52 119.065 102.093 119.371 101.56C119.678 101.027 119.831 100.433 119.831 99.78C119.831 99.1267 119.678 98.5333 119.371 98C119.065 97.4533 118.638 97.0267 118.091 96.72C117.558 96.4 116.945 96.24 116.251 96.24C115.571 96.24 114.958 96.4 114.411 96.72C113.865 97.0267 113.431 97.4533 113.111 98C112.805 98.5333 112.651 99.1267 112.651 99.78ZM114.811 99.78C114.811 99.5 114.871 99.2467 114.991 99.02C115.111 98.7933 115.278 98.6133 115.491 98.48C115.705 98.3467 115.958 98.28 116.251 98.28C116.545 98.28 116.791 98.3467 116.991 98.48C117.205 98.6133 117.371 98.7933 117.491 99.02C117.611 99.2467 117.671 99.5 117.671 99.78C117.671 100.047 117.611 100.3 117.491 100.54C117.371 100.767 117.205 100.947 116.991 101.08C116.791 101.213 116.545 101.28 116.251 101.28C115.958 101.28 115.705 101.213 115.491 101.08C115.278 100.947 115.111 100.767 114.991 100.54C114.871 100.3 114.811 100.047 114.811 99.78ZM115.491 89L105.291 103H107.911L118.111 89H115.491Z" fill="white"/>
<path d="M33.352 35.9L33.394 34.71L25.218 44.3L25.176 45.49L33.352 35.9ZM25.946 35.2H25.176V45.49L25.946 44.44V35.2ZM33.394 34.71L32.624 35.746V45H33.394V34.71ZM36.0104 40.1C36.0104 39.26 36.1877 38.5227 36.5424 37.888C36.897 37.2533 37.373 36.7587 37.9704 36.404C38.5677 36.04 39.235 35.858 39.9724 35.858C40.4297 35.858 40.8497 35.9093 41.2324 36.012C41.615 36.1147 41.965 36.2687 42.2824 36.474C42.5997 36.67 42.8797 36.908 43.1224 37.188V36.166C42.7117 35.802 42.2637 35.5313 41.7784 35.354C41.293 35.1673 40.691 35.074 39.9724 35.074C39.291 35.074 38.6564 35.2 38.0684 35.452C37.4897 35.6947 36.9857 36.04 36.5564 36.488C36.127 36.936 35.791 37.468 35.5484 38.084C35.3057 38.7 35.1844 39.372 35.1844 40.1C35.1844 40.828 35.3057 41.5 35.5484 42.116C35.791 42.732 36.127 43.264 36.5564 43.712C36.9857 44.16 37.4897 44.51 38.0684 44.762C38.6564 45.0047 39.291 45.126 39.9724 45.126C40.691 45.126 41.293 45.0373 41.7784 44.86C42.2637 44.6733 42.7117 44.398 43.1224 44.034V42.998C42.8797 43.278 42.5997 43.5207 42.2824 43.726C41.9744 43.9313 41.629 44.0853 41.2464 44.188C40.8637 44.2907 40.439 44.342 39.9724 44.342C39.235 44.342 38.5677 44.16 37.9704 43.796C37.373 43.432 36.897 42.9327 36.5424 42.298C36.1877 41.6633 36.0104 40.9307 36.0104 40.1ZM51.8523 35.928V45H52.6223V35.2H45.2723V45H46.0423V35.928H51.8523ZM55.1643 40.1C55.1643 39.2787 55.337 38.5507 55.6823 37.916C56.037 37.272 56.5177 36.768 57.1243 36.404C57.7403 36.0307 58.4403 35.844 59.2243 35.844C60.0083 35.844 60.7037 36.0307 61.3103 36.404C61.9263 36.768 62.407 37.272 62.7523 37.916C63.0977 38.5507 63.2703 39.2787 63.2703 40.1C63.2703 40.912 63.0977 41.64 62.7523 42.284C62.407 42.928 61.9263 43.4367 61.3103 43.81C60.7037 44.174 60.0083 44.356 59.2243 44.356C58.4403 44.356 57.7403 44.174 57.1243 43.81C56.5177 43.4367 56.037 42.928 55.6823 42.284C55.337 41.64 55.1643 40.912 55.1643 40.1ZM54.3523 40.1C54.3523 40.8187 54.4737 41.486 54.7163 42.102C54.959 42.7087 55.2997 43.2407 55.7383 43.698C56.177 44.146 56.6903 44.496 57.2783 44.748C57.8757 45 58.5243 45.126 59.2243 45.126C59.9243 45.126 60.5683 45 61.1563 44.748C61.7537 44.496 62.2717 44.146 62.7103 43.698C63.149 43.2407 63.4897 42.7087 63.7323 42.102C63.975 41.486 64.0963 40.8187 64.0963 40.1C64.0963 39.3813 63.975 38.7187 63.7323 38.112C63.4897 37.496 63.149 36.964 62.7103 36.516C62.2717 36.0587 61.7537 35.704 61.1563 35.452C60.5683 35.2 59.9243 35.074 59.2243 35.074C58.5243 35.074 57.8757 35.2 57.2783 35.452C56.6903 35.704 56.177 36.0587 55.7383 36.516C55.2997 36.964 54.959 37.496 54.7163 38.112C54.4737 38.7187 54.3523 39.3813 54.3523 40.1ZM72.6369 35.2H66.2389V41.472C66.2389 41.8453 66.2109 42.2047 66.1549 42.55C66.0989 42.886 66.0149 43.1893 65.9029 43.46C65.7909 43.7307 65.6555 43.9453 65.4969 44.104C65.3382 44.2533 65.1515 44.328 64.9369 44.328V45C65.3755 45 65.7442 44.846 66.0429 44.538C66.3509 44.23 66.5795 43.8193 66.7289 43.306C66.8875 42.7927 66.9669 42.2373 66.9669 41.64V35.928H71.8669V45H72.6369V35.2ZM74.844 35.2V45H75.614V35.2H74.844ZM75.264 39.848H77.266C77.7606 39.848 78.1993 39.9367 78.582 40.114C78.974 40.282 79.2773 40.534 79.492 40.87C79.716 41.1967 79.828 41.5933 79.828 42.06C79.828 42.5267 79.716 42.928 79.492 43.264C79.2773 43.5907 78.974 43.8427 78.582 44.02C78.1993 44.188 77.7606 44.272 77.266 44.272H75.264V45H77.266C77.9006 45 78.4653 44.8833 78.96 44.65C79.464 44.4073 79.8606 44.0667 80.15 43.628C80.4486 43.18 80.598 42.6573 80.598 42.06C80.598 41.4533 80.4486 40.9307 80.15 40.492C79.8606 40.0533 79.464 39.7173 78.96 39.484C78.4653 39.2413 77.9006 39.12 77.266 39.12H75.264V39.848ZM85.1241 40.086C85.6654 40.086 86.1554 40.0253 86.5941 39.904C87.0421 39.7827 87.4248 39.6147 87.7421 39.4C88.0594 39.176 88.3021 38.9193 88.4701 38.63C88.6474 38.3313 88.7361 38.0093 88.7361 37.664C88.7361 37.1973 88.6101 36.768 88.3581 36.376C88.1061 35.984 87.7468 35.6667 87.2801 35.424C86.8134 35.1813 86.2534 35.06 85.6001 35.06C84.9748 35.06 84.4194 35.172 83.9341 35.396C83.4581 35.6107 83.0848 35.9093 82.8141 36.292C82.5528 36.6747 82.4221 37.1227 82.4221 37.636H83.1641C83.1641 37.272 83.2668 36.95 83.4721 36.67C83.6774 36.39 83.9621 36.1707 84.3261 36.012C84.6994 35.844 85.1288 35.76 85.6141 35.76C86.1088 35.76 86.5288 35.844 86.8741 36.012C87.2288 36.18 87.4948 36.4133 87.6721 36.712C87.8588 37.0013 87.9521 37.328 87.9521 37.692C87.9521 38.056 87.8354 38.3827 87.6021 38.672C87.3688 38.952 87.0374 39.176 86.6081 39.344C86.1881 39.5027 85.6934 39.582 85.1241 39.582V40.086ZM85.5441 45.14C86.2721 45.14 86.8928 45.028 87.4061 44.804C87.9288 44.58 88.3254 44.2627 88.5961 43.852C88.8761 43.4413 89.0161 42.9607 89.0161 42.41C89.0161 41.7567 88.8434 41.2387 88.4981 40.856C88.1528 40.4733 87.6861 40.198 87.0981 40.03C86.5101 39.8527 85.8521 39.764 85.1241 39.764V40.268C85.6934 40.268 86.2114 40.338 86.6781 40.478C87.1541 40.618 87.5321 40.8373 87.8121 41.136C88.0921 41.4347 88.2321 41.8313 88.2321 42.326C88.2321 42.9513 88.0034 43.4553 87.5461 43.838C87.0981 44.2207 86.4308 44.412 85.5441 44.412C84.9468 44.412 84.4474 44.328 84.0461 44.16C83.6448 43.9827 83.3368 43.7447 83.1221 43.446C82.9168 43.138 82.8048 42.7927 82.7861 42.41H82.0021C82.0021 42.7927 82.0768 43.152 82.2261 43.488C82.3848 43.8147 82.6134 44.104 82.9121 44.356C83.2108 44.5987 83.5794 44.79 84.0181 44.93C84.4568 45.07 84.9654 45.14 85.5441 45.14ZM91.0803 40.1C91.0803 39.2787 91.253 38.5507 91.5983 37.916C91.953 37.272 92.4337 36.768 93.0403 36.404C93.6563 36.0307 94.3563 35.844 95.1403 35.844C95.9243 35.844 96.6197 36.0307 97.2263 36.404C97.8423 36.768 98.323 37.272 98.6683 37.916C99.0137 38.5507 99.1863 39.2787 99.1863 40.1C99.1863 40.912 99.0137 41.64 98.6683 42.284C98.323 42.928 97.8423 43.4367 97.2263 43.81C96.6197 44.174 95.9243 44.356 95.1403 44.356C94.3563 44.356 93.6563 44.174 93.0403 43.81C92.4337 43.4367 91.953 42.928 91.5983 42.284C91.253 41.64 91.0803 40.912 91.0803 40.1ZM90.2683 40.1C90.2683 40.8187 90.3897 41.486 90.6323 42.102C90.875 42.7087 91.2157 43.2407 91.6543 43.698C92.093 44.146 92.6063 44.496 93.1943 44.748C93.7917 45 94.4403 45.126 95.1403 45.126C95.8403 45.126 96.4843 45 97.0723 44.748C97.6697 44.496 98.1877 44.146 98.6263 43.698C99.065 43.2407 99.4057 42.7087 99.6483 42.102C99.891 41.486 100.012 40.8187 100.012 40.1C100.012 39.3813 99.891 38.7187 99.6483 38.112C99.4057 37.496 99.065 36.964 98.6263 36.516C98.1877 36.0587 97.6697 35.704 97.0723 35.452C96.4843 35.2 95.8403 35.074 95.1403 35.074C94.4403 35.074 93.7917 35.2 93.1943 35.452C92.6063 35.704 92.093 36.0587 91.6543 36.516C91.2157 36.964 90.875 37.496 90.6323 38.112C90.3897 38.7187 90.2683 39.3813 90.2683 40.1ZM102.491 39.736H104.073C104.624 39.736 105.109 39.6567 105.529 39.498C105.949 39.33 106.276 39.0873 106.509 38.77C106.752 38.4433 106.873 38.042 106.873 37.566C106.873 37.0433 106.756 36.6093 106.523 36.264C106.29 35.9093 105.958 35.6433 105.529 35.466C105.109 35.2887 104.605 35.2 104.017 35.2H101.889V45H104.157C104.792 45 105.352 44.8973 105.837 44.692C106.332 44.4867 106.719 44.174 106.999 43.754C107.279 43.334 107.419 42.802 107.419 42.158C107.419 41.71 107.326 41.3227 107.139 40.996C106.962 40.66 106.719 40.3847 106.411 40.17C106.112 39.9553 105.772 39.7967 105.389 39.694C105.006 39.582 104.614 39.526 104.213 39.526H102.491V39.974H104.157C104.493 39.974 104.806 40.0207 105.095 40.114C105.394 40.2073 105.66 40.3473 105.893 40.534C106.126 40.7113 106.308 40.9353 106.439 41.206C106.57 41.4673 106.635 41.7707 106.635 42.116C106.635 42.6013 106.532 43.0073 106.327 43.334C106.122 43.6513 105.832 43.894 105.459 44.062C105.086 44.23 104.652 44.314 104.157 44.314H102.659V35.886H104.017C104.652 35.886 105.156 36.04 105.529 36.348C105.912 36.6467 106.103 37.0667 106.103 37.608C106.103 37.9907 106.01 38.308 105.823 38.56C105.636 38.8027 105.384 38.9847 105.067 39.106C104.75 39.2273 104.4 39.288 104.017 39.288H102.491V39.736ZM110.274 41.71H115.3L115.048 40.982H110.526L110.274 41.71ZM112.766 36.6L114.698 41.276L114.768 41.458L116.224 45H117.092L112.766 34.822L108.44 45H109.308L110.778 41.402L110.862 41.234L112.766 36.6ZM119.139 40.03H125.747V39.302H119.139V40.03ZM125.229 35.2V45H126.013V35.2H125.229ZM118.733 35.2V45H119.503V35.2H118.733ZM136.916 35.9L136.958 34.71L128.782 44.3L128.74 45.49L136.916 35.9ZM129.51 35.2H128.74V45.49L129.51 44.44V35.2ZM136.958 34.71L136.188 35.746V45H136.958V34.71ZM139.715 45H144.573V44.272H139.715V45ZM139.715 35.928H144.573V35.2H139.715V35.928ZM139.715 39.988H144.293V39.26H139.715V39.988ZM139.309 35.2V45H140.079V35.2H139.309ZM157.727 35.928V45H158.497V35.2H151.147V45H151.917V35.928H157.727ZM160.787 35.2V45H161.557V35.2H160.787ZM161.221 35.928H163.083C163.802 35.928 164.385 36.1147 164.833 36.488C165.281 36.852 165.505 37.3887 165.505 38.098C165.505 38.798 165.281 39.3347 164.833 39.708C164.385 40.0813 163.802 40.268 163.083 40.268H161.221V40.996H163.083C163.699 40.996 164.245 40.884 164.721 40.66C165.207 40.4267 165.589 40.0907 165.869 39.652C166.149 39.2133 166.289 38.6953 166.289 38.098C166.289 37.4913 166.149 36.9733 165.869 36.544C165.589 36.1147 165.207 35.7833 164.721 35.55C164.245 35.3167 163.699 35.2 163.083 35.2H161.221V35.928ZM176.633 35.9L176.675 34.71L168.499 44.3L168.457 45.49L176.633 35.9ZM169.227 35.2H168.457V45.49L169.227 44.44V35.2ZM176.675 34.71L175.905 35.746V45H176.675V34.71ZM185.69 35.2H179.292V41.472C179.292 41.8453 179.264 42.2047 179.208 42.55C179.152 42.886 179.068 43.1893 178.956 43.46C178.844 43.7307 178.708 43.9453 178.55 44.104C178.391 44.2533 178.204 44.328 177.99 44.328V45C178.428 45 178.797 44.846 179.096 44.538C179.404 44.23 179.632 43.8193 179.782 43.306C179.94 42.7927 180.02 42.2373 180.02 41.64V35.928H184.92V45H185.69V35.2ZM188.233 40.1C188.233 39.2787 188.405 38.5507 188.751 37.916C189.105 37.272 189.586 36.768 190.193 36.404C190.809 36.0307 191.509 35.844 192.293 35.844C193.077 35.844 193.772 36.0307 194.379 36.404C194.995 36.768 195.475 37.272 195.821 37.916C196.166 38.5507 196.339 39.2787 196.339 40.1C196.339 40.912 196.166 41.64 195.821 42.284C195.475 42.928 194.995 43.4367 194.379 43.81C193.772 44.174 193.077 44.356 192.293 44.356C191.509 44.356 190.809 44.174 190.193 43.81C189.586 43.4367 189.105 42.928 188.751 42.284C188.405 41.64 188.233 40.912 188.233 40.1ZM187.421 40.1C187.421 40.8187 187.542 41.486 187.785 42.102C188.027 42.7087 188.368 43.2407 188.807 43.698C189.245 44.146 189.759 44.496 190.347 44.748C190.944 45 191.593 45.126 192.293 45.126C192.993 45.126 193.637 45 194.225 44.748C194.822 44.496 195.34 44.146 195.779 43.698C196.217 43.2407 196.558 42.7087 196.801 42.102C197.043 41.486 197.165 40.8187 197.165 40.1C197.165 39.3813 197.043 38.7187 196.801 38.112C196.558 37.496 196.217 36.964 195.779 36.516C195.34 36.0587 194.822 35.704 194.225 35.452C193.637 35.2 192.993 35.074 192.293 35.074C191.593 35.074 190.944 35.2 190.347 35.452C189.759 35.704 189.245 36.0587 188.807 36.516C188.368 36.964 188.027 37.496 187.785 38.112C187.542 38.7187 187.421 39.3813 187.421 40.1ZM198.687 35.2H197.721L201.879 39.806L197.511 45H198.477L202.817 39.82L198.687 35.2ZM202.677 35.2V45H203.447V35.2H202.677ZM207.297 35.2L203.307 39.82L207.507 45H208.473L204.161 39.806L208.263 35.2H207.297ZM210.125 45H214.983V44.272H210.125V45ZM210.125 35.928H214.983V35.2H210.125V35.928ZM210.125 39.988H214.703V39.26H210.125V39.988ZM209.719 35.2V45H210.489V35.2H209.719ZM217.822 40.03H224.43V39.302H217.822V40.03ZM223.912 35.2V45H224.696V35.2H223.912ZM217.416 35.2V45H218.186V35.2H217.416ZM235.6 35.9L235.642 34.71L227.466 44.3L227.424 45.49L235.6 35.9ZM228.194 35.2H227.424V45.49L228.194 44.44V35.2ZM235.642 34.71L234.872 35.746V45H235.642V34.71ZM241.31 40.324H240.442L237.096 45H238.062L241.31 40.324ZM242.962 35.2H242.192V45H242.962V35.2ZM242.556 35.886V35.2H240.722C240.097 35.2 239.532 35.312 239.028 35.536C238.534 35.76 238.137 36.082 237.838 36.502C237.549 36.922 237.404 37.4353 237.404 38.042C237.404 38.6393 237.549 39.1527 237.838 39.582C238.137 40.0113 238.534 40.338 239.028 40.562C239.532 40.7767 240.097 40.884 240.722 40.884H242.556V40.198H240.722C240.228 40.198 239.789 40.1187 239.406 39.96C239.024 39.792 238.72 39.5493 238.496 39.232C238.282 38.9053 238.174 38.5087 238.174 38.042C238.174 37.5753 238.282 37.1833 238.496 36.866C238.72 36.5487 239.024 36.306 239.406 36.138C239.789 35.97 240.228 35.886 240.722 35.886H242.556Z" fill="#B2ABF2"/>
<circle cx="261.363" cy="117.859" r="48.7117" stroke="#564592" stroke-width="10"/>
<mask id="mask0_322_821" style="mask-type:alpha" maskUnits="userSpaceOnUse" x="199" y="48" width="130" height="126">
<path d="M261.793 117.982L260.395 61.3158L199.037 73.4327C206.686 105.83 209.092 167.893 209.092 171.399C209.092 174.905 269.693 171.735 299.771 173.97L328.688 107.83L273.656 48.3961L261.793 117.982Z" fill="#D9D9D9"/>
</mask>
<g mask="url(#mask0_322_821)">
<g filter="url(#filter1_d_322_821)">
<circle cx="261.772" cy="117.606" r="47.7117" stroke="white" stroke-width="12" shape-rendering="crispEdges"/>
</g>
</g>
<path d="M25.224 124.8C25.224 124.096 25.372 123.472 25.668 122.928C25.972 122.376 26.384 121.944 26.904 121.632C27.432 121.312 28.032 121.152 28.704 121.152C29.376 121.152 29.972 121.312 30.492 121.632C31.02 121.944 31.432 122.376 31.728 122.928C32.024 123.472 32.172 124.096 32.172 124.8C32.172 125.496 32.024 126.12 31.728 126.672C31.432 127.224 31.02 127.66 30.492 127.98C29.972 128.292 29.376 128.448 28.704 128.448C28.032 128.448 27.432 128.292 26.904 127.98C26.384 127.66 25.972 127.224 25.668 126.672C25.372 126.12 25.224 125.496 25.224 124.8ZM24.528 124.8C24.528 125.416 24.632 125.988 24.84 126.516C25.048 127.036 25.34 127.492 25.716 127.884C26.092 128.268 26.532 128.568 27.036 128.784C27.548 129 28.104 129.108 28.704 129.108C29.304 129.108 29.856 129 30.36 128.784C30.872 128.568 31.316 128.268 31.692 127.884C32.068 127.492 32.36 127.036 32.568 126.516C32.776 125.988 32.88 125.416 32.88 124.8C32.88 124.184 32.776 123.616 32.568 123.096C32.36 122.568 32.068 122.112 31.692 121.728C31.316 121.336 30.872 121.032 30.36 120.816C29.856 120.6 29.304 120.492 28.704 120.492C28.104 120.492 27.548 120.6 27.036 120.816C26.532 121.032 26.092 121.336 25.716 121.728C25.34 122.112 25.048 122.568 24.84 123.096C24.632 123.616 24.528 124.184 24.528 124.8ZM38.5445 123.48H34.3805V129H35.0045V124.068H37.9205V129H38.5445V123.48ZM40.9573 131.64V123.48H40.3333V131.64H40.9573ZM45.6733 126.24C45.6733 125.64 45.5533 125.128 45.3133 124.704C45.0813 124.272 44.7613 123.94 44.3533 123.708C43.9533 123.476 43.5053 123.36 43.0093 123.36C42.5453 123.36 42.1373 123.488 41.7853 123.744C41.4333 123.992 41.1573 124.332 40.9573 124.764C40.7653 125.196 40.6693 125.688 40.6693 126.24C40.6693 126.784 40.7653 127.276 40.9573 127.716C41.1573 128.148 41.4333 128.492 41.7853 128.748C42.1373 128.996 42.5453 129.12 43.0093 129.12C43.5053 129.12 43.9533 129.004 44.3533 128.772C44.7613 128.54 45.0813 128.208 45.3133 127.776C45.5533 127.344 45.6733 126.832 45.6733 126.24ZM45.0493 126.24C45.0493 126.72 44.9533 127.132 44.7613 127.476C44.5693 127.82 44.3133 128.084 43.9933 128.268C43.6733 128.444 43.3173 128.532 42.9253 128.532C42.5893 128.532 42.2693 128.432 41.9653 128.232C41.6613 128.032 41.4173 127.76 41.2333 127.416C41.0493 127.072 40.9573 126.68 40.9573 126.24C40.9573 125.8 41.0493 125.408 41.2333 125.064C41.4173 124.72 41.6613 124.448 41.9653 124.248C42.2693 124.048 42.5893 123.948 42.9253 123.948C43.3173 123.948 43.6733 124.04 43.9933 124.224C44.3133 124.4 44.5693 124.66 44.7613 125.004C44.9533 125.348 45.0493 125.76 45.0493 126.24ZM46.7571 126.24C46.7571 126.792 46.8811 127.288 47.1291 127.728C47.3771 128.16 47.7131 128.5 48.1371 128.748C48.5691 128.996 49.0531 129.12 49.5891 129.12C50.1251 129.12 50.6051 128.996 51.0291 128.748C51.4611 128.5 51.8011 128.16 52.0491 127.728C52.2971 127.288 52.4211 126.792 52.4211 126.24C52.4211 125.68 52.2971 125.184 52.0491 124.752C51.8011 124.32 51.4611 123.98 51.0291 123.732C50.6051 123.484 50.1251 123.36 49.5891 123.36C49.0531 123.36 48.5691 123.484 48.1371 123.732C47.7131 123.98 47.3771 124.32 47.1291 124.752C46.8811 125.184 46.7571 125.68 46.7571 126.24ZM47.3931 126.24C47.3931 125.792 47.4891 125.396 47.6811 125.052C47.8731 124.708 48.1331 124.44 48.4611 124.248C48.7971 124.048 49.1731 123.948 49.5891 123.948C50.0051 123.948 50.3771 124.048 50.7051 124.248C51.0411 124.44 51.3051 124.712 51.4971 125.064C51.6891 125.408 51.7851 125.8 51.7851 126.24C51.7851 126.688 51.6891 127.084 51.4971 127.428C51.3051 127.772 51.0411 128.044 50.7051 128.244C50.3771 128.436 50.0051 128.532 49.5891 128.532C49.1731 128.532 48.7971 128.436 48.4611 128.244C48.1331 128.044 47.8731 127.772 47.6811 127.428C47.4891 127.084 47.3931 126.688 47.3931 126.24ZM57.6638 128.412V123.48H57.0398V128.412H54.3638V123.48H53.7398V129H60.9638V123.48H60.3398V128.412H57.6638ZM62.7273 126.396H67.4913C67.4993 126.348 67.5033 126.3 67.5033 126.252C67.5113 126.196 67.5153 126.144 67.5153 126.096C67.5153 125.544 67.4033 125.064 67.1793 124.656C66.9633 124.248 66.6633 123.932 66.2793 123.708C65.8953 123.476 65.4633 123.36 64.9833 123.36C64.5433 123.36 64.1433 123.452 63.7833 123.636C63.4233 123.812 63.1273 124.064 62.8953 124.392C62.6633 124.712 62.4993 125.084 62.4033 125.508C62.3793 125.628 62.3593 125.748 62.3433 125.868C62.3353 125.98 62.3313 126.1 62.3313 126.228C62.3313 126.78 62.4433 127.276 62.6673 127.716C62.8913 128.156 63.1953 128.5 63.5793 128.748C63.9713 128.996 64.4073 129.12 64.8873 129.12C65.3753 129.12 65.7753 129.056 66.0873 128.928C66.3993 128.792 66.6593 128.62 66.8673 128.412C67.0753 128.196 67.2593 127.964 67.4193 127.716L66.9153 127.392C66.7953 127.592 66.6473 127.78 66.4713 127.956C66.3033 128.124 66.0953 128.264 65.8473 128.376C65.6073 128.48 65.3113 128.532 64.9593 128.532C64.5673 128.532 64.2193 128.44 63.9153 128.256C63.6193 128.064 63.3873 127.796 63.2193 127.452C63.0513 127.1 62.9673 126.692 62.9673 126.228L62.9793 126.012C62.9793 125.58 63.0713 125.208 63.2553 124.896C63.4393 124.576 63.6833 124.332 63.9873 124.164C64.2913 123.996 64.6233 123.912 64.9833 123.912C65.3433 123.912 65.6593 123.996 65.9313 124.164C66.2113 124.332 66.4313 124.564 66.5913 124.86C66.7513 125.148 66.8313 125.48 66.8313 125.856H62.7273V126.396ZM69.3111 126.372H73.3431V125.784H69.3111V126.372ZM72.9591 123.48V129H73.5831V123.48H72.9591ZM68.9391 123.48V129H69.5631V123.48H68.9391ZM75.7564 126.372H79.7884V125.784H75.7564V126.372ZM79.4044 123.48V129H80.0284V123.48H79.4044ZM75.3844 123.48V129H76.0084V123.48H75.3844ZM86.6897 123.48V129H87.3137V123.48H86.6897ZM81.8297 123.48V129H82.4537V123.48H81.8297ZM82.1777 126.12H83.7737C84.1977 126.12 84.5337 126.22 84.7817 126.42C85.0377 126.612 85.1657 126.9 85.1657 127.284C85.1657 127.548 85.1057 127.768 84.9857 127.944C84.8737 128.112 84.7137 128.24 84.5057 128.328C84.2977 128.408 84.0537 128.448 83.7737 128.448H82.1777V129H83.7737C84.1577 129 84.5017 128.94 84.8057 128.82C85.1097 128.7 85.3497 128.512 85.5257 128.256C85.7017 128 85.7897 127.676 85.7897 127.284C85.7897 126.692 85.5937 126.26 85.2017 125.988C84.8177 125.708 84.3417 125.568 83.7737 125.568H82.1777V126.12ZM92.1788 123.48L90.6428 125.664L89.1068 123.48H88.3868L90.2948 126.156L88.2668 129H88.9868L90.6428 126.648L92.2988 129H93.0188L90.9908 126.156L92.8988 123.48H92.1788ZM102.039 124.02L102.099 123.06L97.8755 128.46L97.8155 129.42L102.039 124.02ZM98.4395 123.48H97.8155V129.42L98.4395 128.532V123.48ZM102.099 123.06L101.475 123.948V129H102.099V123.06ZM104.099 126.24C104.099 125.792 104.195 125.396 104.387 125.052C104.579 124.708 104.839 124.44 105.167 124.248C105.503 124.048 105.879 123.948 106.295 123.948C106.591 123.948 106.867 123.992 107.123 124.08C107.379 124.168 107.599 124.28 107.783 124.416C107.975 124.552 108.111 124.696 108.191 124.848V124.068C108.023 123.876 107.763 123.712 107.411 123.576C107.067 123.432 106.695 123.36 106.295 123.36C105.759 123.36 105.279 123.484 104.855 123.732C104.431 123.98 104.091 124.32 103.835 124.752C103.587 125.184 103.463 125.68 103.463 126.24C103.463 126.792 103.587 127.288 103.835 127.728C104.091 128.16 104.431 128.5 104.855 128.748C105.279 128.996 105.759 129.12 106.295 129.12C106.695 129.12 107.067 129.052 107.411 128.916C107.763 128.78 108.023 128.612 108.191 128.412V127.632C108.111 127.776 107.975 127.92 107.783 128.064C107.599 128.2 107.379 128.312 107.123 128.4C106.867 128.488 106.591 128.532 106.295 128.532C105.879 128.532 105.503 128.436 105.167 128.244C104.839 128.044 104.579 127.772 104.387 127.428C104.195 127.084 104.099 126.688 104.099 126.24ZM113.849 123.48H109.685V129H110.309V124.068H113.225V129H113.849V123.48ZM115.218 126.24C115.218 126.792 115.342 127.288 115.59 127.728C115.838 128.16 116.174 128.5 116.598 128.748C117.03 128.996 117.514 129.12 118.05 129.12C118.586 129.12 119.066 128.996 119.49 128.748C119.922 128.5 120.262 128.16 120.51 127.728C120.758 127.288 120.882 126.792 120.882 126.24C120.882 125.68 120.758 125.184 120.51 124.752C120.262 124.32 119.922 123.98 119.49 123.732C119.066 123.484 118.586 123.36 118.05 123.36C117.514 123.36 117.03 123.484 116.598 123.732C116.174 123.98 115.838 124.32 115.59 124.752C115.342 125.184 115.218 125.68 115.218 126.24ZM115.854 126.24C115.854 125.792 115.95 125.396 116.142 125.052C116.334 124.708 116.594 124.44 116.922 124.248C117.258 124.048 117.634 123.948 118.05 123.948C118.466 123.948 118.838 124.048 119.166 124.248C119.502 124.44 119.766 124.712 119.958 125.064C120.15 125.408 120.246 125.8 120.246 126.24C120.246 126.688 120.15 127.084 119.958 127.428C119.766 127.772 119.502 128.044 119.166 128.244C118.838 128.436 118.466 128.532 118.05 128.532C117.634 128.532 117.258 128.436 116.922 128.244C116.594 128.044 116.334 127.772 116.142 127.428C115.95 127.084 115.854 126.688 115.854 126.24ZM126.701 123.48H122.297V127.08C122.297 127.544 122.209 127.884 122.033 128.1C121.865 128.316 121.661 128.424 121.421 128.424V129C121.741 129 122.013 128.932 122.237 128.796C122.461 128.652 122.629 128.44 122.741 128.16C122.861 127.872 122.921 127.512 122.921 127.08V124.068H126.077V129H126.701V123.48ZM128.564 123.48V129H129.188V123.48H128.564ZM128.912 126.12H130.508C130.932 126.12 131.268 126.22 131.516 126.42C131.772 126.612 131.9 126.9 131.9 127.284C131.9 127.548 131.84 127.768 131.72 127.944C131.608 128.112 131.448 128.24 131.24 128.328C131.032 128.408 130.788 128.448 130.508 128.448H128.912V129H130.508C130.892 129 131.236 128.94 131.54 128.82C131.844 128.7 132.084 128.512 132.26 128.256C132.436 128 132.524 127.676 132.524 127.284C132.524 126.692 132.328 126.26 131.936 125.988C131.552 125.708 131.076 125.568 130.508 125.568H128.912V126.12ZM136.053 126.18C136.685 126.18 137.169 126.052 137.505 125.796C137.849 125.54 138.021 125.212 138.021 124.812C138.021 124.532 137.937 124.284 137.769 124.068C137.609 123.852 137.389 123.68 137.109 123.552C136.829 123.424 136.513 123.36 136.161 123.36C135.785 123.36 135.441 123.436 135.129 123.588C134.825 123.74 134.581 123.944 134.397 124.2C134.221 124.456 134.133 124.736 134.133 125.04H134.769C134.769 124.864 134.821 124.692 134.925 124.524C135.037 124.348 135.197 124.204 135.405 124.092C135.613 123.98 135.861 123.924 136.149 123.924C136.517 123.924 136.813 124.008 137.037 124.176C137.269 124.344 137.385 124.572 137.385 124.86C137.385 125.132 137.273 125.356 137.049 125.532C136.825 125.7 136.493 125.784 136.053 125.784V126.18ZM136.125 129.12C136.501 129.12 136.853 129.056 137.181 128.928C137.509 128.792 137.769 128.596 137.961 128.34C138.161 128.084 138.261 127.776 138.261 127.416C138.261 126.92 138.065 126.552 137.673 126.312C137.289 126.064 136.749 125.94 136.053 125.94V126.336C136.365 126.336 136.641 126.376 136.881 126.456C137.121 126.536 137.309 126.656 137.445 126.816C137.581 126.976 137.649 127.18 137.649 127.428C137.649 127.676 137.577 127.884 137.433 128.052C137.297 128.22 137.113 128.348 136.881 128.436C136.657 128.524 136.405 128.568 136.125 128.568C135.621 128.568 135.237 128.44 134.973 128.184C134.709 127.92 134.549 127.612 134.493 127.26H133.857C133.921 127.796 134.153 128.24 134.553 128.592C134.953 128.944 135.477 129.12 136.125 129.12ZM139.265 126.24C139.265 126.792 139.389 127.288 139.637 127.728C139.885 128.16 140.221 128.5 140.645 128.748C141.077 128.996 141.561 129.12 142.097 129.12C142.633 129.12 143.113 128.996 143.537 128.748C143.969 128.5 144.309 128.16 144.557 127.728C144.805 127.288 144.929 126.792 144.929 126.24C144.929 125.68 144.805 125.184 144.557 124.752C144.309 124.32 143.969 123.98 143.537 123.732C143.113 123.484 142.633 123.36 142.097 123.36C141.561 123.36 141.077 123.484 140.645 123.732C140.221 123.98 139.885 124.32 139.637 124.752C139.389 125.184 139.265 125.68 139.265 126.24ZM139.901 126.24C139.901 125.792 139.997 125.396 140.189 125.052C140.381 124.708 140.641 124.44 140.969 124.248C141.305 124.048 141.681 123.948 142.097 123.948C142.513 123.948 142.885 124.048 143.213 124.248C143.549 124.44 143.813 124.712 144.005 125.064C144.197 125.408 144.293 125.8 144.293 126.24C144.293 126.688 144.197 127.084 144.005 127.428C143.813 127.772 143.549 128.044 143.213 128.244C142.885 128.436 142.513 128.532 142.097 128.532C141.681 128.532 141.305 128.436 140.969 128.244C140.641 128.044 140.381 127.772 140.189 127.428C139.997 127.084 139.901 126.688 139.901 126.24ZM146.608 126.168V126.492H148.204C148.388 126.492 148.564 126.508 148.732 126.54C148.9 126.572 149.048 126.624 149.176 126.696C149.304 126.768 149.404 126.864 149.476 126.984C149.556 127.096 149.596 127.244 149.596 127.428C149.596 127.708 149.492 127.948 149.284 128.148C149.084 128.348 148.756 128.448 148.3 128.448H146.608V129H148.444C149.076 129 149.528 128.856 149.8 128.568C150.08 128.272 150.22 127.916 150.22 127.5C150.22 127.14 150.132 126.864 149.956 126.672C149.78 126.48 149.54 126.348 149.236 126.276C148.932 126.204 148.588 126.168 148.204 126.168H146.608ZM146.608 126.312H148.084C148.428 126.312 148.74 126.268 149.02 126.18C149.308 126.084 149.54 125.94 149.716 125.748C149.892 125.548 149.98 125.292 149.98 124.98C149.98 124.62 149.892 124.332 149.716 124.116C149.54 123.892 149.308 123.732 149.02 123.636C148.74 123.532 148.428 123.48 148.084 123.48H146.608V124.032H148.084C148.46 124.032 148.764 124.116 148.996 124.284C149.236 124.452 149.356 124.696 149.356 125.016C149.356 125.184 149.316 125.328 149.236 125.448C149.164 125.56 149.064 125.656 148.936 125.736C148.816 125.816 148.68 125.872 148.528 125.904C148.376 125.936 148.228 125.952 148.084 125.952H146.608V126.312ZM146.248 123.48V129H146.872V123.48H146.248ZM151.618 127.38C151.618 127.1 151.69 126.864 151.834 126.672C151.978 126.48 152.174 126.336 152.422 126.24C152.678 126.136 152.966 126.084 153.286 126.084C153.662 126.084 153.986 126.136 154.258 126.24C154.538 126.336 154.79 126.468 155.014 126.636V126.252C154.95 126.18 154.842 126.092 154.69 125.988C154.546 125.884 154.354 125.792 154.114 125.712C153.882 125.632 153.598 125.592 153.262 125.592C152.83 125.592 152.442 125.664 152.098 125.808C151.754 125.944 151.482 126.148 151.282 126.42C151.082 126.684 150.982 127.012 150.982 127.404C150.982 127.796 151.07 128.12 151.246 128.376C151.422 128.624 151.65 128.812 151.93 128.94C152.218 129.06 152.526 129.12 152.854 129.12C153.246 129.12 153.594 129.044 153.898 128.892C154.21 128.732 154.454 128.516 154.63 128.244C154.814 127.964 154.906 127.648 154.906 127.296L154.762 126.936C154.762 127.28 154.686 127.572 154.534 127.812C154.382 128.052 154.17 128.236 153.898 128.364C153.634 128.492 153.334 128.556 152.998 128.556C152.758 128.556 152.53 128.516 152.314 128.436C152.106 128.348 151.938 128.22 151.81 128.052C151.682 127.876 151.618 127.652 151.618 127.38ZM151.774 124.572C151.886 124.476 152.022 124.376 152.182 124.272C152.35 124.168 152.542 124.084 152.758 124.02C152.974 123.948 153.214 123.912 153.478 123.912C153.862 123.912 154.17 124.016 154.402 124.224C154.642 124.424 154.762 124.712 154.762 125.088V129H155.386V125.088C155.386 124.728 155.31 124.42 155.158 124.164C155.006 123.908 154.786 123.712 154.498 123.576C154.218 123.432 153.878 123.36 153.478 123.36C153.006 123.36 152.602 123.44 152.266 123.6C151.938 123.76 151.67 123.924 151.462 124.092L151.774 124.572ZM161.798 123.48H157.394V127.08C157.394 127.544 157.306 127.884 157.13 128.1C156.962 128.316 156.758 128.424 156.518 128.424V129C156.838 129 157.11 128.932 157.334 128.796C157.558 128.652 157.726 128.44 157.838 128.16C157.958 127.872 158.018 127.512 158.018 127.08V124.068H161.174V129H161.798V123.48ZM167.946 124.02L168.006 123.06L163.782 128.46L163.722 129.42L167.946 124.02ZM164.346 123.48H163.722V129.42L164.346 128.532V123.48ZM168.006 123.06L167.382 123.948V129H168.006V123.06ZM175.835 123.948C176.259 123.948 176.635 124.044 176.963 124.236C177.299 124.428 177.563 124.7 177.755 125.052C177.955 125.396 178.055 125.792 178.055 126.24C178.055 126.688 177.955 127.084 177.755 127.428C177.555 127.772 177.287 128.044 176.951 128.244C176.615 128.436 176.243 128.532 175.835 128.532C175.427 128.532 175.059 128.436 174.731 128.244C174.403 128.044 174.139 127.772 173.939 127.428C173.747 127.084 173.651 126.688 173.651 126.24L172.979 125.52C172.979 126.312 173.103 126.976 173.351 127.512C173.607 128.048 173.951 128.452 174.383 128.724C174.815 128.988 175.299 129.12 175.835 129.12C176.379 129.12 176.863 128.996 177.287 128.748C177.719 128.5 178.059 128.16 178.307 127.728C178.563 127.288 178.691 126.792 178.691 126.24C178.691 125.68 178.563 125.184 178.307 124.752C178.059 124.32 177.719 123.98 177.287 123.732C176.863 123.484 176.379 123.36 175.835 123.36V123.948ZM173.339 126.24H173.651C173.651 125.872 173.715 125.548 173.843 125.268C173.979 124.98 174.155 124.74 174.371 124.548C174.587 124.356 174.823 124.208 175.079 124.104C175.343 124 175.595 123.948 175.835 123.948V123.36C175.499 123.36 175.179 123.428 174.875 123.564C174.579 123.692 174.315 123.88 174.083 124.128C173.851 124.376 173.667 124.68 173.531 125.04C173.403 125.392 173.339 125.792 173.339 126.24ZM172.979 125.52L173.531 126.192V125.208C173.531 124.64 173.591 124.12 173.711 123.648C173.839 123.176 174.055 122.768 174.359 122.424C174.671 122.08 175.095 121.82 175.631 121.644C176.047 121.5 176.407 121.332 176.711 121.14C177.023 120.94 177.271 120.716 177.455 120.468C177.639 120.212 177.747 119.936 177.779 119.64H177.167C177.111 119.928 176.951 120.204 176.687 120.468C176.423 120.724 176.019 120.944 175.475 121.128C174.835 121.344 174.331 121.656 173.963 122.064C173.595 122.464 173.339 122.952 173.195 123.528C173.051 124.104 172.979 124.768 172.979 125.52ZM184.869 123.48V129H185.493V123.48H184.869ZM180.009 123.48V129H180.633V123.48H180.009ZM180.357 126.12H181.953C182.377 126.12 182.713 126.22 182.961 126.42C183.217 126.612 183.345 126.9 183.345 127.284C183.345 127.548 183.285 127.768 183.165 127.944C183.053 128.112 182.893 128.24 182.685 128.328C182.477 128.408 182.233 128.448 181.953 128.448H180.357V129H181.953C182.337 129 182.681 128.94 182.985 128.82C183.289 128.7 183.529 128.512 183.705 128.256C183.881 128 183.969 127.676 183.969 127.284C183.969 126.692 183.773 126.26 183.381 125.988C182.997 125.708 182.521 125.568 181.953 125.568H180.357V126.12ZM29.064 140.48H24.9V146H25.524V141.068H28.44V146H29.064V140.48ZM31.4768 148.64V140.48H30.8528V148.64H31.4768ZM36.1928 143.24C36.1928 142.64 36.0728 142.128 35.8328 141.704C35.6008 141.272 35.2808 140.94 34.8728 140.708C34.4728 140.476 34.0248 140.36 33.5288 140.36C33.0648 140.36 32.6568 140.488 32.3048 140.744C31.9528 140.992 31.6768 141.332 31.4768 141.764C31.2848 142.196 31.1888 142.688 31.1888 143.24C31.1888 143.784 31.2848 144.276 31.4768 144.716C31.6768 145.148 31.9528 145.492 32.3048 145.748C32.6568 145.996 33.0648 146.12 33.5288 146.12C34.0248 146.12 34.4728 146.004 34.8728 145.772C35.2808 145.54 35.6008 145.208 35.8328 144.776C36.0728 144.344 36.1928 143.832 36.1928 143.24ZM35.5688 143.24C35.5688 143.72 35.4728 144.132 35.2808 144.476C35.0888 144.82 34.8328 145.084 34.5128 145.268C34.1928 145.444 33.8368 145.532 33.4448 145.532C33.1088 145.532 32.7888 145.432 32.4848 145.232C32.1808 145.032 31.9368 144.76 31.7528 144.416C31.5688 144.072 31.4768 143.68 31.4768 143.24C31.4768 142.8 31.5688 142.408 31.7528 142.064C31.9368 141.72 32.1808 141.448 32.4848 141.248C32.7888 141.048 33.1088 140.948 33.4448 140.948C33.8368 140.948 34.1928 141.04 34.5128 141.224C34.8328 141.4 35.0888 141.66 35.2808 142.004C35.4728 142.348 35.5688 142.76 35.5688 143.24ZM41.9926 141.02L42.0526 140.06L37.8286 145.46L37.7686 146.42L41.9926 141.02ZM38.3926 140.48H37.7686V146.42L38.3926 145.532V140.48ZM42.0526 140.06L41.4286 140.948V146H42.0526V140.06ZM48.4078 140.48H44.0038V144.08C44.0038 144.544 43.9158 144.884 43.7398 145.1C43.5718 145.316 43.3678 145.424 43.1278 145.424V146C43.4478 146 43.7198 145.932 43.9438 145.796C44.1678 145.652 44.3358 145.44 44.4478 145.16C44.5678 144.872 44.6278 144.512 44.6278 144.08V141.068H47.7838V146H48.4078V140.48ZM49.8391 143.24C49.8391 143.792 49.9631 144.288 50.2111 144.728C50.4591 145.16 50.7951 145.5 51.2191 145.748C51.6511 145.996 52.1351 146.12 52.6711 146.12C53.2071 146.12 53.6871 145.996 54.1111 145.748C54.5431 145.5 54.8831 145.16 55.1311 144.728C55.3791 144.288 55.5031 143.792 55.5031 143.24C55.5031 142.68 55.3791 142.184 55.1311 141.752C54.8831 141.32 54.5431 140.98 54.1111 140.732C53.6871 140.484 53.2071 140.36 52.6711 140.36C52.1351 140.36 51.6511 140.484 51.2191 140.732C50.7951 140.98 50.4591 141.32 50.2111 141.752C49.9631 142.184 49.8391 142.68 49.8391 143.24ZM50.4751 143.24C50.4751 142.792 50.5711 142.396 50.7631 142.052C50.9551 141.708 51.2151 141.44 51.5431 141.248C51.8791 141.048 52.2551 140.948 52.6711 140.948C53.0871 140.948 53.4591 141.048 53.7871 141.248C54.1231 141.44 54.3871 141.712 54.5791 142.064C54.7711 142.408 54.8671 142.8 54.8671 143.24C54.8671 143.688 54.7711 144.084 54.5791 144.428C54.3871 144.772 54.1231 145.044 53.7871 145.244C53.4591 145.436 53.0871 145.532 52.6711 145.532C52.2551 145.532 51.8791 145.436 51.5431 145.244C51.2151 145.044 50.9551 144.772 50.7631 144.428C50.5711 144.084 50.4751 143.688 50.4751 143.24ZM61.7101 140.48L59.4061 142.76L61.9501 146H62.7421L60.1141 142.832L62.5021 140.48H61.7101ZM59.5621 140.48H58.9741V146H59.5621V140.48ZM56.8141 140.48H56.0341L58.4101 142.832L55.7941 146H56.5741L59.1301 142.76L56.8141 140.48ZM63.4773 143.396H68.2413C68.2493 143.348 68.2533 143.3 68.2533 143.252C68.2613 143.196 68.2653 143.144 68.2653 143.096C68.2653 142.544 68.1533 142.064 67.9293 141.656C67.7133 141.248 67.4133 140.932 67.0293 140.708C66.6453 140.476 66.2133 140.36 65.7333 140.36C65.2933 140.36 64.8933 140.452 64.5333 140.636C64.1733 140.812 63.8773 141.064 63.6453 141.392C63.4133 141.712 63.2493 142.084 63.1533 142.508C63.1293 142.628 63.1093 142.748 63.0933 142.868C63.0853 142.98 63.0813 143.1 63.0813 143.228C63.0813 143.78 63.1933 144.276 63.4173 144.716C63.6413 145.156 63.9453 145.5 64.3293 145.748C64.7213 145.996 65.1573 146.12 65.6373 146.12C66.1253 146.12 66.5253 146.056 66.8373 145.928C67.1493 145.792 67.4093 145.62 67.6173 145.412C67.8253 145.196 68.0093 144.964 68.1693 144.716L67.6653 144.392C67.5453 144.592 67.3973 144.78 67.2213 144.956C67.0533 145.124 66.8453 145.264 66.5973 145.376C66.3573 145.48 66.0613 145.532 65.7093 145.532C65.3173 145.532 64.9693 145.44 64.6653 145.256C64.3693 145.064 64.1373 144.796 63.9693 144.452C63.8013 144.1 63.7173 143.692 63.7173 143.228L63.7293 143.012C63.7293 142.58 63.8213 142.208 64.0053 141.896C64.1893 141.576 64.4333 141.332 64.7373 141.164C65.0413 140.996 65.3733 140.912 65.7333 140.912C66.0933 140.912 66.4093 140.996 66.6813 141.164C66.9613 141.332 67.1813 141.564 67.3413 141.86C67.5013 142.148 67.5813 142.48 67.5813 142.856H63.4773V143.396ZM70.0611 143.372H74.0931V142.784H70.0611V143.372ZM73.7091 140.48V146H74.3331V140.48H73.7091ZM69.6891 140.48V146H70.3131V140.48H69.6891ZM80.4184 141.02L80.4784 140.06L76.2544 145.46L76.1944 146.42L80.4184 141.02ZM76.8184 140.48H76.1944V146.42L76.8184 145.532V140.48ZM80.4784 140.06L79.8544 140.948V146H80.4784V140.06ZM82.2976 143.396H87.0616C87.0696 143.348 87.0736 143.3 87.0736 143.252C87.0816 143.196 87.0856 143.144 87.0856 143.096C87.0856 142.544 86.9736 142.064 86.7496 141.656C86.5336 141.248 86.2336 140.932 85.8496 140.708C85.4656 140.476 85.0336 140.36 84.5536 140.36C84.1136 140.36 83.7136 140.452 83.3536 140.636C82.9936 140.812 82.6976 141.064 82.4656 141.392C82.2336 141.712 82.0696 142.084 81.9736 142.508C81.9496 142.628 81.9296 142.748 81.9136 142.868C81.9056 142.98 81.9016 143.1 81.9016 143.228C81.9016 143.78 82.0136 144.276 82.2376 144.716C82.4616 145.156 82.7656 145.5 83.1496 145.748C83.5416 145.996 83.9776 146.12 84.4576 146.12C84.9456 146.12 85.3456 146.056 85.6576 145.928C85.9696 145.792 86.2296 145.62 86.4376 145.412C86.6456 145.196 86.8296 144.964 86.9896 144.716L86.4856 144.392C86.3656 144.592 86.2176 144.78 86.0416 144.956C85.8736 145.124 85.6656 145.264 85.4176 145.376C85.1776 145.48 84.8816 145.532 84.5296 145.532C84.1376 145.532 83.7896 145.44 83.4856 145.256C83.1896 145.064 82.9576 144.796 82.7896 144.452C82.6216 144.1 82.5376 143.692 82.5376 143.228L82.5496 143.012C82.5496 142.58 82.6416 142.208 82.8256 141.896C83.0096 141.576 83.2536 141.332 83.5576 141.164C83.8616 140.996 84.1936 140.912 84.5536 140.912C84.9136 140.912 85.2296 140.996 85.5016 141.164C85.7816 141.332 86.0016 141.564 86.1616 141.86C86.3216 142.148 86.4016 142.48 86.4016 142.856H82.2976V143.396ZM88.9197 144.752L87.7797 147.836L88.2237 147.992L89.5437 144.992L88.9197 144.752ZM99.2124 140.48H95.0484V146H95.6724V141.068H98.5884V146H99.2124V140.48ZM100.581 143.24C100.581 143.792 100.705 144.288 100.953 144.728C101.201 145.16 101.537 145.5 101.961 145.748C102.393 145.996 102.877 146.12 103.413 146.12C103.949 146.12 104.429 145.996 104.853 145.748C105.285 145.5 105.625 145.16 105.873 144.728C106.121 144.288 106.245 143.792 106.245 143.24C106.245 142.68 106.121 142.184 105.873 141.752C105.625 141.32 105.285 140.98 104.853 140.732C104.429 140.484 103.949 140.36 103.413 140.36C102.877 140.36 102.393 140.484 101.961 140.732C101.537 140.98 101.201 141.32 100.953 141.752C100.705 142.184 100.581 142.68 100.581 143.24ZM101.217 143.24C101.217 142.792 101.313 142.396 101.505 142.052C101.697 141.708 101.957 141.44 102.285 141.248C102.621 141.048 102.997 140.948 103.413 140.948C103.829 140.948 104.201 141.048 104.529 141.248C104.865 141.44 105.129 141.712 105.321 142.064C105.513 142.408 105.609 142.8 105.609 143.24C105.609 143.688 105.513 144.084 105.321 144.428C105.129 144.772 104.865 145.044 104.529 145.244C104.201 145.436 103.829 145.532 103.413 145.532C102.997 145.532 102.621 145.436 102.285 145.244C101.957 145.044 101.697 144.772 101.505 144.428C101.313 144.084 101.217 143.688 101.217 143.24ZM107.552 140.48V146H108.176V140.48H107.552ZM110.54 140.48L107.948 142.76L110.78 146H111.572L108.74 142.76L111.344 140.48H110.54ZM112.993 144.38C112.993 144.1 113.065 143.864 113.209 143.672C113.353 143.48 113.549 143.336 113.797 143.24C114.053 143.136 114.341 143.084 114.661 143.084C115.037 143.084 115.361 143.136 115.633 143.24C115.913 143.336 116.165 143.468 116.389 143.636V143.252C116.325 143.18 116.217 143.092 116.065 142.988C115.921 142.884 115.729 142.792 115.489 142.712C115.257 142.632 114.973 142.592 114.637 142.592C114.205 142.592 113.817 142.664 113.473 142.808C113.129 142.944 112.857 143.148 112.657 143.42C112.457 143.684 112.357 144.012 112.357 144.404C112.357 144.796 112.445 145.12 112.621 145.376C112.797 145.624 113.025 145.812 113.305 145.94C113.593 146.06 113.901 146.12 114.229 146.12C114.621 146.12 114.969 146.044 115.273 145.892C115.585 145.732 115.829 145.516 116.005 145.244C116.189 144.964 116.281 144.648 116.281 144.296L116.137 143.936C116.137 144.28 116.061 144.572 115.909 144.812C115.757 145.052 115.545 145.236 115.273 145.364C115.009 145.492 114.709 145.556 114.373 145.556C114.133 145.556 113.905 145.516 113.689 145.436C113.481 145.348 113.313 145.22 113.185 145.052C113.057 144.876 112.993 144.652 112.993 144.38ZM113.149 141.572C113.261 141.476 113.397 141.376 113.557 141.272C113.725 141.168 113.917 141.084 114.133 141.02C114.349 140.948 114.589 140.912 114.853 140.912C115.237 140.912 115.545 141.016 115.777 141.224C116.017 141.424 116.137 141.712 116.137 142.088V146H116.761V142.088C116.761 141.728 116.685 141.42 116.533 141.164C116.381 140.908 116.161 140.712 115.873 140.576C115.593 140.432 115.253 140.36 114.853 140.36C114.381 140.36 113.977 140.44 113.641 140.6C113.313 140.76 113.045 140.924 112.837 141.092L113.149 141.572ZM120.701 143.18C121.333 143.18 121.817 143.052 122.153 142.796C122.497 142.54 122.669 142.212 122.669 141.812C122.669 141.532 122.585 141.284 122.417 141.068C122.257 140.852 122.037 140.68 121.757 140.552C121.477 140.424 121.161 140.36 120.809 140.36C120.433 140.36 120.089 140.436 119.777 140.588C119.473 140.74 119.229 140.944 119.045 141.2C118.869 141.456 118.781 141.736 118.781 142.04H119.417C119.417 141.864 119.469 141.692 119.573 141.524C119.685 141.348 119.845 141.204 120.053 141.092C120.261 140.98 120.509 140.924 120.797 140.924C121.165 140.924 121.461 141.008 121.685 141.176C121.917 141.344 122.033 141.572 122.033 141.86C122.033 142.132 121.921 142.356 121.697 142.532C121.473 142.7 121.141 142.784 120.701 142.784V143.18ZM120.773 146.12C121.149 146.12 121.501 146.056 121.829 145.928C122.157 145.792 122.417 145.596 122.609 145.34C122.809 145.084 122.909 144.776 122.909 144.416C122.909 143.92 122.713 143.552 122.321 143.312C121.937 143.064 121.397 142.94 120.701 142.94V143.336C121.013 143.336 121.289 143.376 121.529 143.456C121.769 143.536 121.957 143.656 122.093 143.816C122.229 143.976 122.297 144.18 122.297 144.428C122.297 144.676 122.225 144.884 122.081 145.052C121.945 145.22 121.761 145.348 121.529 145.436C121.305 145.524 121.053 145.568 120.773 145.568C120.269 145.568 119.885 145.44 119.621 145.184C119.357 144.92 119.197 144.612 119.141 144.26H118.505C118.569 144.796 118.801 145.24 119.201 145.592C119.601 145.944 120.125 146.12 120.773 146.12ZM129.205 140.48V146H129.829V140.48H129.205ZM124.345 140.48V146H124.969V140.48H124.345ZM124.693 143.12H126.289C126.713 143.12 127.049 143.22 127.297 143.42C127.553 143.612 127.681 143.9 127.681 144.284C127.681 144.548 127.621 144.768 127.501 144.944C127.389 145.112 127.229 145.24 127.021 145.328C126.813 145.408 126.569 145.448 126.289 145.448H124.693V146H126.289C126.673 146 127.017 145.94 127.321 145.82C127.625 145.7 127.865 145.512 128.041 145.256C128.217 145 128.305 144.676 128.305 144.284C128.305 143.692 128.109 143.26 127.717 142.988C127.333 142.708 126.857 142.568 126.289 142.568H124.693V143.12ZM131.994 143.168V143.492H133.59C133.774 143.492 133.95 143.508 134.118 143.54C134.286 143.572 134.434 143.624 134.562 143.696C134.69 143.768 134.79 143.864 134.862 143.984C134.942 144.096 134.982 144.244 134.982 144.428C134.982 144.708 134.878 144.948 134.67 145.148C134.47 145.348 134.142 145.448 133.686 145.448H131.994V146H133.83C134.462 146 134.914 145.856 135.186 145.568C135.466 145.272 135.606 144.916 135.606 144.5C135.606 144.14 135.518 143.864 135.342 143.672C135.166 143.48 134.926 143.348 134.622 143.276C134.318 143.204 133.974 143.168 133.59 143.168H131.994ZM131.994 143.312H133.47C133.814 143.312 134.126 143.268 134.406 143.18C134.694 143.084 134.926 142.94 135.102 142.748C135.278 142.548 135.366 142.292 135.366 141.98C135.366 141.62 135.278 141.332 135.102 141.116C134.926 140.892 134.694 140.732 134.406 140.636C134.126 140.532 133.814 140.48 133.47 140.48H131.994V141.032H133.47C133.846 141.032 134.15 141.116 134.382 141.284C134.622 141.452 134.742 141.696 134.742 142.016C134.742 142.184 134.702 142.328 134.622 142.448C134.55 142.56 134.45 142.656 134.322 142.736C134.202 142.816 134.066 142.872 133.914 142.904C133.762 142.936 133.614 142.952 133.47 142.952H131.994V143.312ZM131.634 140.48V146H132.258V140.48H131.634ZM137.005 144.38C137.005 144.1 137.077 143.864 137.221 143.672C137.365 143.48 137.561 143.336 137.809 143.24C138.065 143.136 138.353 143.084 138.673 143.084C139.049 143.084 139.373 143.136 139.645 143.24C139.925 143.336 140.177 143.468 140.401 143.636V143.252C140.337 143.18 140.229 143.092 140.077 142.988C139.933 142.884 139.741 142.792 139.501 142.712C139.269 142.632 138.985 142.592 138.649 142.592C138.217 142.592 137.829 142.664 137.485 142.808C137.141 142.944 136.869 143.148 136.669 143.42C136.469 143.684 136.369 144.012 136.369 144.404C136.369 144.796 136.457 145.12 136.633 145.376C136.809 145.624 137.037 145.812 137.317 145.94C137.605 146.06 137.913 146.12 138.241 146.12C138.633 146.12 138.981 146.044 139.285 145.892C139.597 145.732 139.841 145.516 140.017 145.244C140.201 144.964 140.293 144.648 140.293 144.296L140.149 143.936C140.149 144.28 140.073 144.572 139.921 144.812C139.769 145.052 139.557 145.236 139.285 145.364C139.021 145.492 138.721 145.556 138.385 145.556C138.145 145.556 137.917 145.516 137.701 145.436C137.493 145.348 137.325 145.22 137.197 145.052C137.069 144.876 137.005 144.652 137.005 144.38ZM137.161 141.572C137.273 141.476 137.409 141.376 137.569 141.272C137.737 141.168 137.929 141.084 138.145 141.02C138.361 140.948 138.601 140.912 138.865 140.912C139.249 140.912 139.557 141.016 139.789 141.224C140.029 141.424 140.149 141.712 140.149 142.088V146H140.773V142.088C140.773 141.728 140.697 141.42 140.545 141.164C140.393 140.908 140.173 140.712 139.885 140.576C139.605 140.432 139.265 140.36 138.865 140.36C138.393 140.36 137.989 140.44 137.653 140.6C137.325 140.76 137.057 140.924 136.849 141.092L137.161 141.572ZM143.057 143.396H145.097V142.808H143.057V143.396ZM142.685 140.48V146H143.309V140.48H142.685ZM144.653 143.24C144.653 143.792 144.777 144.288 145.025 144.728C145.273 145.16 145.613 145.5 146.045 145.748C146.477 145.996 146.957 146.12 147.485 146.12C148.021 146.12 148.501 145.996 148.925 145.748C149.349 145.5 149.685 145.16 149.933 144.728C150.189 144.288 150.317 143.792 150.317 143.24C150.317 142.68 150.189 142.184 149.933 141.752C149.685 141.32 149.349 140.98 148.925 140.732C148.501 140.484 148.021 140.36 147.485 140.36C146.949 140.36 146.465 140.484 146.033 140.732C145.609 140.98 145.273 141.32 145.025 141.752C144.777 142.184 144.653 142.68 144.653 143.24ZM145.289 143.24C145.289 142.792 145.385 142.396 145.577 142.052C145.769 141.708 146.029 141.44 146.357 141.248C146.693 141.048 147.069 140.948 147.485 140.948C147.901 140.948 148.273 141.048 148.601 141.248C148.937 141.44 149.201 141.712 149.393 142.064C149.585 142.408 149.681 142.8 149.681 143.24C149.681 143.688 149.585 144.084 149.393 144.428C149.201 144.772 148.937 145.044 148.601 145.244C148.273 145.436 147.901 145.532 147.485 145.532C147.069 145.532 146.693 145.436 146.357 145.244C146.029 145.044 145.769 144.772 145.577 144.428C145.385 144.084 145.289 143.688 145.289 143.24ZM155.609 145.412V140.48H154.985V145.412H152.309V140.48H151.685V146H159.317V147.08H159.869V145.412H158.909V140.48H158.285V145.412H155.609ZM161.153 143.396H165.917C165.925 143.348 165.929 143.3 165.929 143.252C165.937 143.196 165.941 143.144 165.941 143.096C165.941 142.544 165.829 142.064 165.605 141.656C165.389 141.248 165.089 140.932 164.705 140.708C164.321 140.476 163.889 140.36 163.409 140.36C162.969 140.36 162.569 140.452 162.209 140.636C161.849 140.812 161.553 141.064 161.321 141.392C161.089 141.712 160.925 142.084 160.829 142.508C160.805 142.628 160.785 142.748 160.769 142.868C160.761 142.98 160.757 143.1 160.757 143.228C160.757 143.78 160.869 144.276 161.093 144.716C161.317 145.156 161.621 145.5 162.005 145.748C162.397 145.996 162.833 146.12 163.313 146.12C163.801 146.12 164.201 146.056 164.513 145.928C164.825 145.792 165.085 145.62 165.293 145.412C165.501 145.196 165.685 144.964 165.845 144.716L165.341 144.392C165.221 144.592 165.073 144.78 164.897 144.956C164.729 145.124 164.521 145.264 164.273 145.376C164.033 145.48 163.737 145.532 163.385 145.532C162.993 145.532 162.645 145.44 162.341 145.256C162.045 145.064 161.813 144.796 161.645 144.452C161.477 144.1 161.393 143.692 161.393 143.228L161.405 143.012C161.405 142.58 161.497 142.208 161.681 141.896C161.865 141.576 162.109 141.332 162.413 141.164C162.717 140.996 163.049 140.912 163.409 140.912C163.769 140.912 164.085 140.996 164.357 141.164C164.637 141.332 164.857 141.564 165.017 141.86C165.177 142.148 165.257 142.48 165.257 142.856H161.153V143.396ZM167.329 143.396H172.093C172.101 143.348 172.105 143.3 172.105 143.252C172.113 143.196 172.117 143.144 172.117 143.096C172.117 142.544 172.005 142.064 171.781 141.656C171.565 141.248 171.265 140.932 170.881 140.708C170.497 140.476 170.065 140.36 169.585 140.36C169.145 140.36 168.745 140.452 168.385 140.636C168.025 140.812 167.729 141.064 167.497 141.392C167.265 141.712 167.101 142.084 167.005 142.508C166.981 142.628 166.961 142.748 166.945 142.868C166.937 142.98 166.933 143.1 166.933 143.228C166.933 143.78 167.045 144.276 167.269 144.716C167.493 145.156 167.797 145.5 168.181 145.748C168.573 145.996 169.009 146.12 169.489 146.12C169.977 146.12 170.377 146.056 170.689 145.928C171.001 145.792 171.261 145.62 171.469 145.412C171.677 145.196 171.861 144.964 172.021 144.716L171.517 144.392C171.397 144.592 171.249 144.78 171.073 144.956C170.905 145.124 170.697 145.264 170.449 145.376C170.209 145.48 169.913 145.532 169.561 145.532C169.169 145.532 168.821 145.44 168.517 145.256C168.221 145.064 167.989 144.796 167.821 144.452C167.653 144.1 167.569 143.692 167.569 143.228L167.581 143.012C167.581 142.58 167.673 142.208 167.857 141.896C168.041 141.576 168.285 141.332 168.589 141.164C168.893 140.996 169.225 140.912 169.585 140.912C169.945 140.912 170.261 140.996 170.533 141.164C170.813 141.332 171.033 141.564 171.193 141.86C171.353 142.148 171.433 142.48 171.433 142.856H167.329V143.396ZM25.044 160.24C25.044 159.792 25.14 159.396 25.332 159.052C25.524 158.708 25.784 158.44 26.112 158.248C26.448 158.048 26.824 157.948 27.24 157.948C27.536 157.948 27.812 157.992 28.068 158.08C28.324 158.168 28.544 158.28 28.728 158.416C28.92 158.552 29.056 158.696 29.136 158.848V158.068C28.968 157.876 28.708 157.712 28.356 157.576C28.012 157.432 27.64 157.36 27.24 157.36C26.704 157.36 26.224 157.484 25.8 157.732C25.376 157.98 25.036 158.32 24.78 158.752C24.532 159.184 24.408 159.68 24.408 160.24C24.408 160.792 24.532 161.288 24.78 161.728C25.036 162.16 25.376 162.5 25.8 162.748C26.224 162.996 26.704 163.12 27.24 163.12C27.64 163.12 28.012 163.052 28.356 162.916C28.708 162.78 28.968 162.612 29.136 162.412V161.632C29.056 161.776 28.92 161.92 28.728 162.064C28.544 162.2 28.324 162.312 28.068 162.4C27.812 162.488 27.536 162.532 27.24 162.532C26.824 162.532 26.448 162.436 26.112 162.244C25.784 162.044 25.524 161.772 25.332 161.428C25.14 161.084 25.044 160.688 25.044 160.24ZM30.9905 160.168V160.492H32.5865C32.7705 160.492 32.9465 160.508 33.1145 160.54C33.2825 160.572 33.4305 160.624 33.5585 160.696C33.6865 160.768 33.7865 160.864 33.8585 160.984C33.9385 161.096 33.9785 161.244 33.9785 161.428C33.9785 161.708 33.8745 161.948 33.6665 162.148C33.4665 162.348 33.1385 162.448 32.6825 162.448H30.9905V163H32.8265C33.4585 163 33.9105 162.856 34.1825 162.568C34.4625 162.272 34.6025 161.916 34.6025 161.5C34.6025 161.14 34.5145 160.864 34.3385 160.672C34.1625 160.48 33.9225 160.348 33.6185 160.276C33.3145 160.204 32.9705 160.168 32.5865 160.168H30.9905ZM30.9905 160.312H32.4665C32.8105 160.312 33.1225 160.268 33.4025 160.18C33.6905 160.084 33.9225 159.94 34.0985 159.748C34.2745 159.548 34.3625 159.292 34.3625 158.98C34.3625 158.62 34.2745 158.332 34.0985 158.116C33.9225 157.892 33.6905 157.732 33.4025 157.636C33.1225 157.532 32.8105 157.48 32.4665 157.48H30.9905V158.032H32.4665C32.8425 158.032 33.1465 158.116 33.3785 158.284C33.6185 158.452 33.7385 158.696 33.7385 159.016C33.7385 159.184 33.6985 159.328 33.6185 159.448C33.5465 159.56 33.4465 159.656 33.3185 159.736C33.1985 159.816 33.0625 159.872 32.9105 159.904C32.7585 159.936 32.6105 159.952 32.4665 159.952H30.9905V160.312ZM30.6305 157.48V163H31.2545V157.48H30.6305ZM35.425 160.24C35.425 160.792 35.549 161.288 35.797 161.728C36.045 162.16 36.381 162.5 36.805 162.748C37.237 162.996 37.721 163.12 38.257 163.12C38.793 163.12 39.273 162.996 39.697 162.748C40.129 162.5 40.469 162.16 40.717 161.728C40.965 161.288 41.089 160.792 41.089 160.24C41.089 159.68 40.965 159.184 40.717 158.752C40.469 158.32 40.129 157.98 39.697 157.732C39.273 157.484 38.793 157.36 38.257 157.36C37.721 157.36 37.237 157.484 36.805 157.732C36.381 157.98 36.045 158.32 35.797 158.752C35.549 159.184 35.425 159.68 35.425 160.24ZM36.061 160.24C36.061 159.792 36.157 159.396 36.349 159.052C36.541 158.708 36.801 158.44 37.129 158.248C37.465 158.048 37.841 157.948 38.257 157.948C38.673 157.948 39.045 158.048 39.373 158.248C39.709 158.44 39.973 158.712 40.165 159.064C40.357 159.408 40.453 159.8 40.453 160.24C40.453 160.688 40.357 161.084 40.165 161.428C39.973 161.772 39.709 162.044 39.373 162.244C39.045 162.436 38.673 162.532 38.257 162.532C37.841 162.532 37.465 162.436 37.129 162.244C36.801 162.044 36.541 161.772 36.349 161.428C36.157 161.084 36.061 160.688 36.061 160.24ZM44.7838 157.948C45.2078 157.948 45.5838 158.044 45.9118 158.236C46.2478 158.428 46.5118 158.7 46.7038 159.052C46.9038 159.396 47.0038 159.792 47.0038 160.24C47.0038 160.688 46.9038 161.084 46.7038 161.428C46.5038 161.772 46.2358 162.044 45.8998 162.244C45.5638 162.436 45.1918 162.532 44.7838 162.532C44.3758 162.532 44.0078 162.436 43.6798 162.244C43.3518 162.044 43.0878 161.772 42.8878 161.428C42.6958 161.084 42.5998 160.688 42.5998 160.24L41.9278 159.52C41.9278 160.312 42.0518 160.976 42.2998 161.512C42.5558 162.048 42.8998 162.452 43.3318 162.724C43.7638 162.988 44.2478 163.12 44.7838 163.12C45.3278 163.12 45.8118 162.996 46.2358 162.748C46.6678 162.5 47.0078 162.16 47.2558 161.728C47.5118 161.288 47.6398 160.792 47.6398 160.24C47.6398 159.68 47.5118 159.184 47.2558 158.752C47.0078 158.32 46.6678 157.98 46.2358 157.732C45.8118 157.484 45.3278 157.36 44.7838 157.36V157.948ZM42.2878 160.24H42.5998C42.5998 159.872 42.6638 159.548 42.7918 159.268C42.9278 158.98 43.1038 158.74 43.3198 158.548C43.5358 158.356 43.7718 158.208 44.0278 158.104C44.2918 158 44.5438 157.948 44.7838 157.948V157.36C44.4478 157.36 44.1278 157.428 43.8238 157.564C43.5278 157.692 43.2638 157.88 43.0318 158.128C42.7998 158.376 42.6158 158.68 42.4798 159.04C42.3518 159.392 42.2878 159.792 42.2878 160.24ZM41.9278 159.52L42.4798 160.192V159.208C42.4798 158.64 42.5398 158.12 42.6598 157.648C42.7878 157.176 43.0038 156.768 43.3078 156.424C43.6198 156.08 44.0438 155.82 44.5798 155.644C44.9958 155.5 45.3558 155.332 45.6598 155.14C45.9718 154.94 46.2198 154.716 46.4038 154.468C46.5878 154.212 46.6958 153.936 46.7278 153.64H46.1158C46.0598 153.928 45.8998 154.204 45.6358 154.468C45.3718 154.724 44.9678 154.944 44.4238 155.128C43.7838 155.344 43.2798 155.656 42.9118 156.064C42.5438 156.464 42.2878 156.952 42.1438 157.528C41.9998 158.104 41.9278 158.768 41.9278 159.52ZM48.5266 160.24C48.5266 160.792 48.6506 161.288 48.8986 161.728C49.1466 162.16 49.4826 162.5 49.9066 162.748C50.3386 162.996 50.8226 163.12 51.3586 163.12C51.8946 163.12 52.3746 162.996 52.7986 162.748C53.2306 162.5 53.5706 162.16 53.8186 161.728C54.0666 161.288 54.1906 160.792 54.1906 160.24C54.1906 159.68 54.0666 159.184 53.8186 158.752C53.5706 158.32 53.2306 157.98 52.7986 157.732C52.3746 157.484 51.8946 157.36 51.3586 157.36C50.8226 157.36 50.3386 157.484 49.9066 157.732C49.4826 157.98 49.1466 158.32 48.8986 158.752C48.6506 159.184 48.5266 159.68 48.5266 160.24ZM49.1626 160.24C49.1626 159.792 49.2586 159.396 49.4506 159.052C49.6426 158.708 49.9026 158.44 50.2306 158.248C50.5666 158.048 50.9426 157.948 51.3586 157.948C51.7746 157.948 52.1466 158.048 52.4746 158.248C52.8106 158.44 53.0746 158.712 53.2666 159.064C53.4586 159.408 53.5546 159.8 53.5546 160.24C53.5546 160.688 53.4586 161.084 53.2666 161.428C53.0746 161.772 52.8106 162.044 52.4746 162.244C52.1466 162.436 51.7746 162.532 51.3586 162.532C50.9426 162.532 50.5666 162.436 50.2306 162.244C49.9026 162.044 49.6426 161.772 49.4506 161.428C49.2586 161.084 49.1626 160.688 49.1626 160.24ZM57.9117 158.428L59.9157 162.736H60.6117L57.9117 157.06L55.2117 162.736H55.9077L57.9117 158.428ZM60.7077 163V164.08H61.3317V162.412H54.4917V164.08H55.1517V163H60.7077ZM63.147 160.372H67.179V159.784H63.147V160.372ZM66.795 157.48V163H67.419V157.48H66.795ZM62.775 157.48V163H63.399V157.48H62.775ZM74.0803 157.48V163H74.7043V157.48H74.0803ZM69.2203 157.48V163H69.8443V157.48H69.2203ZM69.5683 160.12H71.1643C71.5883 160.12 71.9243 160.22 72.1723 160.42C72.4283 160.612 72.5563 160.9 72.5563 161.284C72.5563 161.548 72.4963 161.768 72.3763 161.944C72.2643 162.112 72.1043 162.24 71.8963 162.328C71.6883 162.408 71.4443 162.448 71.1643 162.448H69.5683V163H71.1643C71.5483 163 71.8923 162.94 72.1963 162.82C72.5003 162.7 72.7403 162.512 72.9163 162.256C73.0923 162 73.1803 161.676 73.1803 161.284C73.1803 160.692 72.9843 160.26 72.5923 159.988C72.2083 159.708 71.7323 159.568 71.1643 159.568H69.5683V160.12ZM76.4734 160.396H81.2374C81.2454 160.348 81.2494 160.3 81.2494 160.252C81.2574 160.196 81.2614 160.144 81.2614 160.096C81.2614 159.544 81.1494 159.064 80.9254 158.656C80.7094 158.248 80.4094 157.932 80.0254 157.708C79.6414 157.476 79.2094 157.36 78.7294 157.36C78.2894 157.36 77.8894 157.452 77.5294 157.636C77.1694 157.812 76.8734 158.064 76.6414 158.392C76.4094 158.712 76.2454 159.084 76.1494 159.508C76.1254 159.628 76.1054 159.748 76.0894 159.868C76.0814 159.98 76.0774 160.1 76.0774 160.228C76.0774 160.78 76.1894 161.276 76.4134 161.716C76.6374 162.156 76.9414 162.5 77.3254 162.748C77.7174 162.996 78.1534 163.12 78.6334 163.12C79.1214 163.12 79.5214 163.056 79.8334 162.928C80.1454 162.792 80.4054 162.62 80.6134 162.412C80.8214 162.196 81.0054 161.964 81.1654 161.716L80.6614 161.392C80.5414 161.592 80.3934 161.78 80.2174 161.956C80.0494 162.124 79.8414 162.264 79.5934 162.376C79.3534 162.48 79.0574 162.532 78.7054 162.532C78.3134 162.532 77.9654 162.44 77.6614 162.256C77.3654 162.064 77.1334 161.796 76.9654 161.452C76.7974 161.1 76.7134 160.692 76.7134 160.228L76.7254 160.012C76.7254 159.58 76.8174 159.208 77.0014 158.896C77.1854 158.576 77.4294 158.332 77.7334 158.164C78.0374 157.996 78.3694 157.912 78.7294 157.912C79.0894 157.912 79.4054 157.996 79.6774 158.164C79.9574 158.332 80.1774 158.564 80.3374 158.86C80.4974 159.148 80.5774 159.48 80.5774 159.856H76.4734V160.396ZM90.4468 157.48H86.2828V163H86.9068V158.068H89.8228V163H90.4468V157.48ZM92.3917 161.38C92.3917 161.1 92.4637 160.864 92.6077 160.672C92.7517 160.48 92.9477 160.336 93.1957 160.24C93.4517 160.136 93.7397 160.084 94.0597 160.084C94.4357 160.084 94.7597 160.136 95.0317 160.24C95.3117 160.336 95.5637 160.468 95.7877 160.636V160.252C95.7237 160.18 95.6157 160.092 95.4637 159.988C95.3197 159.884 95.1277 159.792 94.8877 159.712C94.6557 159.632 94.3717 159.592 94.0357 159.592C93.6037 159.592 93.2157 159.664 92.8717 159.808C92.5277 159.944 92.2557 160.148 92.0557 160.42C91.8557 160.684 91.7557 161.012 91.7557 161.404C91.7557 161.796 91.8437 162.12 92.0197 162.376C92.1957 162.624 92.4237 162.812 92.7037 162.94C92.9917 163.06 93.2997 163.12 93.6277 163.12C94.0197 163.12 94.3677 163.044 94.6717 162.892C94.9837 162.732 95.2277 162.516 95.4037 162.244C95.5877 161.964 95.6797 161.648 95.6797 161.296L95.5357 160.936C95.5357 161.28 95.4597 161.572 95.3077 161.812C95.1557 162.052 94.9437 162.236 94.6717 162.364C94.4077 162.492 94.1077 162.556 93.7717 162.556C93.5317 162.556 93.3037 162.516 93.0877 162.436C92.8797 162.348 92.7117 162.22 92.5837 162.052C92.4557 161.876 92.3917 161.652 92.3917 161.38ZM92.5477 158.572C92.6597 158.476 92.7957 158.376 92.9557 158.272C93.1237 158.168 93.3157 158.084 93.5317 158.02C93.7477 157.948 93.9877 157.912 94.2517 157.912C94.6357 157.912 94.9437 158.016 95.1757 158.224C95.4157 158.424 95.5357 158.712 95.5357 159.088V163H96.1597V159.088C96.1597 158.728 96.0837 158.42 95.9317 158.164C95.7797 157.908 95.5597 157.712 95.2717 157.576C94.9917 157.432 94.6517 157.36 94.2517 157.36C93.7797 157.36 93.3757 157.44 93.0397 157.6C92.7117 157.76 92.4437 157.924 92.2357 158.092L92.5477 158.572ZM98.6839 165.64V157.48H98.0599V165.64H98.6839ZM103.4 160.24C103.4 159.64 103.28 159.128 103.04 158.704C102.808 158.272 102.488 157.94 102.08 157.708C101.68 157.476 101.232 157.36 100.736 157.36C100.272 157.36 99.8639 157.488 99.5119 157.744C99.1599 157.992 98.8839 158.332 98.6839 158.764C98.4919 159.196 98.3959 159.688 98.3959 160.24C98.3959 160.784 98.4919 161.276 98.6839 161.716C98.8839 162.148 99.1599 162.492 99.5119 162.748C99.8639 162.996 100.272 163.12 100.736 163.12C101.232 163.12 101.68 163.004 102.08 162.772C102.488 162.54 102.808 162.208 103.04 161.776C103.28 161.344 103.4 160.832 103.4 160.24ZM102.776 160.24C102.776 160.72 102.68 161.132 102.488 161.476C102.296 161.82 102.04 162.084 101.72 162.268C101.4 162.444 101.044 162.532 100.652 162.532C100.316 162.532 99.9959 162.432 99.6919 162.232C99.3879 162.032 99.1439 161.76 98.9599 161.416C98.7759 161.072 98.6839 160.68 98.6839 160.24C98.6839 159.8 98.7759 159.408 98.9599 159.064C99.1439 158.72 99.3879 158.448 99.6919 158.248C99.9959 158.048 100.316 157.948 100.652 157.948C101.044 157.948 101.4 158.04 101.72 158.224C102.04 158.4 102.296 158.66 102.488 159.004C102.68 159.348 102.776 159.76 102.776 160.24ZM104.904 157.48V163H105.528V157.48H104.904ZM107.892 157.48L105.3 159.76L108.132 163H108.924L106.092 159.76L108.696 157.48H107.892ZM109.593 160.24C109.593 160.792 109.717 161.288 109.965 161.728C110.213 162.16 110.549 162.5 110.973 162.748C111.405 162.996 111.889 163.12 112.425 163.12C112.961 163.12 113.441 162.996 113.865 162.748C114.297 162.5 114.637 162.16 114.885 161.728C115.133 161.288 115.257 160.792 115.257 160.24C115.257 159.68 115.133 159.184 114.885 158.752C114.637 158.32 114.297 157.98 113.865 157.732C113.441 157.484 112.961 157.36 112.425 157.36C111.889 157.36 111.405 157.484 110.973 157.732C110.549 157.98 110.213 158.32 109.965 158.752C109.717 159.184 109.593 159.68 109.593 160.24ZM110.229 160.24C110.229 159.792 110.325 159.396 110.517 159.052C110.709 158.708 110.969 158.44 111.297 158.248C111.633 158.048 112.009 157.948 112.425 157.948C112.841 157.948 113.213 158.048 113.541 158.248C113.877 158.44 114.141 158.712 114.333 159.064C114.525 159.408 114.621 159.8 114.621 160.24C114.621 160.688 114.525 161.084 114.333 161.428C114.141 161.772 113.877 162.044 113.541 162.244C113.213 162.436 112.841 162.532 112.425 162.532C112.009 162.532 111.633 162.436 111.297 162.244C110.969 162.044 110.709 161.772 110.517 161.428C110.325 161.084 110.229 160.688 110.229 160.24ZM116.936 160.168V160.492H118.532C118.716 160.492 118.892 160.508 119.06 160.54C119.228 160.572 119.376 160.624 119.504 160.696C119.632 160.768 119.732 160.864 119.804 160.984C119.884 161.096 119.924 161.244 119.924 161.428C119.924 161.708 119.82 161.948 119.612 162.148C119.412 162.348 119.084 162.448 118.628 162.448H116.936V163H118.772C119.404 163 119.856 162.856 120.128 162.568C120.408 162.272 120.548 161.916 120.548 161.5C120.548 161.14 120.46 160.864 120.284 160.672C120.108 160.48 119.868 160.348 119.564 160.276C119.26 160.204 118.916 160.168 118.532 160.168H116.936ZM116.936 160.312H118.412C118.756 160.312 119.068 160.268 119.348 160.18C119.636 160.084 119.868 159.94 120.044 159.748C120.22 159.548 120.308 159.292 120.308 158.98C120.308 158.62 120.22 158.332 120.044 158.116C119.868 157.892 119.636 157.732 119.348 157.636C119.068 157.532 118.756 157.48 118.412 157.48H116.936V158.032H118.412C118.788 158.032 119.092 158.116 119.324 158.284C119.564 158.452 119.684 158.696 119.684 159.016C119.684 159.184 119.644 159.328 119.564 159.448C119.492 159.56 119.392 159.656 119.264 159.736C119.144 159.816 119.008 159.872 118.856 159.904C118.704 159.936 118.556 159.952 118.412 159.952H116.936V160.312ZM116.576 157.48V163H117.2V157.48H116.576ZM121.37 160.24C121.37 160.792 121.494 161.288 121.742 161.728C121.99 162.16 122.326 162.5 122.75 162.748C123.182 162.996 123.666 163.12 124.202 163.12C124.738 163.12 125.218 162.996 125.642 162.748C126.074 162.5 126.414 162.16 126.662 161.728C126.91 161.288 127.034 160.792 127.034 160.24C127.034 159.68 126.91 159.184 126.662 158.752C126.414 158.32 126.074 157.98 125.642 157.732C125.218 157.484 124.738 157.36 124.202 157.36C123.666 157.36 123.182 157.484 122.75 157.732C122.326 157.98 121.99 158.32 121.742 158.752C121.494 159.184 121.37 159.68 121.37 160.24ZM122.006 160.24C122.006 159.792 122.102 159.396 122.294 159.052C122.486 158.708 122.746 158.44 123.074 158.248C123.41 158.048 123.786 157.948 124.202 157.948C124.618 157.948 124.99 158.048 125.318 158.248C125.654 158.44 125.918 158.712 126.11 159.064C126.302 159.408 126.398 159.8 126.398 160.24C126.398 160.688 126.302 161.084 126.11 161.428C125.918 161.772 125.654 162.044 125.318 162.244C124.99 162.436 124.618 162.532 124.202 162.532C123.786 162.532 123.41 162.436 123.074 162.244C122.746 162.044 122.486 161.772 122.294 161.428C122.102 161.084 122.006 160.688 122.006 160.24ZM130.213 161.32H131.857V160.732H130.213V161.32ZM131.413 157.48V163H132.037V157.48H131.413ZM128.677 157.48H128.053V159.064C128.053 159.6 128.117 160.036 128.245 160.372C128.373 160.7 128.593 160.94 128.905 161.092C129.225 161.244 129.661 161.32 130.213 161.32V160.732C129.829 160.732 129.525 160.68 129.301 160.576C129.077 160.464 128.917 160.288 128.821 160.048C128.725 159.8 128.677 159.472 128.677 159.064V157.48ZM134.21 160.372H138.242V159.784H134.21V160.372ZM137.858 157.48V163H138.482V157.48H137.858ZM133.838 157.48V163H134.462V157.48H133.838ZM145.143 157.48V163H145.767V157.48H145.143ZM140.283 157.48V163H140.907V157.48H140.283ZM140.631 160.12H142.227C142.651 160.12 142.987 160.22 143.235 160.42C143.491 160.612 143.619 160.9 143.619 161.284C143.619 161.548 143.559 161.768 143.439 161.944C143.327 162.112 143.167 162.24 142.959 162.328C142.751 162.408 142.507 162.448 142.227 162.448H140.631V163H142.227C142.611 163 142.955 162.94 143.259 162.82C143.563 162.7 143.803 162.512 143.979 162.256C144.155 162 144.243 161.676 144.243 161.284C144.243 160.692 144.047 160.26 143.655 159.988C143.271 159.708 142.795 159.568 142.227 159.568H140.631V160.12ZM147.536 160.396H152.3C152.308 160.348 152.312 160.3 152.312 160.252C152.32 160.196 152.324 160.144 152.324 160.096C152.324 159.544 152.212 159.064 151.988 158.656C151.772 158.248 151.472 157.932 151.088 157.708C150.704 157.476 150.272 157.36 149.792 157.36C149.352 157.36 148.952 157.452 148.592 157.636C148.232 157.812 147.936 158.064 147.704 158.392C147.472 158.712 147.308 159.084 147.212 159.508C147.188 159.628 147.168 159.748 147.152 159.868C147.144 159.98 147.14 160.1 147.14 160.228C147.14 160.78 147.252 161.276 147.476 161.716C147.7 162.156 148.004 162.5 148.388 162.748C148.78 162.996 149.216 163.12 149.696 163.12C150.184 163.12 150.584 163.056 150.896 162.928C151.208 162.792 151.468 162.62 151.676 162.412C151.884 162.196 152.068 161.964 152.228 161.716L151.724 161.392C151.604 161.592 151.456 161.78 151.28 161.956C151.112 162.124 150.904 162.264 150.656 162.376C150.416 162.48 150.12 162.532 149.768 162.532C149.376 162.532 149.028 162.44 148.724 162.256C148.428 162.064 148.196 161.796 148.028 161.452C147.86 161.1 147.776 160.692 147.776 160.228L147.788 160.012C147.788 159.58 147.88 159.208 148.064 158.896C148.248 158.576 148.492 158.332 148.796 158.164C149.1 157.996 149.432 157.912 149.792 157.912C150.152 157.912 150.468 157.996 150.74 158.164C151.02 158.332 151.24 158.564 151.4 158.86C151.56 159.148 151.64 159.48 151.64 159.856H147.536V160.396ZM162.961 163H163.669L162.229 157.06L161.893 158.188L162.961 163ZM159.853 162.46L160.069 163.372L162.289 158.404L162.229 157.06L159.853 162.46ZM160.069 163.372L160.285 162.46L157.945 157.06L157.885 158.404L160.069 163.372ZM156.505 163H157.225L158.281 158.188L157.945 157.06L156.505 163ZM164.598 160.396H169.362C169.37 160.348 169.374 160.3 169.374 160.252C169.382 160.196 169.386 160.144 169.386 160.096C169.386 159.544 169.274 159.064 169.05 158.656C168.834 158.248 168.534 157.932 168.15 157.708C167.766 157.476 167.334 157.36 166.854 157.36C166.414 157.36 166.014 157.452 165.654 157.636C165.294 157.812 164.998 158.064 164.766 158.392C164.534 158.712 164.37 159.084 164.274 159.508C164.25 159.628 164.23 159.748 164.214 159.868C164.206 159.98 164.202 160.1 164.202 160.228C164.202 160.78 164.314 161.276 164.538 161.716C164.762 162.156 165.066 162.5 165.45 162.748C165.842 162.996 166.278 163.12 166.758 163.12C167.246 163.12 167.646 163.056 167.958 162.928C168.27 162.792 168.53 162.62 168.738 162.412C168.946 162.196 169.13 161.964 169.29 161.716L168.786 161.392C168.666 161.592 168.518 161.78 168.342 161.956C168.174 162.124 167.966 162.264 167.718 162.376C167.478 162.48 167.182 162.532 166.83 162.532C166.438 162.532 166.09 162.44 165.786 162.256C165.49 162.064 165.258 161.796 165.09 161.452C164.922 161.1 164.838 160.692 164.838 160.228L164.85 160.012C164.85 159.58 164.942 159.208 165.126 158.896C165.31 158.576 165.554 158.332 165.858 158.164C166.162 157.996 166.494 157.912 166.854 157.912C167.214 157.912 167.53 157.996 167.802 158.164C168.082 158.332 168.302 158.564 168.462 158.86C168.622 159.148 168.702 159.48 168.702 159.856H164.598V160.396ZM170.954 160.24C170.954 159.792 171.05 159.396 171.242 159.052C171.434 158.708 171.694 158.44 172.022 158.248C172.358 158.048 172.734 157.948 173.15 157.948C173.446 157.948 173.722 157.992 173.978 158.08C174.234 158.168 174.454 158.28 174.638 158.416C174.83 158.552 174.966 158.696 175.046 158.848V158.068C174.878 157.876 174.618 157.712 174.266 157.576C173.922 157.432 173.55 157.36 173.15 157.36C172.614 157.36 172.134 157.484 171.71 157.732C171.286 157.98 170.946 158.32 170.69 158.752C170.442 159.184 170.318 159.68 170.318 160.24C170.318 160.792 170.442 161.288 170.69 161.728C170.946 162.16 171.286 162.5 171.71 162.748C172.134 162.996 172.614 163.12 173.15 163.12C173.55 163.12 173.922 163.052 174.266 162.916C174.618 162.78 174.878 162.612 175.046 162.412V161.632C174.966 161.776 174.83 161.92 174.638 162.064C174.454 162.2 174.234 162.312 173.978 162.4C173.722 162.488 173.446 162.532 173.15 162.532C172.734 162.532 172.358 162.436 172.022 162.244C171.694 162.044 171.434 161.772 171.242 161.428C171.05 161.084 170.954 160.688 170.954 160.24ZM175.701 157.48V158.068H178.941V157.48H175.701ZM177.009 157.648V163H177.633V157.648H177.009ZM180.048 161.38C180.048 161.1 180.12 160.864 180.264 160.672C180.408 160.48 180.604 160.336 180.852 160.24C181.108 160.136 181.396 160.084 181.716 160.084C182.092 160.084 182.416 160.136 182.688 160.24C182.968 160.336 183.22 160.468 183.444 160.636V160.252C183.38 160.18 183.272 160.092 183.12 159.988C182.976 159.884 182.784 159.792 182.544 159.712C182.312 159.632 182.028 159.592 181.692 159.592C181.26 159.592 180.872 159.664 180.528 159.808C180.184 159.944 179.912 160.148 179.712 160.42C179.512 160.684 179.412 161.012 179.412 161.404C179.412 161.796 179.5 162.12 179.676 162.376C179.852 162.624 180.08 162.812 180.36 162.94C180.648 163.06 180.956 163.12 181.284 163.12C181.676 163.12 182.024 163.044 182.328 162.892C182.64 162.732 182.884 162.516 183.06 162.244C183.244 161.964 183.336 161.648 183.336 161.296L183.192 160.936C183.192 161.28 183.116 161.572 182.964 161.812C182.812 162.052 182.6 162.236 182.328 162.364C182.064 162.492 181.764 162.556 181.428 162.556C181.188 162.556 180.96 162.516 180.744 162.436C180.536 162.348 180.368 162.22 180.24 162.052C180.112 161.876 180.048 161.652 180.048 161.38ZM180.204 158.572C180.316 158.476 180.452 158.376 180.612 158.272C180.78 158.168 180.972 158.084 181.188 158.02C181.404 157.948 181.644 157.912 181.908 157.912C182.292 157.912 182.6 158.016 182.832 158.224C183.072 158.424 183.192 158.712 183.192 159.088V163H183.816V159.088C183.816 158.728 183.74 158.42 183.588 158.164C183.436 157.908 183.216 157.712 182.928 157.576C182.648 157.432 182.308 157.36 181.908 157.36C181.436 157.36 181.032 157.44 180.696 157.6C180.368 157.76 180.1 157.924 179.892 158.092L180.204 158.572Z" fill="white"/>
<defs>
<filter id="filter0_bdi_322_821" x="-46" y="-49.3112" width="435" height="290.882" filterUnits="userSpaceOnUse" color-interpolation-filters="sRGB">
<feFlood flood-opacity="0" result="BackgroundImageFix"/>
<feGaussianBlur in="BackgroundImageFix" stdDeviation="25"/>
<feComposite in2="SourceAlpha" operator="in" result="effect1_backgroundBlur_322_821"/>
<feColorMatrix in="SourceAlpha" type="matrix" values="0 0 0 0 0 0 0 0 0 0 0 0 0 0 0 0 0 0 127 0" result="hardAlpha"/>
<feOffset dy="4"/>
<feGaussianBlur stdDeviation="2"/>
<feComposite in2="hardAlpha" operator="out"/>
<feColorMatrix type="matrix" values="0 0 0 0 0 0 0 0 0 0 0 0 0 0 0 0 0 0 0.25 0"/>
<feBlend mode="normal" in2="effect1_backgroundBlur_322_821" result="effect2_dropShadow_322_821"/>
<feBlend mode="normal" in="SourceGraphic" in2="effect2_dropShadow_322_821" result="shape"/>
<feColorMatrix in="SourceAlpha" type="matrix" values="0 0 0 0 0 0 0 0 0 0 0 0 0 0 0 0 0 0 127 0" result="hardAlpha"/>
<feMorphology radius="1" operator="erode" in="SourceAlpha" result="effect3_innerShadow_322_821"/>
<feOffset/>
<feGaussianBlur stdDeviation="4"/>
<feComposite in2="hardAlpha" operator="arithmetic" k2="-1" k3="1"/>
<feColorMatrix type="matrix" values="0 0 0 0 1 0 0 0 0 1 0 0 0 0 1 0 0 0 0.1 0"/>
<feBlend mode="normal" in2="shape" result="effect3_innerShadow_322_821"/>
</filter>
<filter id="filter1_d_322_821" x="206.061" y="61.8939" width="111.423" height="111.423" filterUnits="userSpaceOnUse" color-interpolation-filters="sRGB">
<feFlood flood-opacity="0" result="BackgroundImageFix"/>
<feColorMatrix in="SourceAlpha" type="matrix" values="0 0 0 0 0 0 0 0 0 0 0 0 0 0 0 0 0 0 127 0" result="hardAlpha"/>
<feMorphology radius="2" operator="dilate" in="SourceAlpha" result="effect1_dropShadow_322_821"/>
<feOffset/>
<feComposite in2="hardAlpha" operator="out"/>
<feColorMatrix type="matrix" values="0 0 0 0 1 0 0 0 0 1 0 0 0 0 1 0 0 0 1 0"/>
<feBlend mode="normal" in2="BackgroundImageFix" result="effect1_dropShadow_322_821"/>
<feBlend mode="normal" in="SourceGraphic" in2="effect1_dropShadow_322_821" result="shape"/>
</filter>
</defs>
</svg>
