<svg width="548" height="325" viewBox="0 0 548 325" fill="none" xmlns="http://www.w3.org/2000/svg">
<g filter="url(#filter0_bdi_322_249)">
<path d="M4 30.6153C4 14.0467 17.4315 0.615295 34 0.615295H514C530.569 0.615295 544 14.0468 544 30.6153V286.38C544 302.948 530.569 316.38 514 316.38H34C17.4315 316.38 4 302.948 4 286.38V30.6153Z" fill="#515151" fill-opacity="0.15" shape-rendering="crispEdges"/>
<path d="M4.5 30.6153C4.5 14.3229 17.7076 1.1153 34 1.1153H514C530.292 1.1153 543.5 14.3229 543.5 30.6153V286.38C543.5 302.672 530.292 315.88 514 315.88H34C17.7076 315.88 4.5 302.672 4.5 286.38V30.6153Z" stroke="white" stroke-opacity="0.1" shape-rendering="crispEdges"/>
</g>
<path d="M54.7369 155.832H70.8649L57.3769 183H64.7689L80.9449 149.4H54.7369V155.832ZM108.934 172.152C108.934 169.848 108.454 167.88 107.494 166.248C106.566 164.584 105.334 163.304 103.798 162.408C102.262 161.512 100.582 161.064 98.7578 161.064C97.7658 161.064 96.7898 161.16 95.8298 161.352C94.9018 161.512 94.0218 161.816 93.1898 162.264L95.2057 155.352H108.406V149.4H90.1178L85.5098 168.312C86.6618 167.672 87.7498 167.192 88.7738 166.872C89.8298 166.52 90.8538 166.28 91.8458 166.152C92.8378 165.992 93.7818 165.912 94.6778 165.912C95.8938 165.912 97.0138 166.136 98.0378 166.584C99.0938 167 99.9258 167.624 100.534 168.456C101.174 169.288 101.494 170.312 101.494 171.528C101.494 172.776 101.222 173.832 100.678 174.696C100.134 175.528 99.3498 176.168 98.3258 176.616C97.3338 177.064 96.1178 177.288 94.6778 177.288C93.7498 177.288 92.7738 177.112 91.7498 176.76C90.7258 176.376 89.7338 175.864 88.7738 175.224C87.8458 174.584 86.9818 173.864 86.1818 173.064L82.9658 178.392C83.8938 179.32 84.9658 180.184 86.1818 180.984C87.3978 181.752 88.8058 182.376 90.4058 182.856C92.0378 183.336 93.8778 183.576 95.9258 183.576C97.5578 183.576 99.1418 183.352 100.678 182.904C102.214 182.456 103.606 181.768 104.854 180.84C106.102 179.912 107.094 178.728 107.83 177.288C108.566 175.848 108.934 174.136 108.934 172.152ZM117.051 177.72L112.827 190.152L117.435 191.256L123.243 179.256L117.051 177.72ZM147.788 160.968C147.788 162.216 147.516 163.32 146.972 164.28C146.428 165.24 145.676 165.992 144.716 166.536C143.788 167.08 142.732 167.352 141.548 167.352C140.364 167.352 139.292 167.08 138.332 166.536C137.404 165.992 136.668 165.24 136.124 164.28C135.58 163.32 135.308 162.216 135.308 160.968C135.308 159.688 135.58 158.584 136.124 157.656C136.668 156.696 137.404 155.96 138.332 155.448C139.292 154.904 140.364 154.632 141.548 154.632C142.732 154.632 143.788 154.904 144.716 155.448C145.676 155.96 146.428 156.696 146.972 157.656C147.516 158.584 147.788 159.688 147.788 160.968ZM140.972 182.904L151.196 169.56C152.124 168.344 152.908 167.032 153.548 165.624C154.188 164.184 154.508 162.632 154.508 160.968C154.508 158.344 153.916 156.12 152.732 154.296C151.58 152.472 150.028 151.096 148.076 150.168C146.124 149.208 143.948 148.728 141.548 148.728C139.148 148.728 136.972 149.208 135.02 150.168C133.068 151.096 131.5 152.472 130.316 154.296C129.164 156.12 128.588 158.344 128.588 160.968C128.588 162.6 128.876 164.088 129.452 165.432C130.028 166.776 130.796 167.928 131.756 168.888C132.748 169.848 133.852 170.584 135.068 171.096C136.284 171.608 137.532 171.864 138.812 171.864C139.996 171.864 141.004 171.736 141.836 171.48C142.668 171.192 143.484 170.632 144.284 169.8L143.084 170.232L132.284 182.904H140.972ZM157.515 170.064C157.515 170.832 157.699 171.544 158.067 172.2C158.451 172.84 158.971 173.352 159.627 173.736C160.283 174.12 161.019 174.312 161.835 174.312C162.667 174.312 163.403 174.12 164.043 173.736C164.699 173.352 165.211 172.84 165.579 172.2C165.947 171.544 166.131 170.832 166.131 170.064C166.131 169.264 165.947 168.544 165.579 167.904C165.211 167.264 164.699 166.76 164.043 166.392C163.403 166.008 162.667 165.816 161.835 165.816C161.019 165.816 160.283 166.008 159.627 166.392C158.971 166.76 158.451 167.264 158.067 167.904C157.699 168.544 157.515 169.264 157.515 170.064ZM160.107 170.064C160.107 169.728 160.179 169.424 160.323 169.152C160.467 168.88 160.667 168.664 160.923 168.504C161.179 168.328 161.483 168.24 161.835 168.24C162.187 168.24 162.483 168.328 162.723 168.504C162.979 168.664 163.179 168.88 163.323 169.152C163.467 169.424 163.539 169.728 163.539 170.064C163.539 170.384 163.467 170.688 163.323 170.976C163.179 171.248 162.979 171.464 162.723 171.624C162.483 171.784 162.187 171.864 161.835 171.864C161.483 171.864 161.179 171.784 160.923 171.624C160.667 171.464 160.467 171.248 160.323 170.976C160.179 170.688 160.107 170.384 160.107 170.064ZM168.435 179.136C168.435 179.92 168.619 180.632 168.987 181.272C169.371 181.912 169.891 182.424 170.547 182.808C171.203 183.192 171.939 183.384 172.755 183.384C173.587 183.384 174.323 183.192 174.963 182.808C175.619 182.424 176.131 181.912 176.499 181.272C176.867 180.632 177.051 179.92 177.051 179.136C177.051 178.352 176.867 177.64 176.499 177C176.131 176.344 175.619 175.832 174.963 175.464C174.323 175.08 173.587 174.888 172.755 174.888C171.939 174.888 171.203 175.08 170.547 175.464C169.891 175.832 169.371 176.344 168.987 177C168.619 177.64 168.435 178.352 168.435 179.136ZM171.027 179.136C171.027 178.8 171.099 178.496 171.243 178.224C171.387 177.952 171.587 177.736 171.843 177.576C172.099 177.416 172.403 177.336 172.755 177.336C173.107 177.336 173.403 177.416 173.643 177.576C173.899 177.736 174.099 177.952 174.243 178.224C174.387 178.496 174.459 178.8 174.459 179.136C174.459 179.456 174.387 179.76 174.243 180.048C174.099 180.32 173.899 180.536 173.643 180.696C173.403 180.856 173.107 180.936 172.755 180.936C172.403 180.936 172.099 180.856 171.843 180.696C171.587 180.536 171.387 180.32 171.243 180.048C171.099 179.76 171.027 179.456 171.027 179.136ZM171.843 166.2L159.603 183H162.747L174.987 166.2H171.843Z" fill="white"/>
<path d="M63.4508 51.18V63H65.8308V49H54.2908V63H56.6908V51.18H63.4508ZM68.9969 49V63H71.3569V49H68.9969ZM70.3969 51.08H73.2169C74.0302 51.08 74.6835 51.2733 75.1769 51.66C75.6702 52.0333 75.9169 52.5933 75.9169 53.34C75.9169 54.0867 75.6702 54.6533 75.1769 55.04C74.6835 55.4267 74.0302 55.62 73.2169 55.62H70.3969V57.7H73.2169C74.2302 57.7 75.1102 57.5267 75.8569 57.18C76.6169 56.82 77.2035 56.3133 77.6169 55.66C78.0302 55.0067 78.2369 54.2333 78.2369 53.34C78.2369 52.4467 78.0302 51.68 77.6169 51.04C77.2035 50.3867 76.6169 49.8867 75.8569 49.54C75.1102 49.18 74.2302 49 73.2169 49H70.3969V51.08ZM82.2594 56C82.2594 55.04 82.4594 54.1867 82.8594 53.44C83.2727 52.68 83.8394 52.0867 84.5594 51.66C85.2794 51.2333 86.0994 51.02 87.0194 51.02C87.966 51.02 88.7927 51.2333 89.4994 51.66C90.2194 52.0867 90.7794 52.68 91.1794 53.44C91.5794 54.1867 91.7794 55.04 91.7794 56C91.7794 56.96 91.5727 57.82 91.1594 58.58C90.7594 59.3267 90.1994 59.9133 89.4794 60.34C88.7727 60.7667 87.9527 60.98 87.0194 60.98C86.0994 60.98 85.2794 60.7667 84.5594 60.34C83.8394 59.9133 83.2727 59.3267 82.8594 58.58C82.4594 57.82 82.2594 56.96 82.2594 56ZM79.7594 56C79.7594 57.04 79.9394 58.0067 80.2994 58.9C80.6594 59.7933 81.1594 60.5667 81.7994 61.22C82.4527 61.8733 83.226 62.3867 84.1194 62.76C85.0127 63.12 85.9794 63.3 87.0194 63.3C88.0727 63.3 89.0394 63.12 89.9194 62.76C90.8127 62.3867 91.586 61.8733 92.2394 61.22C92.8927 60.5667 93.3994 59.7933 93.7594 58.9C94.1194 58.0067 94.2994 57.04 94.2994 56C94.2994 54.9467 94.1194 53.98 93.7594 53.1C93.3994 52.22 92.886 51.46 92.2194 50.82C91.566 50.1667 90.7994 49.66 89.9194 49.3C89.0394 48.94 88.0727 48.76 87.0194 48.76C85.9927 48.76 85.0327 48.94 84.1394 49.3C83.2594 49.66 82.486 50.1667 81.8194 50.82C81.166 51.46 80.6594 52.22 80.2994 53.1C79.9394 53.98 79.7594 54.9467 79.7594 56ZM97.5745 56.52H101.135C101.668 56.52 102.135 56.6 102.535 56.76C102.935 56.92 103.241 57.1667 103.455 57.5C103.681 57.82 103.795 58.2267 103.795 58.72C103.795 59.2133 103.681 59.6267 103.455 59.96C103.241 60.28 102.935 60.52 102.535 60.68C102.135 60.84 101.668 60.92 101.135 60.92H97.5745V63H101.435C102.341 63 103.148 62.8267 103.855 62.48C104.575 62.12 105.141 61.62 105.555 60.98C105.981 60.3267 106.195 59.5733 106.195 58.72C106.195 57.8533 105.981 57.1067 105.555 56.48C105.141 55.84 104.575 55.3467 103.855 55C103.148 54.6533 102.341 54.48 101.435 54.48H97.5745V56.52ZM96.6345 49V63H99.0345V51.08H105.135V49H96.6345ZM119.448 49H109.148V57.6C109.148 58.0933 109.101 58.5467 109.008 58.96C108.928 59.3733 108.801 59.7333 108.628 60.04C108.468 60.3333 108.268 60.5667 108.028 60.74C107.788 60.9 107.508 60.98 107.188 60.98V63C108.161 63 108.961 62.78 109.588 62.34C110.228 61.9 110.701 61.2867 111.008 60.5C111.314 59.7 111.468 58.7867 111.468 57.76V51.18H117.048V63H119.448V49ZM124.07 63H131.13V60.92H124.07V63ZM124.07 51.08H131.13V49H124.07V51.08ZM124.07 56.52H130.73V54.48H124.07V56.52ZM122.61 49V63H124.93V49H122.61ZM136.636 54.48L140.896 61.7L145.156 54.48L146.136 63H148.576L146.656 48.3L140.896 57.8L135.156 48.3L133.236 63H135.676L136.636 54.48ZM161.812 49V63H164.212V49H161.812ZM150.872 49V63H153.232V49H150.872ZM152.272 56.38H155.092C155.625 56.38 156.092 56.4667 156.492 56.64C156.905 56.8 157.225 57.0533 157.452 57.4C157.679 57.7333 157.792 58.1533 157.792 58.66C157.792 59.1533 157.679 59.5733 157.452 59.92C157.225 60.2533 156.905 60.5067 156.492 60.68C156.092 60.84 155.625 60.92 155.092 60.92H152.272V63H155.092C156.105 63 156.985 62.8267 157.732 62.48C158.492 62.12 159.079 61.6133 159.492 60.96C159.905 60.3067 160.112 59.54 160.112 58.66C160.112 57.7533 159.905 56.98 159.492 56.34C159.079 55.6867 158.492 55.1867 157.732 54.84C156.985 54.48 156.105 54.3 155.092 54.3H152.272V56.38ZM175.053 56C175.053 55 175.273 54.1333 175.713 53.4C176.167 52.6533 176.753 52.08 177.473 51.68C178.207 51.2667 179 51.06 179.853 51.06C180.52 51.06 181.12 51.1467 181.653 51.32C182.187 51.4933 182.667 51.7333 183.093 52.04C183.533 52.3333 183.913 52.6667 184.233 53.04V50.24C183.647 49.76 183.013 49.3933 182.333 49.14C181.653 48.8867 180.8 48.76 179.773 48.76C178.747 48.76 177.787 48.9333 176.893 49.28C176.013 49.6267 175.247 50.1267 174.593 50.78C173.94 51.4333 173.427 52.2067 173.053 53.1C172.693 53.98 172.513 54.9467 172.513 56C172.513 57.0533 172.693 58.0267 173.053 58.92C173.427 59.8 173.94 60.5667 174.593 61.22C175.247 61.8733 176.013 62.3733 176.893 62.72C177.787 63.0667 178.747 63.24 179.773 63.24C180.8 63.24 181.653 63.1133 182.333 62.86C183.013 62.6067 183.647 62.24 184.233 61.76V58.96C183.913 59.3333 183.533 59.6733 183.093 59.98C182.667 60.2733 182.187 60.5067 181.653 60.68C181.12 60.8533 180.52 60.94 179.853 60.94C179 60.94 178.207 60.74 177.473 60.34C176.753 59.9267 176.167 59.3467 175.713 58.6C175.273 57.8533 175.053 56.9867 175.053 56ZM202.337 51.18V63H204.717V49H193.177V63H195.577V51.18H202.337ZM209.564 59.4H216.964L216.504 57.4H210.004L209.564 59.4ZM213.224 52.96L215.444 58.16L215.504 58.74L217.404 63H220.064L213.224 48.22L206.384 63H209.044L210.984 58.62L211.024 58.1L213.224 52.96ZM221.692 49V63H224.052V49H221.692ZM223.092 51.08H225.912C226.726 51.08 227.379 51.2733 227.872 51.66C228.366 52.0333 228.612 52.5933 228.612 53.34C228.612 54.0867 228.366 54.6533 227.872 55.04C227.379 55.4267 226.726 55.62 225.912 55.62H223.092V57.7H225.912C226.926 57.7 227.806 57.5267 228.552 57.18C229.312 56.82 229.899 56.3133 230.312 55.66C230.726 55.0067 230.932 54.2333 230.932 53.34C230.932 52.4467 230.726 51.68 230.312 51.04C229.899 50.3867 229.312 49.8867 228.552 49.54C227.806 49.18 226.926 49 225.912 49H223.092V51.08ZM233.255 49V63H235.675V49H233.255ZM240.875 49L234.955 55.62L241.115 63H244.015L237.815 55.56L243.715 49H240.875ZM246.341 56C246.341 55.04 246.541 54.1867 246.941 53.44C247.355 52.68 247.921 52.0867 248.641 51.66C249.361 51.2333 250.181 51.02 251.101 51.02C252.048 51.02 252.875 51.2333 253.581 51.66C254.301 52.0867 254.861 52.68 255.261 53.44C255.661 54.1867 255.861 55.04 255.861 56C255.861 56.96 255.655 57.82 255.241 58.58C254.841 59.3267 254.281 59.9133 253.561 60.34C252.855 60.7667 252.035 60.98 251.101 60.98C250.181 60.98 249.361 60.7667 248.641 60.34C247.921 59.9133 247.355 59.3267 246.941 58.58C246.541 57.82 246.341 56.96 246.341 56ZM243.841 56C243.841 57.04 244.021 58.0067 244.381 58.9C244.741 59.7933 245.241 60.5667 245.881 61.22C246.535 61.8733 247.308 62.3867 248.201 62.76C249.095 63.12 250.061 63.3 251.101 63.3C252.155 63.3 253.121 63.12 254.001 62.76C254.895 62.3867 255.668 61.8733 256.321 61.22C256.975 60.5667 257.481 59.7933 257.841 58.9C258.201 58.0067 258.381 57.04 258.381 56C258.381 54.9467 258.201 53.98 257.841 53.1C257.481 52.22 256.968 51.46 256.301 50.82C255.648 50.1667 254.881 49.66 254.001 49.3C253.121 48.94 252.155 48.76 251.101 48.76C250.075 48.76 249.115 48.94 248.221 49.3C247.341 49.66 246.568 50.1667 245.901 50.82C245.248 51.46 244.741 52.22 244.381 53.1C244.021 53.98 243.841 54.9467 243.841 56ZM262.477 55.78H264.897C265.777 55.78 266.55 55.6533 267.217 55.4C267.897 55.1467 268.423 54.78 268.797 54.3C269.183 53.8067 269.377 53.2133 269.377 52.52C269.377 51.72 269.183 51.06 268.797 50.54C268.423 50.02 267.897 49.6333 267.217 49.38C266.55 49.1267 265.777 49 264.897 49H260.677V63H265.137C266.123 63 266.99 62.86 267.737 62.58C268.497 62.2867 269.09 61.84 269.517 61.24C269.957 60.64 270.177 59.88 270.177 58.96C270.177 58.2933 270.043 57.72 269.777 57.24C269.51 56.76 269.137 56.3667 268.657 56.06C268.19 55.7533 267.657 55.5267 267.057 55.38C266.457 55.2333 265.817 55.16 265.137 55.16H262.477V56.46H264.997C265.397 56.46 265.763 56.5067 266.097 56.6C266.43 56.68 266.717 56.82 266.957 57.02C267.21 57.2067 267.403 57.4467 267.537 57.74C267.683 58.02 267.757 58.3467 267.757 58.72C267.757 59.24 267.637 59.6733 267.397 60.02C267.157 60.3667 266.83 60.6267 266.417 60.8C266.003 60.9733 265.53 61.06 264.997 61.06H263.037V50.94H264.737C265.39 50.94 265.923 51.1 266.337 51.42C266.75 51.74 266.957 52.1933 266.957 52.78C266.957 53.1667 266.863 53.5 266.677 53.78C266.49 54.0467 266.23 54.2533 265.897 54.4C265.563 54.5467 265.177 54.62 264.737 54.62H262.477V55.78ZM272.669 49V63H275.089V49H272.669ZM280.289 49L274.369 55.62L280.529 63H283.429L277.229 55.56L283.129 49H280.289ZM285.755 56C285.755 55.04 285.955 54.1867 286.355 53.44C286.769 52.68 287.335 52.0867 288.055 51.66C288.775 51.2333 289.595 51.02 290.515 51.02C291.462 51.02 292.289 51.2333 292.995 51.66C293.715 52.0867 294.275 52.68 294.675 53.44C295.075 54.1867 295.275 55.04 295.275 56C295.275 56.96 295.069 57.82 294.655 58.58C294.255 59.3267 293.695 59.9133 292.975 60.34C292.269 60.7667 291.449 60.98 290.515 60.98C289.595 60.98 288.775 60.7667 288.055 60.34C287.335 59.9133 286.769 59.3267 286.355 58.58C285.955 57.82 285.755 56.96 285.755 56ZM283.255 56C283.255 57.04 283.435 58.0067 283.795 58.9C284.155 59.7933 284.655 60.5667 285.295 61.22C285.949 61.8733 286.722 62.3867 287.615 62.76C288.509 63.12 289.475 63.3 290.515 63.3C291.569 63.3 292.535 63.12 293.415 62.76C294.309 62.3867 295.082 61.8733 295.735 61.22C296.389 60.5667 296.895 59.7933 297.255 58.9C297.615 58.0067 297.795 57.04 297.795 56C297.795 54.9467 297.615 53.98 297.255 53.1C296.895 52.22 296.382 51.46 295.715 50.82C295.062 50.1667 294.295 49.66 293.415 49.3C292.535 48.94 291.569 48.76 290.515 48.76C289.489 48.76 288.529 48.94 287.635 49.3C286.755 49.66 285.982 50.1667 285.315 50.82C284.662 51.46 284.155 52.22 283.795 53.1C283.435 53.98 283.255 54.9467 283.255 56ZM312.531 51.54L312.631 48.3L300.191 60.46L300.091 63.7L312.531 51.54ZM302.411 49H300.091V63.7L302.411 61.06V49ZM312.631 48.3L310.311 51V63H312.631V48.3ZM303.671 44.8C303.671 45.2933 303.791 45.76 304.031 46.2C304.271 46.6267 304.631 46.98 305.111 47.26C305.591 47.5267 306.177 47.66 306.871 47.66C307.577 47.66 308.171 47.5267 308.651 47.26C309.131 46.98 309.491 46.6267 309.731 46.2C309.971 45.76 310.091 45.2933 310.091 44.8H308.451C308.451 45 308.397 45.2067 308.291 45.42C308.197 45.6333 308.031 45.8133 307.791 45.96C307.564 46.1067 307.257 46.18 306.871 46.18C306.497 46.18 306.191 46.1067 305.951 45.96C305.724 45.8133 305.557 45.6333 305.451 45.42C305.357 45.2067 305.311 45 305.311 44.8H303.671Z" fill="#B2ABF2"/>
<circle cx="405.087" cy="186.087" r="79.5875" stroke="#564592" stroke-width="15"/>
<mask id="mask0_322_249" style="mask-type:alpha" maskUnits="userSpaceOnUse" x="293" y="82" width="223" height="206">
<path d="M503 181.5L395.557 196.783V139.892V93L303.955 115.064C316.62 168.711 320.604 271.48 320.604 277.286C320.604 283.092 421.495 273.586 471.3 277.286L503 181.5Z" fill="#D9D9D9" stroke="#564592" stroke-width="17"/>
</mask>
<g mask="url(#mask0_322_249)">
<g filter="url(#filter1_d_322_249)">
<circle cx="405.984" cy="186.356" r="78.0875" stroke="white" stroke-width="18" shape-rendering="crispEdges"/>
</g>
</g>
<path d="M54.836 212.7C54.836 211.644 55.058 210.708 55.502 209.892C55.958 209.064 56.576 208.416 57.356 207.948C58.148 207.468 59.048 207.228 60.056 207.228C61.064 207.228 61.958 207.468 62.738 207.948C63.53 208.416 64.148 209.064 64.592 209.892C65.036 210.708 65.258 211.644 65.258 212.7C65.258 213.744 65.036 214.68 64.592 215.508C64.148 216.336 63.53 216.99 62.738 217.47C61.958 217.938 61.064 218.172 60.056 218.172C59.048 218.172 58.148 217.938 57.356 217.47C56.576 216.99 55.958 216.336 55.502 215.508C55.058 214.68 54.836 213.744 54.836 212.7ZM53.792 212.7C53.792 213.624 53.948 214.482 54.26 215.274C54.572 216.054 55.01 216.738 55.574 217.326C56.138 217.902 56.798 218.352 57.554 218.676C58.322 219 59.156 219.162 60.056 219.162C60.956 219.162 61.784 219 62.54 218.676C63.308 218.352 63.974 217.902 64.538 217.326C65.102 216.738 65.54 216.054 65.852 215.274C66.164 214.482 66.32 213.624 66.32 212.7C66.32 211.776 66.164 210.924 65.852 210.144C65.54 209.352 65.102 208.668 64.538 208.092C63.974 207.504 63.308 207.048 62.54 206.724C61.784 206.4 60.956 206.238 60.056 206.238C59.156 206.238 58.322 206.4 57.554 206.724C56.798 207.048 56.138 207.504 55.574 208.092C55.01 208.668 54.572 209.352 54.26 210.144C53.948 210.924 53.792 211.776 53.792 212.7ZM74.8167 210.72H68.5707V219H69.5067V211.602H73.8807V219H74.8167V210.72ZM78.436 222.96V210.72H77.5V222.96H78.436ZM85.51 214.86C85.51 213.96 85.33 213.192 84.97 212.556C84.622 211.908 84.142 211.41 83.53 211.062C82.93 210.714 82.258 210.54 81.514 210.54C80.818 210.54 80.206 210.732 79.678 211.116C79.15 211.488 78.736 211.998 78.436 212.646C78.148 213.294 78.004 214.032 78.004 214.86C78.004 215.676 78.148 216.414 78.436 217.074C78.736 217.722 79.15 218.238 79.678 218.622C80.206 218.994 80.818 219.18 81.514 219.18C82.258 219.18 82.93 219.006 83.53 218.658C84.142 218.31 84.622 217.812 84.97 217.164C85.33 216.516 85.51 215.748 85.51 214.86ZM84.574 214.86C84.574 215.58 84.43 216.198 84.142 216.714C83.854 217.23 83.47 217.626 82.99 217.902C82.51 218.166 81.976 218.298 81.388 218.298C80.884 218.298 80.404 218.148 79.948 217.848C79.492 217.548 79.126 217.14 78.85 216.624C78.574 216.108 78.436 215.52 78.436 214.86C78.436 214.2 78.574 213.612 78.85 213.096C79.126 212.58 79.492 212.172 79.948 211.872C80.404 211.572 80.884 211.422 81.388 211.422C81.976 211.422 82.51 211.56 82.99 211.836C83.47 212.1 83.854 212.49 84.142 213.006C84.43 213.522 84.574 214.14 84.574 214.86ZM87.1356 214.86C87.1356 215.688 87.3216 216.432 87.6936 217.092C88.0656 217.74 88.5696 218.25 89.2056 218.622C89.8536 218.994 90.5796 219.18 91.3836 219.18C92.1876 219.18 92.9076 218.994 93.5436 218.622C94.1916 218.25 94.7016 217.74 95.0736 217.092C95.4456 216.432 95.6316 215.688 95.6316 214.86C95.6316 214.02 95.4456 213.276 95.0736 212.628C94.7016 211.98 94.1916 211.47 93.5436 211.098C92.9076 210.726 92.1876 210.54 91.3836 210.54C90.5796 210.54 89.8536 210.726 89.2056 211.098C88.5696 211.47 88.0656 211.98 87.6936 212.628C87.3216 213.276 87.1356 214.02 87.1356 214.86ZM88.0896 214.86C88.0896 214.188 88.2336 213.594 88.5216 213.078C88.8096 212.562 89.1996 212.16 89.6916 211.872C90.1956 211.572 90.7596 211.422 91.3836 211.422C92.0076 211.422 92.5656 211.572 93.0576 211.872C93.5616 212.16 93.9576 212.568 94.2456 213.096C94.5336 213.612 94.6776 214.2 94.6776 214.86C94.6776 215.532 94.5336 216.126 94.2456 216.642C93.9576 217.158 93.5616 217.566 93.0576 217.866C92.5656 218.154 92.0076 218.298 91.3836 218.298C90.7596 218.298 90.1956 218.154 89.6916 217.866C89.1996 217.566 88.8096 217.158 88.5216 216.642C88.2336 216.126 88.0896 215.532 88.0896 214.86ZM103.496 218.118V210.72H102.56V218.118H98.5458V210.72H97.6098V219H108.446V210.72H107.51V218.118H103.496ZM111.091 215.094H118.237C118.249 215.022 118.255 214.95 118.255 214.878C118.267 214.794 118.273 214.716 118.273 214.644C118.273 213.816 118.105 213.096 117.769 212.484C117.445 211.872 116.995 211.398 116.419 211.062C115.843 210.714 115.195 210.54 114.475 210.54C113.815 210.54 113.215 210.678 112.675 210.954C112.135 211.218 111.691 211.596 111.343 212.088C110.995 212.568 110.749 213.126 110.605 213.762C110.569 213.942 110.539 214.122 110.515 214.302C110.503 214.47 110.497 214.65 110.497 214.842C110.497 215.67 110.665 216.414 111.001 217.074C111.337 217.734 111.793 218.25 112.369 218.622C112.957 218.994 113.611 219.18 114.331 219.18C115.063 219.18 115.663 219.084 116.131 218.892C116.599 218.688 116.989 218.43 117.301 218.118C117.613 217.794 117.889 217.446 118.129 217.074L117.373 216.588C117.193 216.888 116.971 217.17 116.707 217.434C116.455 217.686 116.143 217.896 115.771 218.064C115.411 218.22 114.967 218.298 114.439 218.298C113.851 218.298 113.329 218.16 112.873 217.884C112.429 217.596 112.081 217.194 111.829 216.678C111.577 216.15 111.451 215.538 111.451 214.842L111.469 214.518C111.469 213.87 111.607 213.312 111.883 212.844C112.159 212.364 112.525 211.998 112.981 211.746C113.437 211.494 113.935 211.368 114.475 211.368C115.015 211.368 115.489 211.494 115.897 211.746C116.317 211.998 116.647 212.346 116.887 212.79C117.127 213.222 117.247 213.72 117.247 214.284H111.091V215.094ZM120.967 215.058H127.015V214.176H120.967V215.058ZM126.439 210.72V219H127.375V210.72H126.439ZM120.409 210.72V219H121.345V210.72H120.409ZM130.635 215.058H136.683V214.176H130.635V215.058ZM136.107 210.72V219H137.043V210.72H136.107ZM130.077 210.72V219H131.013V210.72H130.077ZM147.035 210.72V219H147.971V210.72H147.035ZM139.745 210.72V219H140.681V210.72H139.745ZM140.267 214.68H142.661C143.297 214.68 143.801 214.83 144.173 215.13C144.557 215.418 144.749 215.85 144.749 216.426C144.749 216.822 144.659 217.152 144.479 217.416C144.311 217.668 144.071 217.86 143.759 217.992C143.447 218.112 143.081 218.172 142.661 218.172H140.267V219H142.661C143.237 219 143.753 218.91 144.209 218.73C144.665 218.55 145.025 218.268 145.289 217.884C145.553 217.5 145.685 217.014 145.685 216.426C145.685 215.538 145.391 214.89 144.803 214.482C144.227 214.062 143.513 213.852 142.661 213.852H140.267V214.68ZM155.268 210.72L152.964 213.996L150.66 210.72H149.58L152.442 214.734L149.4 219H150.48L152.964 215.472L155.448 219H156.528L153.486 214.734L156.348 210.72H155.268ZM170.059 211.53L170.149 210.09L163.813 218.19L163.723 219.63L170.059 211.53ZM164.659 210.72H163.723V219.63L164.659 218.298V210.72ZM170.149 210.09L169.213 211.422V219H170.149V210.09ZM181.356 219H182.418L180.258 210.09L179.754 211.782L181.356 219ZM176.694 218.19L177.018 219.558L180.348 212.106L180.258 210.09L176.694 218.19ZM177.018 219.558L177.342 218.19L173.832 210.09L173.742 212.106L177.018 219.558ZM171.672 219H172.752L174.336 211.782L173.832 210.09L171.672 219ZM183.812 215.094H190.958C190.97 215.022 190.976 214.95 190.976 214.878C190.988 214.794 190.994 214.716 190.994 214.644C190.994 213.816 190.826 213.096 190.49 212.484C190.166 211.872 189.716 211.398 189.14 211.062C188.564 210.714 187.916 210.54 187.196 210.54C186.536 210.54 185.936 210.678 185.396 210.954C184.856 211.218 184.412 211.596 184.064 212.088C183.716 212.568 183.47 213.126 183.326 213.762C183.29 213.942 183.26 214.122 183.236 214.302C183.224 214.47 183.218 214.65 183.218 214.842C183.218 215.67 183.386 216.414 183.722 217.074C184.058 217.734 184.514 218.25 185.09 218.622C185.678 218.994 186.332 219.18 187.052 219.18C187.784 219.18 188.384 219.084 188.852 218.892C189.32 218.688 189.71 218.43 190.022 218.118C190.334 217.794 190.61 217.446 190.85 217.074L190.094 216.588C189.914 216.888 189.692 217.17 189.428 217.434C189.176 217.686 188.864 217.896 188.492 218.064C188.132 218.22 187.688 218.298 187.16 218.298C186.572 218.298 186.05 218.16 185.594 217.884C185.15 217.596 184.802 217.194 184.55 216.678C184.298 216.15 184.172 215.538 184.172 214.842L184.19 214.518C184.19 213.87 184.328 213.312 184.604 212.844C184.88 212.364 185.246 211.998 185.702 211.746C186.158 211.494 186.656 211.368 187.196 211.368C187.736 211.368 188.21 211.494 188.618 211.746C189.038 211.998 189.368 212.346 189.608 212.79C189.848 213.222 189.968 213.72 189.968 214.284H183.812V215.094ZM193.687 215.094H196.747V214.212H193.687V215.094ZM193.129 210.72V219H194.065V210.72H193.129ZM196.081 214.86C196.081 215.688 196.267 216.432 196.639 217.092C197.011 217.74 197.521 218.25 198.169 218.622C198.817 218.994 199.537 219.18 200.329 219.18C201.133 219.18 201.853 218.994 202.489 218.622C203.125 218.25 203.629 217.74 204.001 217.092C204.385 216.432 204.577 215.688 204.577 214.86C204.577 214.02 204.385 213.276 204.001 212.628C203.629 211.98 203.125 211.47 202.489 211.098C201.853 210.726 201.133 210.54 200.329 210.54C199.525 210.54 198.799 210.726 198.151 211.098C197.515 211.47 197.011 211.98 196.639 212.628C196.267 213.276 196.081 214.02 196.081 214.86ZM197.035 214.86C197.035 214.188 197.179 213.594 197.467 213.078C197.755 212.562 198.145 212.16 198.637 211.872C199.141 211.572 199.705 211.422 200.329 211.422C200.953 211.422 201.511 211.572 202.003 211.872C202.507 212.16 202.903 212.568 203.191 213.096C203.479 213.612 203.623 214.2 203.623 214.86C203.623 215.532 203.479 216.126 203.191 216.642C202.903 217.158 202.507 217.566 202.003 217.866C201.511 218.154 200.953 218.298 200.329 218.298C199.705 218.298 199.141 218.154 198.637 217.866C198.145 217.566 197.755 217.158 197.467 216.642C197.179 216.126 197.035 215.532 197.035 214.86ZM205.369 210.72V211.602H210.229V210.72H205.369ZM207.331 210.972V219H208.267V210.972H207.331ZM223.317 210.72H217.071V219H218.007V211.602H222.381V219H223.317V210.72ZM226.936 222.96V210.72H226V222.96H226.936ZM234.01 214.86C234.01 213.96 233.83 213.192 233.47 212.556C233.122 211.908 232.642 211.41 232.03 211.062C231.43 210.714 230.758 210.54 230.014 210.54C229.318 210.54 228.706 210.732 228.178 211.116C227.65 211.488 227.236 211.998 226.936 212.646C226.648 213.294 226.504 214.032 226.504 214.86C226.504 215.676 226.648 216.414 226.936 217.074C227.236 217.722 227.65 218.238 228.178 218.622C228.706 218.994 229.318 219.18 230.014 219.18C230.758 219.18 231.43 219.006 232.03 218.658C232.642 218.31 233.122 217.812 233.47 217.164C233.83 216.516 234.01 215.748 234.01 214.86ZM233.074 214.86C233.074 215.58 232.93 216.198 232.642 216.714C232.354 217.23 231.97 217.626 231.49 217.902C231.01 218.166 230.476 218.298 229.888 218.298C229.384 218.298 228.904 218.148 228.448 217.848C227.992 217.548 227.626 217.14 227.35 216.624C227.074 216.108 226.936 215.52 226.936 214.86C226.936 214.2 227.074 213.612 227.35 213.096C227.626 212.58 227.992 212.172 228.448 211.872C228.904 211.572 229.384 211.422 229.888 211.422C230.476 211.422 231.01 211.56 231.49 211.836C231.97 212.1 232.354 212.49 232.642 213.006C232.93 213.522 233.074 214.14 233.074 214.86ZM235.636 214.86C235.636 215.688 235.822 216.432 236.194 217.092C236.566 217.74 237.07 218.25 237.706 218.622C238.354 218.994 239.08 219.18 239.884 219.18C240.688 219.18 241.408 218.994 242.044 218.622C242.692 218.25 243.202 217.74 243.574 217.092C243.946 216.432 244.132 215.688 244.132 214.86C244.132 214.02 243.946 213.276 243.574 212.628C243.202 211.98 242.692 211.47 242.044 211.098C241.408 210.726 240.688 210.54 239.884 210.54C239.08 210.54 238.354 210.726 237.706 211.098C237.07 211.47 236.566 211.98 236.194 212.628C235.822 213.276 235.636 214.02 235.636 214.86ZM236.59 214.86C236.59 214.188 236.734 213.594 237.022 213.078C237.31 212.562 237.7 212.16 238.192 211.872C238.696 211.572 239.26 211.422 239.884 211.422C240.508 211.422 241.066 211.572 241.558 211.872C242.062 212.16 242.458 212.568 242.746 213.096C243.034 213.612 243.178 214.2 243.178 214.86C243.178 215.532 243.034 216.126 242.746 216.642C242.458 217.158 242.062 217.566 241.558 217.866C241.066 218.154 240.508 218.298 239.884 218.298C239.26 218.298 238.696 218.154 238.192 217.866C237.7 217.566 237.31 217.158 237.022 216.642C236.734 216.126 236.59 215.532 236.59 214.86ZM249.674 211.422C250.31 211.422 250.874 211.566 251.366 211.854C251.87 212.142 252.266 212.55 252.554 213.078C252.854 213.594 253.004 214.188 253.004 214.86C253.004 215.532 252.854 216.126 252.554 216.642C252.254 217.158 251.852 217.566 251.348 217.866C250.844 218.154 250.286 218.298 249.674 218.298C249.062 218.298 248.51 218.154 248.018 217.866C247.526 217.566 247.13 217.158 246.83 216.642C246.542 216.126 246.398 215.532 246.398 214.86L245.39 213.78C245.39 214.968 245.576 215.964 245.948 216.768C246.332 217.572 246.848 218.178 247.496 218.586C248.144 218.982 248.87 219.18 249.674 219.18C250.49 219.18 251.216 218.994 251.852 218.622C252.5 218.25 253.01 217.74 253.382 217.092C253.766 216.432 253.958 215.688 253.958 214.86C253.958 214.02 253.766 213.276 253.382 212.628C253.01 211.98 252.5 211.47 251.852 211.098C251.216 210.726 250.49 210.54 249.674 210.54V211.422ZM245.93 214.86H246.398C246.398 214.308 246.494 213.822 246.686 213.402C246.89 212.97 247.154 212.61 247.478 212.322C247.802 212.034 248.156 211.812 248.54 211.656C248.936 211.5 249.314 211.422 249.674 211.422V210.54C249.17 210.54 248.69 210.642 248.234 210.846C247.79 211.038 247.394 211.32 247.046 211.692C246.698 212.064 246.422 212.52 246.218 213.06C246.026 213.588 245.93 214.188 245.93 214.86ZM245.39 213.78L246.218 214.788V213.312C246.218 212.46 246.308 211.68 246.488 210.972C246.68 210.264 247.004 209.652 247.46 209.136C247.928 208.62 248.564 208.23 249.368 207.966C249.992 207.75 250.532 207.498 250.988 207.21C251.456 206.91 251.828 206.574 252.104 206.202C252.38 205.818 252.542 205.404 252.59 204.96H251.672C251.588 205.392 251.348 205.806 250.952 206.202C250.556 206.586 249.95 206.916 249.134 207.192C248.174 207.516 247.418 207.984 246.866 208.596C246.314 209.196 245.93 209.928 245.714 210.792C245.498 211.656 245.39 212.652 245.39 213.78ZM262.686 210.72H256.08V216.12C256.08 216.816 255.948 217.326 255.684 217.65C255.432 217.974 255.126 218.136 254.766 218.136V219C255.246 219 255.654 218.898 255.99 218.694C256.326 218.478 256.578 218.16 256.746 217.74C256.926 217.308 257.016 216.768 257.016 216.12V211.602H261.75V219H262.686V210.72ZM265.427 215.094H272.573C272.585 215.022 272.591 214.95 272.591 214.878C272.603 214.794 272.609 214.716 272.609 214.644C272.609 213.816 272.441 213.096 272.105 212.484C271.781 211.872 271.331 211.398 270.755 211.062C270.179 210.714 269.531 210.54 268.811 210.54C268.151 210.54 267.551 210.678 267.011 210.954C266.471 211.218 266.027 211.596 265.679 212.088C265.331 212.568 265.085 213.126 264.941 213.762C264.905 213.942 264.875 214.122 264.851 214.302C264.839 214.47 264.833 214.65 264.833 214.842C264.833 215.67 265.001 216.414 265.337 217.074C265.673 217.734 266.129 218.25 266.705 218.622C267.293 218.994 267.947 219.18 268.667 219.18C269.399 219.18 269.999 219.084 270.467 218.892C270.935 218.688 271.325 218.43 271.637 218.118C271.949 217.794 272.225 217.446 272.465 217.074L271.709 216.588C271.529 216.888 271.307 217.17 271.043 217.434C270.791 217.686 270.479 217.896 270.107 218.064C269.747 218.22 269.303 218.298 268.775 218.298C268.187 218.298 267.665 218.16 267.209 217.884C266.765 217.596 266.417 217.194 266.165 216.678C265.913 216.15 265.787 215.538 265.787 214.842L265.805 214.518C265.805 213.87 265.943 213.312 266.219 212.844C266.495 212.364 266.861 211.998 267.317 211.746C267.773 211.494 268.271 211.368 268.811 211.368C269.351 211.368 269.825 211.494 270.233 211.746C270.653 211.998 270.983 212.346 271.223 212.79C271.463 213.222 271.583 213.72 271.583 214.284H265.427V215.094ZM283.169 219H284.231L282.071 210.09L281.567 211.782L283.169 219ZM278.507 218.19L278.831 219.558L282.161 212.106L282.071 210.09L278.507 218.19ZM278.831 219.558L279.155 218.19L275.645 210.09L275.555 212.106L278.831 219.558ZM273.485 219H274.565L276.149 211.782L275.645 210.09L273.485 219ZM292.968 210.72V219H293.904V210.72H292.968ZM285.678 210.72V219H286.614V210.72H285.678ZM286.2 214.68H288.594C289.23 214.68 289.734 214.83 290.106 215.13C290.49 215.418 290.682 215.85 290.682 216.426C290.682 216.822 290.592 217.152 290.412 217.416C290.244 217.668 290.004 217.86 289.692 217.992C289.38 218.112 289.014 218.172 288.594 218.172H286.2V219H288.594C289.17 219 289.686 218.91 290.142 218.73C290.598 218.55 290.958 218.268 291.222 217.884C291.486 217.5 291.618 217.014 291.618 216.426C291.618 215.538 291.324 214.89 290.736 214.482C290.16 214.062 289.446 213.852 288.594 213.852H286.2V214.68ZM54.566 239.86C54.566 239.188 54.71 238.594 54.998 238.078C55.286 237.562 55.676 237.16 56.168 236.872C56.672 236.572 57.236 236.422 57.86 236.422C58.304 236.422 58.718 236.488 59.102 236.62C59.486 236.752 59.816 236.92 60.092 237.124C60.38 237.328 60.584 237.544 60.704 237.772V236.602C60.452 236.314 60.062 236.068 59.534 235.864C59.018 235.648 58.46 235.54 57.86 235.54C57.056 235.54 56.336 235.726 55.7 236.098C55.064 236.47 54.554 236.98 54.17 237.628C53.798 238.276 53.612 239.02 53.612 239.86C53.612 240.688 53.798 241.432 54.17 242.092C54.554 242.74 55.064 243.25 55.7 243.622C56.336 243.994 57.056 244.18 57.86 244.18C58.46 244.18 59.018 244.078 59.534 243.874C60.062 243.67 60.452 243.418 60.704 243.118V241.948C60.584 242.164 60.38 242.38 60.092 242.596C59.816 242.8 59.486 242.968 59.102 243.1C58.718 243.232 58.304 243.298 57.86 243.298C57.236 243.298 56.672 243.154 56.168 242.866C55.676 242.566 55.286 242.158 54.998 241.642C54.71 241.126 54.566 240.532 54.566 239.86ZM74.5882 235.72H68.3422V244H69.2782V236.602H73.6522V244H74.5882V235.72ZM76.6415 239.86C76.6415 240.688 76.8275 241.432 77.1995 242.092C77.5715 242.74 78.0755 243.25 78.7115 243.622C79.3595 243.994 80.0855 244.18 80.8895 244.18C81.6935 244.18 82.4135 243.994 83.0495 243.622C83.6975 243.25 84.2075 242.74 84.5795 242.092C84.9515 241.432 85.1375 240.688 85.1375 239.86C85.1375 239.02 84.9515 238.276 84.5795 237.628C84.2075 236.98 83.6975 236.47 83.0495 236.098C82.4135 235.726 81.6935 235.54 80.8895 235.54C80.0855 235.54 79.3595 235.726 78.7115 236.098C78.0755 236.47 77.5715 236.98 77.1995 237.628C76.8275 238.276 76.6415 239.02 76.6415 239.86ZM77.5955 239.86C77.5955 239.188 77.7395 238.594 78.0275 238.078C78.3155 237.562 78.7055 237.16 79.1975 236.872C79.7015 236.572 80.2655 236.422 80.8895 236.422C81.5135 236.422 82.0715 236.572 82.5635 236.872C83.0675 237.16 83.4635 237.568 83.7515 238.096C84.0395 238.612 84.1835 239.2 84.1835 239.86C84.1835 240.532 84.0395 241.126 83.7515 241.642C83.4635 242.158 83.0675 242.566 82.5635 242.866C82.0715 243.154 81.5135 243.298 80.8895 243.298C80.2655 243.298 79.7015 243.154 79.1975 242.866C78.7055 242.566 78.3155 242.158 78.0275 241.642C77.7395 241.126 77.5955 240.532 77.5955 239.86ZM93.5416 236.53L93.6316 235.09L87.2956 243.19L87.2056 244.63L93.5416 236.53ZM88.1416 235.72H87.2056V244.63L88.1416 243.298V235.72ZM93.6316 235.09L92.6956 236.422V244H93.6316V235.09ZM96.6305 239.86C96.6305 239.188 96.7745 238.594 97.0625 238.078C97.3505 237.562 97.7405 237.16 98.2325 236.872C98.7365 236.572 99.3005 236.422 99.9245 236.422C100.368 236.422 100.782 236.488 101.166 236.62C101.55 236.752 101.88 236.92 102.156 237.124C102.444 237.328 102.648 237.544 102.768 237.772V236.602C102.516 236.314 102.126 236.068 101.598 235.864C101.082 235.648 100.524 235.54 99.9245 235.54C99.1205 235.54 98.4005 235.726 97.7645 236.098C97.1285 236.47 96.6185 236.98 96.2345 237.628C95.8625 238.276 95.6765 239.02 95.6765 239.86C95.6765 240.688 95.8625 241.432 96.2345 242.092C96.6185 242.74 97.1285 243.25 97.7645 243.622C98.4005 243.994 99.1205 244.18 99.9245 244.18C100.524 244.18 101.082 244.078 101.598 243.874C102.126 243.67 102.516 243.418 102.768 243.118V241.948C102.648 242.164 102.444 242.38 102.156 242.596C101.88 242.8 101.55 242.968 101.166 243.1C100.782 243.232 100.368 243.298 99.9245 243.298C99.3005 243.298 98.7365 243.154 98.2325 242.866C97.7405 242.566 97.3505 242.158 97.0625 241.642C96.7745 241.126 96.6305 240.532 96.6305 239.86ZM104.992 235.72V244H105.928V235.72H104.992ZM109.474 235.72L105.586 239.14L109.834 244H111.022L106.774 239.14L110.68 235.72H109.474ZM112.026 239.86C112.026 240.688 112.212 241.432 112.584 242.092C112.956 242.74 113.46 243.25 114.096 243.622C114.744 243.994 115.47 244.18 116.274 244.18C117.078 244.18 117.798 243.994 118.434 243.622C119.082 243.25 119.592 242.74 119.964 242.092C120.336 241.432 120.522 240.688 120.522 239.86C120.522 239.02 120.336 238.276 119.964 237.628C119.592 236.98 119.082 236.47 118.434 236.098C117.798 235.726 117.078 235.54 116.274 235.54C115.47 235.54 114.744 235.726 114.096 236.098C113.46 236.47 112.956 236.98 112.584 237.628C112.212 238.276 112.026 239.02 112.026 239.86ZM112.98 239.86C112.98 239.188 113.124 238.594 113.412 238.078C113.7 237.562 114.09 237.16 114.582 236.872C115.086 236.572 115.65 236.422 116.274 236.422C116.898 236.422 117.456 236.572 117.948 236.872C118.452 237.16 118.848 237.568 119.136 238.096C119.424 238.612 119.568 239.2 119.568 239.86C119.568 240.532 119.424 241.126 119.136 241.642C118.848 242.158 118.452 242.566 117.948 242.866C117.456 243.154 116.898 243.298 116.274 243.298C115.65 243.298 115.086 243.154 114.582 242.866C114.09 242.566 113.7 242.158 113.412 241.642C113.124 241.126 112.98 240.532 112.98 239.86ZM130.924 244H131.986L129.826 235.09L129.322 236.782L130.924 244ZM126.262 243.19L126.586 244.558L129.916 237.106L129.826 235.09L126.262 243.19ZM126.586 244.558L126.91 243.19L123.4 235.09L123.31 237.106L126.586 244.558ZM121.24 244H122.32L123.904 236.782L123.4 235.09L121.24 244ZM145.076 235.72H138.83V244H139.766V236.602H144.14V244H145.076V235.72ZM147.994 241.57C147.994 241.15 148.102 240.796 148.318 240.508C148.534 240.22 148.828 240.004 149.2 239.86C149.584 239.704 150.016 239.626 150.496 239.626C151.06 239.626 151.546 239.704 151.954 239.86C152.374 240.004 152.752 240.202 153.088 240.454V239.878C152.992 239.77 152.83 239.638 152.602 239.482C152.386 239.326 152.098 239.188 151.738 239.068C151.39 238.948 150.964 238.888 150.46 238.888C149.812 238.888 149.23 238.996 148.714 239.212C148.198 239.416 147.79 239.722 147.49 240.13C147.19 240.526 147.04 241.018 147.04 241.606C147.04 242.194 147.172 242.68 147.436 243.064C147.7 243.436 148.042 243.718 148.462 243.91C148.894 244.09 149.356 244.18 149.848 244.18C150.436 244.18 150.958 244.066 151.414 243.838C151.882 243.598 152.248 243.274 152.512 242.866C152.788 242.446 152.926 241.972 152.926 241.444L152.71 240.904C152.71 241.42 152.596 241.858 152.368 242.218C152.14 242.578 151.822 242.854 151.414 243.046C151.018 243.238 150.568 243.334 150.064 243.334C149.704 243.334 149.362 243.274 149.038 243.154C148.726 243.022 148.474 242.83 148.282 242.578C148.09 242.314 147.994 241.978 147.994 241.57ZM148.228 237.358C148.396 237.214 148.6 237.064 148.84 236.908C149.092 236.752 149.38 236.626 149.704 236.53C150.028 236.422 150.388 236.368 150.784 236.368C151.36 236.368 151.822 236.524 152.17 236.836C152.53 237.136 152.71 237.568 152.71 238.132V244H153.646V238.132C153.646 237.592 153.532 237.13 153.304 236.746C153.076 236.362 152.746 236.068 152.314 235.864C151.894 235.648 151.384 235.54 150.784 235.54C150.076 235.54 149.47 235.66 148.966 235.9C148.474 236.14 148.072 236.386 147.76 236.638L148.228 237.358ZM157.432 247.96V235.72H156.496V247.96H157.432ZM164.506 239.86C164.506 238.96 164.326 238.192 163.966 237.556C163.618 236.908 163.138 236.41 162.526 236.062C161.926 235.714 161.254 235.54 160.51 235.54C159.814 235.54 159.202 235.732 158.674 236.116C158.146 236.488 157.732 236.998 157.432 237.646C157.144 238.294 157 239.032 157 239.86C157 240.676 157.144 241.414 157.432 242.074C157.732 242.722 158.146 243.238 158.674 243.622C159.202 243.994 159.814 244.18 160.51 244.18C161.254 244.18 161.926 244.006 162.526 243.658C163.138 243.31 163.618 242.812 163.966 242.164C164.326 241.516 164.506 240.748 164.506 239.86ZM163.57 239.86C163.57 240.58 163.426 241.198 163.138 241.714C162.85 242.23 162.466 242.626 161.986 242.902C161.506 243.166 160.972 243.298 160.384 243.298C159.88 243.298 159.4 243.148 158.944 242.848C158.488 242.548 158.122 242.14 157.846 241.624C157.57 241.108 157.432 240.52 157.432 239.86C157.432 239.2 157.57 238.612 157.846 238.096C158.122 237.58 158.488 237.172 158.944 236.872C159.4 236.572 159.88 236.422 160.384 236.422C160.972 236.422 161.506 236.56 161.986 236.836C162.466 237.1 162.85 237.49 163.138 238.006C163.426 238.522 163.57 239.14 163.57 239.86ZM166.762 235.72V244H167.698V235.72H166.762ZM171.244 235.72L167.356 239.14L171.604 244H172.792L168.544 239.14L172.45 235.72H171.244ZM173.796 239.86C173.796 240.688 173.982 241.432 174.354 242.092C174.726 242.74 175.23 243.25 175.866 243.622C176.514 243.994 177.24 244.18 178.044 244.18C178.848 244.18 179.568 243.994 180.204 243.622C180.852 243.25 181.362 242.74 181.734 242.092C182.106 241.432 182.292 240.688 182.292 239.86C182.292 239.02 182.106 238.276 181.734 237.628C181.362 236.98 180.852 236.47 180.204 236.098C179.568 235.726 178.848 235.54 178.044 235.54C177.24 235.54 176.514 235.726 175.866 236.098C175.23 236.47 174.726 236.98 174.354 237.628C173.982 238.276 173.796 239.02 173.796 239.86ZM174.75 239.86C174.75 239.188 174.894 238.594 175.182 238.078C175.47 237.562 175.86 237.16 176.352 236.872C176.856 236.572 177.42 236.422 178.044 236.422C178.668 236.422 179.226 236.572 179.718 236.872C180.222 237.16 180.618 237.568 180.906 238.096C181.194 238.612 181.338 239.2 181.338 239.86C181.338 240.532 181.194 241.126 180.906 241.642C180.618 242.158 180.222 242.566 179.718 242.866C179.226 243.154 178.668 243.298 178.044 243.298C177.42 243.298 176.856 243.154 176.352 242.866C175.86 242.566 175.47 242.158 175.182 241.642C174.894 241.126 174.75 240.532 174.75 239.86ZM184.81 239.752V240.238H187.204C187.48 240.238 187.744 240.262 187.996 240.31C188.248 240.358 188.47 240.436 188.662 240.544C188.854 240.652 189.004 240.796 189.112 240.976C189.232 241.144 189.292 241.366 189.292 241.642C189.292 242.062 189.136 242.422 188.824 242.722C188.524 243.022 188.032 243.172 187.348 243.172H184.81V244H187.564C188.512 244 189.19 243.784 189.598 243.352C190.018 242.908 190.228 242.374 190.228 241.75C190.228 241.21 190.096 240.796 189.832 240.508C189.568 240.22 189.208 240.022 188.752 239.914C188.296 239.806 187.78 239.752 187.204 239.752H184.81ZM184.81 239.968H187.024C187.54 239.968 188.008 239.902 188.428 239.77C188.86 239.626 189.208 239.41 189.472 239.122C189.736 238.822 189.868 238.438 189.868 237.97C189.868 237.43 189.736 236.998 189.472 236.674C189.208 236.338 188.86 236.098 188.428 235.954C188.008 235.798 187.54 235.72 187.024 235.72H184.81V236.548H187.024C187.588 236.548 188.044 236.674 188.392 236.926C188.752 237.178 188.932 237.544 188.932 238.024C188.932 238.276 188.872 238.492 188.752 238.672C188.644 238.84 188.494 238.984 188.302 239.104C188.122 239.224 187.918 239.308 187.69 239.356C187.462 239.404 187.24 239.428 187.024 239.428H184.81V239.968ZM184.27 235.72V244H185.206V235.72H184.27ZM191.462 239.86C191.462 240.688 191.648 241.432 192.02 242.092C192.392 242.74 192.896 243.25 193.532 243.622C194.18 243.994 194.906 244.18 195.71 244.18C196.514 244.18 197.234 243.994 197.87 243.622C198.518 243.25 199.028 242.74 199.4 242.092C199.772 241.432 199.958 240.688 199.958 239.86C199.958 239.02 199.772 238.276 199.4 237.628C199.028 236.98 198.518 236.47 197.87 236.098C197.234 235.726 196.514 235.54 195.71 235.54C194.906 235.54 194.18 235.726 193.532 236.098C192.896 236.47 192.392 236.98 192.02 237.628C191.648 238.276 191.462 239.02 191.462 239.86ZM192.416 239.86C192.416 239.188 192.56 238.594 192.848 238.078C193.136 237.562 193.526 237.16 194.018 236.872C194.522 236.572 195.086 236.422 195.71 236.422C196.334 236.422 196.892 236.572 197.384 236.872C197.888 237.16 198.284 237.568 198.572 238.096C198.86 238.612 199.004 239.2 199.004 239.86C199.004 240.532 198.86 241.126 198.572 241.642C198.284 242.158 197.888 242.566 197.384 242.866C196.892 243.154 196.334 243.298 195.71 243.298C195.086 243.298 194.522 243.154 194.018 242.866C193.526 242.566 193.136 242.158 192.848 241.642C192.56 241.126 192.416 240.532 192.416 239.86ZM204.726 241.48H207.192V240.598H204.726V241.48ZM206.526 235.72V244H207.462V235.72H206.526ZM202.422 235.72H201.486V238.096C201.486 238.9 201.582 239.554 201.774 240.058C201.966 240.55 202.296 240.91 202.764 241.138C203.244 241.366 203.898 241.48 204.726 241.48V240.598C204.15 240.598 203.694 240.52 203.358 240.364C203.022 240.196 202.782 239.932 202.638 239.572C202.494 239.2 202.422 238.708 202.422 238.096V235.72ZM210.721 240.058H216.769V239.176H210.721V240.058ZM216.193 235.72V244H217.129V235.72H216.193ZM210.163 235.72V244H211.099V235.72H210.163ZM227.12 235.72V244H228.056V235.72H227.12ZM219.83 235.72V244H220.766V235.72H219.83ZM220.352 239.68H222.746C223.382 239.68 223.886 239.83 224.258 240.13C224.642 240.418 224.834 240.85 224.834 241.426C224.834 241.822 224.744 242.152 224.564 242.416C224.396 242.668 224.156 242.86 223.844 242.992C223.532 243.112 223.166 243.172 222.746 243.172H220.352V244H222.746C223.322 244 223.838 243.91 224.294 243.73C224.75 243.55 225.11 243.268 225.374 242.884C225.638 242.5 225.77 242.014 225.77 241.426C225.77 240.538 225.476 239.89 224.888 239.482C224.312 239.062 223.598 238.852 222.746 238.852H220.352V239.68ZM235.354 235.72L233.05 238.996L230.746 235.72H229.666L232.528 239.734L229.486 244H230.566L233.05 240.472L235.534 244H236.614L233.572 239.734L236.434 235.72H235.354ZM252.143 244H253.205L251.045 235.09L250.541 236.782L252.143 244ZM247.481 243.19L247.805 244.558L251.135 237.106L251.045 235.09L247.481 243.19ZM247.805 244.558L248.129 243.19L244.619 235.09L244.529 237.106L247.805 244.558ZM242.459 244H243.539L245.123 236.782L244.619 235.09L242.459 244ZM254.599 240.094H261.745C261.757 240.022 261.763 239.95 261.763 239.878C261.775 239.794 261.781 239.716 261.781 239.644C261.781 238.816 261.613 238.096 261.277 237.484C260.953 236.872 260.503 236.398 259.927 236.062C259.351 235.714 258.703 235.54 257.983 235.54C257.323 235.54 256.723 235.678 256.183 235.954C255.643 236.218 255.199 236.596 254.851 237.088C254.503 237.568 254.257 238.126 254.113 238.762C254.077 238.942 254.047 239.122 254.023 239.302C254.011 239.47 254.005 239.65 254.005 239.842C254.005 240.67 254.173 241.414 254.509 242.074C254.845 242.734 255.301 243.25 255.877 243.622C256.465 243.994 257.119 244.18 257.839 244.18C258.571 244.18 259.171 244.084 259.639 243.892C260.107 243.688 260.497 243.43 260.809 243.118C261.121 242.794 261.397 242.446 261.637 242.074L260.881 241.588C260.701 241.888 260.479 242.17 260.215 242.434C259.963 242.686 259.651 242.896 259.279 243.064C258.919 243.22 258.475 243.298 257.947 243.298C257.359 243.298 256.837 243.16 256.381 242.884C255.937 242.596 255.589 242.194 255.337 241.678C255.085 241.15 254.959 240.538 254.959 239.842L254.977 239.518C254.977 238.87 255.115 238.312 255.391 237.844C255.667 237.364 256.033 236.998 256.489 236.746C256.945 236.494 257.443 236.368 257.983 236.368C258.523 236.368 258.997 236.494 259.405 236.746C259.825 236.998 260.155 237.346 260.395 237.79C260.635 238.222 260.755 238.72 260.755 239.284H254.599V240.094ZM264.132 239.86C264.132 239.188 264.276 238.594 264.564 238.078C264.852 237.562 265.242 237.16 265.734 236.872C266.238 236.572 266.802 236.422 267.426 236.422C267.87 236.422 268.284 236.488 268.668 236.62C269.052 236.752 269.382 236.92 269.658 237.124C269.946 237.328 270.15 237.544 270.27 237.772V236.602C270.018 236.314 269.628 236.068 269.1 235.864C268.584 235.648 268.026 235.54 267.426 235.54C266.622 235.54 265.902 235.726 265.266 236.098C264.63 236.47 264.12 236.98 263.736 237.628C263.364 238.276 263.178 239.02 263.178 239.86C263.178 240.688 263.364 241.432 263.736 242.092C264.12 242.74 264.63 243.25 265.266 243.622C265.902 243.994 266.622 244.18 267.426 244.18C268.026 244.18 268.584 244.078 269.1 243.874C269.628 243.67 270.018 243.418 270.27 243.118V241.948C270.15 242.164 269.946 242.38 269.658 242.596C269.382 242.8 269.052 242.968 268.668 243.1C268.284 243.232 267.87 243.298 267.426 243.298C266.802 243.298 266.238 243.154 265.734 242.866C265.242 242.566 264.852 242.158 264.564 241.642C264.276 241.126 264.132 240.532 264.132 239.86ZM271.252 235.72V236.602H276.112V235.72H271.252ZM273.214 235.972V244H274.15V235.972H273.214ZM54.89 264.752V265.238H57.284C57.56 265.238 57.824 265.262 58.076 265.31C58.328 265.358 58.55 265.436 58.742 265.544C58.934 265.652 59.084 265.796 59.192 265.976C59.312 266.144 59.372 266.366 59.372 266.642C59.372 267.062 59.216 267.422 58.904 267.722C58.604 268.022 58.112 268.172 57.428 268.172H54.89V269H57.644C58.592 269 59.27 268.784 59.678 268.352C60.098 267.908 60.308 267.374 60.308 266.75C60.308 266.21 60.176 265.796 59.912 265.508C59.648 265.22 59.288 265.022 58.832 264.914C58.376 264.806 57.86 264.752 57.284 264.752H54.89ZM54.89 264.968H57.104C57.62 264.968 58.088 264.902 58.508 264.77C58.94 264.626 59.288 264.41 59.552 264.122C59.816 263.822 59.948 263.438 59.948 262.97C59.948 262.43 59.816 261.998 59.552 261.674C59.288 261.338 58.94 261.098 58.508 260.954C58.088 260.798 57.62 260.72 57.104 260.72H54.89V261.548H57.104C57.668 261.548 58.124 261.674 58.472 261.926C58.832 262.178 59.012 262.544 59.012 263.024C59.012 263.276 58.952 263.492 58.832 263.672C58.724 263.84 58.574 263.984 58.382 264.104C58.202 264.224 57.998 264.308 57.77 264.356C57.542 264.404 57.32 264.428 57.104 264.428H54.89V264.968ZM54.35 260.72V269H55.286V260.72H54.35ZM61.5418 264.86C61.5418 265.688 61.7278 266.432 62.0998 267.092C62.4718 267.74 62.9758 268.25 63.6118 268.622C64.2598 268.994 64.9858 269.18 65.7898 269.18C66.5938 269.18 67.3138 268.994 67.9498 268.622C68.5978 268.25 69.1078 267.74 69.4798 267.092C69.8518 266.432 70.0378 265.688 70.0378 264.86C70.0378 264.02 69.8518 263.276 69.4798 262.628C69.1078 261.98 68.5978 261.47 67.9498 261.098C67.3138 260.726 66.5938 260.54 65.7898 260.54C64.9858 260.54 64.2598 260.726 63.6118 261.098C62.9758 261.47 62.4718 261.98 62.0998 262.628C61.7278 263.276 61.5418 264.02 61.5418 264.86ZM62.4958 264.86C62.4958 264.188 62.6398 263.594 62.9278 263.078C63.2158 262.562 63.6058 262.16 64.0978 261.872C64.6018 261.572 65.1658 261.422 65.7898 261.422C66.4138 261.422 66.9718 261.572 67.4638 261.872C67.9678 262.16 68.3638 262.568 68.6518 263.096C68.9398 263.612 69.0838 264.2 69.0838 264.86C69.0838 265.532 68.9398 266.126 68.6518 266.642C68.3638 267.158 67.9678 267.566 67.4638 267.866C66.9718 268.154 66.4138 268.298 65.7898 268.298C65.1658 268.298 64.6018 268.154 64.0978 267.866C63.6058 267.566 63.2158 267.158 62.9278 266.642C62.6398 266.126 62.4958 265.532 62.4958 264.86ZM81.9125 262.142L84.9185 268.604H85.9625L81.9125 260.09L77.8625 268.604H78.9065L81.9125 262.142ZM86.1065 269V270.62H87.0425V268.118H76.7825V270.62H77.7725V269H86.1065ZM89.7474 264.752V265.238H92.1414C92.4174 265.238 92.6814 265.262 92.9334 265.31C93.1854 265.358 93.4074 265.436 93.5994 265.544C93.7914 265.652 93.9414 265.796 94.0494 265.976C94.1694 266.144 94.2294 266.366 94.2294 266.642C94.2294 267.062 94.0734 267.422 93.7614 267.722C93.4614 268.022 92.9694 268.172 92.2854 268.172H89.7474V269H92.5014C93.4494 269 94.1274 268.784 94.5354 268.352C94.9554 267.908 95.1654 267.374 95.1654 266.75C95.1654 266.21 95.0334 265.796 94.7694 265.508C94.5054 265.22 94.1454 265.022 93.6894 264.914C93.2334 264.806 92.7174 264.752 92.1414 264.752H89.7474ZM89.7474 264.968H91.9614C92.4774 264.968 92.9454 264.902 93.3654 264.77C93.7974 264.626 94.1454 264.41 94.4094 264.122C94.6734 263.822 94.8054 263.438 94.8054 262.97C94.8054 262.43 94.6734 261.998 94.4094 261.674C94.1454 261.338 93.7974 261.098 93.3654 260.954C92.9454 260.798 92.4774 260.72 91.9614 260.72H89.7474V261.548H91.9614C92.5254 261.548 92.9814 261.674 93.3294 261.926C93.6894 262.178 93.8694 262.544 93.8694 263.024C93.8694 263.276 93.8094 263.492 93.6894 263.672C93.5814 263.84 93.4314 263.984 93.2394 264.104C93.0594 264.224 92.8554 264.308 92.6274 264.356C92.3994 264.404 92.1774 264.428 91.9614 264.428H89.7474V264.968ZM89.2074 260.72V269H90.1434V260.72H89.2074ZM96.3993 264.86C96.3993 265.688 96.5853 266.432 96.9573 267.092C97.3293 267.74 97.8333 268.25 98.4693 268.622C99.1173 268.994 99.8433 269.18 100.647 269.18C101.451 269.18 102.171 268.994 102.807 268.622C103.455 268.25 103.965 267.74 104.337 267.092C104.709 266.432 104.895 265.688 104.895 264.86C104.895 264.02 104.709 263.276 104.337 262.628C103.965 261.98 103.455 261.47 102.807 261.098C102.171 260.726 101.451 260.54 100.647 260.54C99.8433 260.54 99.1173 260.726 98.4693 261.098C97.8333 261.47 97.3293 261.98 96.9573 262.628C96.5853 263.276 96.3993 264.02 96.3993 264.86ZM97.3533 264.86C97.3533 264.188 97.4973 263.594 97.7853 263.078C98.0733 262.562 98.4633 262.16 98.9553 261.872C99.4593 261.572 100.023 261.422 100.647 261.422C101.271 261.422 101.829 261.572 102.321 261.872C102.825 262.16 103.221 262.568 103.509 263.096C103.797 263.612 103.941 264.2 103.941 264.86C103.941 265.532 103.797 266.126 103.509 266.642C103.221 267.158 102.825 267.566 102.321 267.866C101.829 268.154 101.271 268.298 100.647 268.298C100.023 268.298 99.4593 268.154 98.9553 267.866C98.4633 267.566 98.0733 267.158 97.7853 266.642C97.4973 266.126 97.3533 265.532 97.3533 264.86ZM107.791 272.96V260.72H106.855V272.96H107.791ZM114.865 264.86C114.865 263.96 114.685 263.192 114.325 262.556C113.977 261.908 113.497 261.41 112.885 261.062C112.285 260.714 111.613 260.54 110.869 260.54C110.173 260.54 109.561 260.732 109.033 261.116C108.505 261.488 108.091 261.998 107.791 262.646C107.503 263.294 107.359 264.032 107.359 264.86C107.359 265.676 107.503 266.414 107.791 267.074C108.091 267.722 108.505 268.238 109.033 268.622C109.561 268.994 110.173 269.18 110.869 269.18C111.613 269.18 112.285 269.006 112.885 268.658C113.497 268.31 113.977 267.812 114.325 267.164C114.685 266.516 114.865 265.748 114.865 264.86ZM113.929 264.86C113.929 265.58 113.785 266.198 113.497 266.714C113.209 267.23 112.825 267.626 112.345 267.902C111.865 268.166 111.331 268.298 110.743 268.298C110.239 268.298 109.759 268.148 109.303 267.848C108.847 267.548 108.481 267.14 108.205 266.624C107.929 266.108 107.791 265.52 107.791 264.86C107.791 264.2 107.929 263.612 108.205 263.096C108.481 262.58 108.847 262.172 109.303 261.872C109.759 261.572 110.239 261.422 110.743 261.422C111.331 261.422 111.865 261.56 112.345 261.836C112.825 262.1 113.209 262.49 113.497 263.006C113.785 263.522 113.929 264.14 113.929 264.86ZM117.085 265.094H124.231C124.243 265.022 124.249 264.95 124.249 264.878C124.261 264.794 124.267 264.716 124.267 264.644C124.267 263.816 124.099 263.096 123.763 262.484C123.439 261.872 122.989 261.398 122.413 261.062C121.837 260.714 121.189 260.54 120.469 260.54C119.809 260.54 119.209 260.678 118.669 260.954C118.129 261.218 117.685 261.596 117.337 262.088C116.989 262.568 116.743 263.126 116.599 263.762C116.563 263.942 116.533 264.122 116.509 264.302C116.497 264.47 116.491 264.65 116.491 264.842C116.491 265.67 116.659 266.414 116.995 267.074C117.331 267.734 117.787 268.25 118.363 268.622C118.951 268.994 119.605 269.18 120.325 269.18C121.057 269.18 121.657 269.084 122.125 268.892C122.593 268.688 122.983 268.43 123.295 268.118C123.607 267.794 123.883 267.446 124.123 267.074L123.367 266.588C123.187 266.888 122.965 267.17 122.701 267.434C122.449 267.686 122.137 267.896 121.765 268.064C121.405 268.22 120.961 268.298 120.433 268.298C119.845 268.298 119.323 268.16 118.867 267.884C118.423 267.596 118.075 267.194 117.823 266.678C117.571 266.15 117.445 265.538 117.445 264.842L117.463 264.518C117.463 263.87 117.601 263.312 117.877 262.844C118.153 262.364 118.519 261.998 118.975 261.746C119.431 261.494 119.929 261.368 120.469 261.368C121.009 261.368 121.483 261.494 121.891 261.746C122.311 261.998 122.641 262.346 122.881 262.79C123.121 263.222 123.241 263.72 123.241 264.284H117.085V265.094ZM138.225 261.53L138.315 260.09L131.979 268.19L131.889 269.63L138.225 261.53ZM132.825 260.72H131.889V269.63L132.825 268.298V260.72ZM138.315 260.09L137.379 261.422V269H138.315V260.09ZM147.848 260.72H141.242V266.12C141.242 266.816 141.11 267.326 140.846 267.65C140.594 267.974 140.288 268.136 139.928 268.136V269C140.408 269 140.816 268.898 141.152 268.694C141.488 268.478 141.74 268.16 141.908 267.74C142.088 267.308 142.178 266.768 142.178 266.12V261.602H146.912V269H147.848V260.72ZM157.069 261.53L157.159 260.09L150.823 268.19L150.733 269.63L157.069 261.53ZM151.669 260.72H150.733V269.63L151.669 268.298V260.72ZM157.159 260.09L156.223 261.422V269H157.159V260.09ZM165.896 265.058H171.944V264.176H165.896V265.058ZM171.368 260.72V269H172.304V260.72H171.368ZM165.338 260.72V269H166.274V260.72H165.338ZM175.222 266.57C175.222 266.15 175.33 265.796 175.546 265.508C175.762 265.22 176.056 265.004 176.428 264.86C176.812 264.704 177.244 264.626 177.724 264.626C178.288 264.626 178.774 264.704 179.182 264.86C179.602 265.004 179.98 265.202 180.316 265.454V264.878C180.22 264.77 180.058 264.638 179.83 264.482C179.614 264.326 179.326 264.188 178.966 264.068C178.618 263.948 178.192 263.888 177.688 263.888C177.04 263.888 176.458 263.996 175.942 264.212C175.426 264.416 175.018 264.722 174.718 265.13C174.418 265.526 174.268 266.018 174.268 266.606C174.268 267.194 174.4 267.68 174.664 268.064C174.928 268.436 175.27 268.718 175.69 268.91C176.122 269.09 176.584 269.18 177.076 269.18C177.664 269.18 178.186 269.066 178.642 268.838C179.11 268.598 179.476 268.274 179.74 267.866C180.016 267.446 180.154 266.972 180.154 266.444L179.938 265.904C179.938 266.42 179.824 266.858 179.596 267.218C179.368 267.578 179.05 267.854 178.642 268.046C178.246 268.238 177.796 268.334 177.292 268.334C176.932 268.334 176.59 268.274 176.266 268.154C175.954 268.022 175.702 267.83 175.51 267.578C175.318 267.314 175.222 266.978 175.222 266.57ZM175.456 262.358C175.624 262.214 175.828 262.064 176.068 261.908C176.32 261.752 176.608 261.626 176.932 261.53C177.256 261.422 177.616 261.368 178.012 261.368C178.588 261.368 179.05 261.524 179.398 261.836C179.758 262.136 179.938 262.568 179.938 263.132V269H180.874V263.132C180.874 262.592 180.76 262.13 180.532 261.746C180.304 261.362 179.974 261.068 179.542 260.864C179.122 260.648 178.612 260.54 178.012 260.54C177.304 260.54 176.698 260.66 176.194 260.9C175.702 261.14 175.3 261.386 174.988 261.638L175.456 262.358ZM195.529 260.72H194.485L191.551 267.74L191.983 267.776L188.977 260.72H187.861L191.209 268.154L189.085 272.96H190.129L195.529 260.72ZM203.817 260.72H197.211V266.12C197.211 266.816 197.079 267.326 196.815 267.65C196.563 267.974 196.257 268.136 195.897 268.136V269C196.377 269 196.785 268.898 197.121 268.694C197.457 268.478 197.709 268.16 197.877 267.74C198.057 267.308 198.147 266.768 198.147 266.12V261.602H202.881V269H203.817V260.72ZM213.038 261.53L213.128 260.09L206.792 268.19L206.702 269.63L213.038 261.53ZM207.638 260.72H206.702V269.63L207.638 268.298V260.72ZM213.128 260.09L212.192 261.422V269H213.128V260.09ZM222.157 268.118V260.72H221.221V268.118H216.847V260.72H215.911V269H222.769V270.62H223.597V268.118H222.157ZM225.525 265.094H232.671C232.683 265.022 232.689 264.95 232.689 264.878C232.701 264.794 232.707 264.716 232.707 264.644C232.707 263.816 232.539 263.096 232.203 262.484C231.879 261.872 231.429 261.398 230.853 261.062C230.277 260.714 229.629 260.54 228.909 260.54C228.249 260.54 227.649 260.678 227.109 260.954C226.569 261.218 226.125 261.596 225.777 262.088C225.429 262.568 225.183 263.126 225.039 263.762C225.003 263.942 224.973 264.122 224.949 264.302C224.937 264.47 224.931 264.65 224.931 264.842C224.931 265.67 225.099 266.414 225.435 267.074C225.771 267.734 226.227 268.25 226.803 268.622C227.391 268.994 228.045 269.18 228.765 269.18C229.497 269.18 230.097 269.084 230.565 268.892C231.033 268.688 231.423 268.43 231.735 268.118C232.047 267.794 232.323 267.446 232.563 267.074L231.807 266.588C231.627 266.888 231.405 267.17 231.141 267.434C230.889 267.686 230.577 267.896 230.205 268.064C229.845 268.22 229.401 268.298 228.873 268.298C228.285 268.298 227.763 268.16 227.307 267.884C226.863 267.596 226.515 267.194 226.263 266.678C226.011 266.15 225.885 265.538 225.885 264.842L225.903 264.518C225.903 263.87 226.041 263.312 226.317 262.844C226.593 262.364 226.959 261.998 227.415 261.746C227.871 261.494 228.369 261.368 228.909 261.368C229.449 261.368 229.923 261.494 230.331 261.746C230.751 261.998 231.081 262.346 231.321 262.79C231.561 263.222 231.681 263.72 231.681 264.284H225.525V265.094Z" fill="white"/>
<defs>
<filter id="filter0_bdi_322_249" x="-46" y="-49.3847" width="640" height="415.765" filterUnits="userSpaceOnUse" color-interpolation-filters="sRGB">
<feFlood flood-opacity="0" result="BackgroundImageFix"/>
<feGaussianBlur in="BackgroundImageFix" stdDeviation="25"/>
<feComposite in2="SourceAlpha" operator="in" result="effect1_backgroundBlur_322_249"/>
<feColorMatrix in="SourceAlpha" type="matrix" values="0 0 0 0 0 0 0 0 0 0 0 0 0 0 0 0 0 0 127 0" result="hardAlpha"/>
<feOffset dy="4"/>
<feGaussianBlur stdDeviation="2"/>
<feComposite in2="hardAlpha" operator="out"/>
<feColorMatrix type="matrix" values="0 0 0 0 0 0 0 0 0 0 0 0 0 0 0 0 0 0 0.25 0"/>
<feBlend mode="normal" in2="effect1_backgroundBlur_322_249" result="effect2_dropShadow_322_249"/>
<feBlend mode="normal" in="SourceGraphic" in2="effect2_dropShadow_322_249" result="shape"/>
<feColorMatrix in="SourceAlpha" type="matrix" values="0 0 0 0 0 0 0 0 0 0 0 0 0 0 0 0 0 0 127 0" result="hardAlpha"/>
<feMorphology radius="1" operator="erode" in="SourceAlpha" result="effect3_innerShadow_322_249"/>
<feOffset/>
<feGaussianBlur stdDeviation="4"/>
<feComposite in2="hardAlpha" operator="arithmetic" k2="-1" k3="1"/>
<feColorMatrix type="matrix" values="0 0 0 0 1 0 0 0 0 1 0 0 0 0 1 0 0 0 0.1 0"/>
<feBlend mode="normal" in2="shape" result="effect3_innerShadow_322_249"/>
</filter>
<filter id="filter1_d_322_249" x="316.896" y="97.2689" width="178.175" height="178.175" filterUnits="userSpaceOnUse" color-interpolation-filters="sRGB">
<feFlood flood-opacity="0" result="BackgroundImageFix"/>
<feColorMatrix in="SourceAlpha" type="matrix" values="0 0 0 0 0 0 0 0 0 0 0 0 0 0 0 0 0 0 127 0" result="hardAlpha"/>
<feMorphology radius="2" operator="dilate" in="SourceAlpha" result="effect1_dropShadow_322_249"/>
<feOffset/>
<feComposite in2="hardAlpha" operator="out"/>
<feColorMatrix type="matrix" values="0 0 0 0 1 0 0 0 0 1 0 0 0 0 1 0 0 0 1 0"/>
<feBlend mode="normal" in2="BackgroundImageFix" result="effect1_dropShadow_322_249"/>
<feBlend mode="normal" in="SourceGraphic" in2="effect1_dropShadow_322_249" result="shape"/>
</filter>
</defs>
</svg>
