<svg width="343" height="200" viewBox="0 0 343 200" fill="none" xmlns="http://www.w3.org/2000/svg">
<g filter="url(#filter0_bdi_322_804)">
<path d="M4 30.3211C4 13.7526 17.4315 0.321106 34 0.321106H309C325.569 0.321106 339 13.7526 339 30.3211V161.203C339 177.772 325.569 191.203 309 191.203H34C17.4315 191.203 4 177.772 4 161.203V30.3211Z" fill="#515151" fill-opacity="0.15" shape-rendering="crispEdges"/>
<path d="M4.5 30.3211C4.5 14.0287 17.7076 0.821106 34 0.821106H309C325.292 0.821106 338.5 14.0287 338.5 30.3211V161.203C338.5 177.496 325.292 190.703 309 190.703H34C17.7076 190.703 4.5 177.496 4.5 161.203V30.3211Z" stroke="white" stroke-opacity="0.1" shape-rendering="crispEdges"/>
</g>
<path d="M25.5605 78.624H37.6565L27.5405 99H33.0845L45.2165 73.8H25.5605V78.624ZM66.2081 90.864C66.2081 89.136 65.8481 87.66 65.1281 86.436C64.4321 85.188 63.5081 84.228 62.3561 83.556C61.2041 82.884 59.9441 82.548 58.5761 82.548C57.8321 82.548 57.1001 82.62 56.3801 82.764C55.6841 82.884 55.0241 83.112 54.4001 83.448L55.9121 78.264H65.8121V73.8H52.0961L48.6401 87.984C49.5041 87.504 50.3201 87.144 51.0881 86.904C51.8801 86.64 52.6481 86.46 53.3921 86.364C54.1361 86.244 54.8441 86.184 55.5161 86.184C56.4281 86.184 57.2681 86.352 58.0361 86.688C58.8281 87 59.4521 87.468 59.9081 88.092C60.3881 88.716 60.6281 89.484 60.6281 90.396C60.6281 91.332 60.4241 92.124 60.0161 92.772C59.6081 93.396 59.0201 93.876 58.2521 94.212C57.5081 94.548 56.5961 94.716 55.5161 94.716C54.8201 94.716 54.0881 94.584 53.3201 94.32C52.5521 94.032 51.8081 93.648 51.0881 93.168C50.3921 92.688 49.7441 92.148 49.1441 91.548L46.7321 95.544C47.4281 96.24 48.2321 96.888 49.1441 97.488C50.0561 98.064 51.1121 98.532 52.3121 98.892C53.5361 99.252 54.9161 99.432 56.4521 99.432C57.6761 99.432 58.8641 99.264 60.0161 98.928C61.1681 98.592 62.2121 98.076 63.1481 97.38C64.0841 96.684 64.8281 95.796 65.3801 94.716C65.9321 93.636 66.2081 92.352 66.2081 90.864ZM72.2963 95.04L69.1283 104.364L72.5843 105.192L76.9403 96.192L72.2963 95.04ZM95.3484 82.476C95.3484 83.412 95.1444 84.24 94.7364 84.96C94.3284 85.68 93.7644 86.244 93.0444 86.652C92.3484 87.06 91.5564 87.264 90.6684 87.264C89.7804 87.264 88.9764 87.06 88.2564 86.652C87.5604 86.244 87.0084 85.68 86.6004 84.96C86.1924 84.24 85.9884 83.412 85.9884 82.476C85.9884 81.516 86.1924 80.688 86.6004 79.992C87.0084 79.272 87.5604 78.72 88.2564 78.336C88.9764 77.928 89.7804 77.724 90.6684 77.724C91.5564 77.724 92.3484 77.928 93.0444 78.336C93.7644 78.72 94.3284 79.272 94.7364 79.992C95.1444 80.688 95.3484 81.516 95.3484 82.476ZM90.2364 98.928L97.9044 88.92C98.6004 88.008 99.1884 87.024 99.6684 85.968C100.148 84.888 100.388 83.724 100.388 82.476C100.388 80.508 99.9444 78.84 99.0564 77.472C98.1924 76.104 97.0284 75.072 95.5644 74.376C94.1004 73.656 92.4684 73.296 90.6684 73.296C88.8684 73.296 87.2364 73.656 85.7724 74.376C84.3084 75.072 83.1324 76.104 82.2444 77.472C81.3804 78.84 80.9484 80.508 80.9484 82.476C80.9484 83.7 81.1644 84.816 81.5964 85.824C82.0284 86.832 82.6044 87.696 83.3244 88.416C84.0684 89.136 84.8964 89.688 85.8084 90.072C86.7204 90.456 87.6564 90.648 88.6164 90.648C89.5044 90.648 90.2604 90.552 90.8844 90.36C91.5084 90.144 92.1204 89.724 92.7204 89.1L91.8204 89.424L83.7204 98.928H90.2364ZM102.696 88.22C102.696 88.86 102.849 89.4533 103.156 90C103.476 90.5333 103.909 90.96 104.456 91.28C105.002 91.6 105.616 91.76 106.296 91.76C106.989 91.76 107.602 91.6 108.136 91.28C108.682 90.96 109.109 90.5333 109.416 90C109.722 89.4533 109.876 88.86 109.876 88.22C109.876 87.5533 109.722 86.9533 109.416 86.42C109.109 85.8867 108.682 85.4667 108.136 85.16C107.602 84.84 106.989 84.68 106.296 84.68C105.616 84.68 105.002 84.84 104.456 85.16C103.909 85.4667 103.476 85.8867 103.156 86.42C102.849 86.9533 102.696 87.5533 102.696 88.22ZM104.856 88.22C104.856 87.94 104.916 87.6867 105.036 87.46C105.156 87.2333 105.322 87.0533 105.536 86.92C105.749 86.7733 106.002 86.7 106.296 86.7C106.589 86.7 106.836 86.7733 107.036 86.92C107.249 87.0533 107.416 87.2333 107.536 87.46C107.656 87.6867 107.716 87.94 107.716 88.22C107.716 88.4867 107.656 88.74 107.536 88.98C107.416 89.2067 107.249 89.3867 107.036 89.52C106.836 89.6533 106.589 89.72 106.296 89.72C106.002 89.72 105.749 89.6533 105.536 89.52C105.322 89.3867 105.156 89.2067 105.036 88.98C104.916 88.74 104.856 88.4867 104.856 88.22ZM111.796 95.78C111.796 96.4333 111.949 97.0267 112.256 97.56C112.576 98.0933 113.009 98.52 113.556 98.84C114.102 99.16 114.716 99.32 115.396 99.32C116.089 99.32 116.702 99.16 117.236 98.84C117.782 98.52 118.209 98.0933 118.516 97.56C118.822 97.0267 118.976 96.4333 118.976 95.78C118.976 95.1267 118.822 94.5333 118.516 94C118.209 93.4533 117.782 93.0267 117.236 92.72C116.702 92.4 116.089 92.24 115.396 92.24C114.716 92.24 114.102 92.4 113.556 92.72C113.009 93.0267 112.576 93.4533 112.256 94C111.949 94.5333 111.796 95.1267 111.796 95.78ZM113.956 95.78C113.956 95.5 114.016 95.2467 114.136 95.02C114.256 94.7933 114.422 94.6133 114.636 94.48C114.849 94.3467 115.102 94.28 115.396 94.28C115.689 94.28 115.936 94.3467 116.136 94.48C116.349 94.6133 116.516 94.7933 116.636 95.02C116.756 95.2467 116.816 95.5 116.816 95.78C116.816 96.0467 116.756 96.3 116.636 96.54C116.516 96.7667 116.349 96.9467 116.136 97.08C115.936 97.2133 115.689 97.28 115.396 97.28C115.102 97.28 114.849 97.2133 114.636 97.08C114.422 96.9467 114.256 96.7667 114.136 96.54C114.016 96.3 113.956 96.0467 113.956 95.78ZM114.636 85L104.436 99H107.056L117.256 85H114.636Z" fill="white"/>
<path d="M31.7 30.928V40H32.47V30.2H25.12V40H25.89V30.928H31.7ZM34.76 30.2V40H35.53V30.2H34.76ZM35.194 30.928H37.056C37.7747 30.928 38.358 31.1147 38.806 31.488C39.254 31.852 39.478 32.3887 39.478 33.098C39.478 33.798 39.254 34.3347 38.806 34.708C38.358 35.0813 37.7747 35.268 37.056 35.268H35.194V35.996H37.056C37.672 35.996 38.218 35.884 38.694 35.66C39.1793 35.4267 39.562 35.0907 39.842 34.652C40.122 34.2133 40.262 33.6953 40.262 33.098C40.262 32.4913 40.122 31.9733 39.842 31.544C39.562 31.1147 39.1793 30.7833 38.694 30.55C38.218 30.3167 37.672 30.2 37.056 30.2H35.194V30.928ZM42.6819 35.1C42.6819 34.2787 42.8546 33.5507 43.1999 32.916C43.5546 32.272 44.0352 31.768 44.6419 31.404C45.2579 31.0307 45.9579 30.844 46.7419 30.844C47.5259 30.844 48.2212 31.0307 48.8279 31.404C49.4439 31.768 49.9246 32.272 50.2699 32.916C50.6152 33.5507 50.7879 34.2787 50.7879 35.1C50.7879 35.912 50.6152 36.64 50.2699 37.284C49.9246 37.928 49.4439 38.4367 48.8279 38.81C48.2212 39.174 47.5259 39.356 46.7419 39.356C45.9579 39.356 45.2579 39.174 44.6419 38.81C44.0352 38.4367 43.5546 37.928 43.1999 37.284C42.8546 36.64 42.6819 35.912 42.6819 35.1ZM41.8699 35.1C41.8699 35.8187 41.9912 36.486 42.2339 37.102C42.4766 37.7087 42.8172 38.2407 43.2559 38.698C43.6946 39.146 44.2079 39.496 44.7959 39.748C45.3932 40 46.0419 40.126 46.7419 40.126C47.4419 40.126 48.0859 40 48.6739 39.748C49.2712 39.496 49.7892 39.146 50.2279 38.698C50.6666 38.2407 51.0072 37.7087 51.2499 37.102C51.4926 36.486 51.6139 35.8187 51.6139 35.1C51.6139 34.3813 51.4926 33.7187 51.2499 33.112C51.0072 32.496 50.6666 31.964 50.2279 31.516C49.7892 31.0587 49.2712 30.704 48.6739 30.452C48.0859 30.2 47.4419 30.074 46.7419 30.074C46.0419 30.074 45.3932 30.2 44.7959 30.452C44.2079 30.704 43.6946 31.0587 43.2559 31.516C42.8172 31.964 42.4766 32.496 42.2339 33.112C41.9912 33.7187 41.8699 34.3813 41.8699 35.1ZM53.8685 34.848H55.8705C56.3651 34.848 56.8038 34.9367 57.1865 35.114C57.5785 35.282 57.8818 35.534 58.0965 35.87C58.3205 36.1967 58.4325 36.5933 58.4325 37.06C58.4325 37.5267 58.3205 37.928 58.0965 38.264C57.8818 38.5907 57.5785 38.8427 57.1865 39.02C56.8038 39.188 56.3651 39.272 55.8705 39.272H53.8685V40H55.8705C56.5051 40 57.0698 39.8833 57.5645 39.65C58.0685 39.4073 58.4651 39.0667 58.7545 38.628C59.0531 38.18 59.2025 37.6573 59.2025 37.06C59.2025 36.4533 59.0531 35.9307 58.7545 35.492C58.4651 35.0533 58.0685 34.7173 57.5645 34.484C57.0698 34.2413 56.5051 34.12 55.8705 34.12H53.8685V34.848ZM53.4345 30.2V40H54.2045V30.928H58.4605V30.2H53.4345ZM67.6056 30.2H61.2076V36.472C61.2076 36.8453 61.1796 37.2047 61.1236 37.55C61.0676 37.886 60.9836 38.1893 60.8716 38.46C60.7596 38.7307 60.6243 38.9453 60.4656 39.104C60.307 39.2533 60.1203 39.328 59.9056 39.328V40C60.3443 40 60.713 39.846 61.0116 39.538C61.3196 39.23 61.5483 38.8193 61.6976 38.306C61.8563 37.7927 61.9356 37.2373 61.9356 36.64V30.928H66.8356V40H67.6056V30.2ZM70.3027 40H75.1607V39.272H70.3027V40ZM70.3027 30.928H75.1607V30.2H70.3027V30.928ZM70.3027 34.988H74.8807V34.26H70.3027V34.988ZM69.8967 30.2V40H70.6667V30.2H69.8967ZM78.7 32.244L82.144 38.866L85.588 32.244L86.428 40H87.198L86.064 29.822L82.144 37.354L78.224 29.822L77.09 40H77.86L78.7 32.244ZM96.096 30.2V40H96.866V30.2H96.096ZM88.844 30.2V40H89.614V30.2H88.844ZM89.264 34.848H91.266C91.7606 34.848 92.1993 34.9367 92.582 35.114C92.974 35.282 93.2773 35.534 93.492 35.87C93.716 36.1967 93.828 36.5933 93.828 37.06C93.828 37.5267 93.716 37.928 93.492 38.264C93.2773 38.5907 92.974 38.8427 92.582 39.02C92.1993 39.188 91.7606 39.272 91.266 39.272H89.264V40H91.266C91.9006 40 92.4653 39.8833 92.96 39.65C93.464 39.4073 93.8606 39.0667 94.15 38.628C94.4486 38.18 94.598 37.6573 94.598 37.06C94.598 36.4533 94.4486 35.9307 94.15 35.492C93.8606 35.0533 93.464 34.7173 92.96 34.484C92.4653 34.2413 91.9006 34.12 91.266 34.12H89.264V34.848ZM103.659 35.1C103.659 34.26 103.836 33.5227 104.191 32.888C104.545 32.2533 105.021 31.7587 105.619 31.404C106.216 31.04 106.883 30.858 107.621 30.858C108.078 30.858 108.498 30.9093 108.881 31.012C109.263 31.1147 109.613 31.2687 109.931 31.474C110.248 31.67 110.528 31.908 110.771 32.188V31.166C110.36 30.802 109.912 30.5313 109.427 30.354C108.941 30.1673 108.339 30.074 107.621 30.074C106.939 30.074 106.305 30.2 105.717 30.452C105.138 30.6947 104.634 31.04 104.205 31.488C103.775 31.936 103.439 32.468 103.197 33.084C102.954 33.7 102.833 34.372 102.833 35.1C102.833 35.828 102.954 36.5 103.197 37.116C103.439 37.732 103.775 38.264 104.205 38.712C104.634 39.16 105.138 39.51 105.717 39.762C106.305 40.0047 106.939 40.126 107.621 40.126C108.339 40.126 108.941 40.0373 109.427 39.86C109.912 39.6733 110.36 39.398 110.771 39.034V37.998C110.528 38.278 110.248 38.5207 109.931 38.726C109.623 38.9313 109.277 39.0853 108.895 39.188C108.512 39.2907 108.087 39.342 107.621 39.342C106.883 39.342 106.216 39.16 105.619 38.796C105.021 38.432 104.545 37.9327 104.191 37.298C103.836 36.6633 103.659 35.9307 103.659 35.1ZM123.698 30.928V40H124.468V30.2H117.118V40H117.888V30.928H123.698ZM127.542 36.71H132.568L132.316 35.982H127.794L127.542 36.71ZM130.034 31.6L131.966 36.276L132.036 36.458L133.492 40H134.36L130.034 29.822L125.708 40H126.576L128.046 36.402L128.13 36.234L130.034 31.6ZM136 30.2V40H136.77V30.2H136ZM136.434 30.928H138.296C139.015 30.928 139.598 31.1147 140.046 31.488C140.494 31.852 140.718 32.3887 140.718 33.098C140.718 33.798 140.494 34.3347 140.046 34.708C139.598 35.0813 139.015 35.268 138.296 35.268H136.434V35.996H138.296C138.912 35.996 139.458 35.884 139.934 35.66C140.42 35.4267 140.802 35.0907 141.082 34.652C141.362 34.2133 141.502 33.6953 141.502 33.098C141.502 32.4913 141.362 31.9733 141.082 31.544C140.802 31.1147 140.42 30.7833 139.934 30.55C139.458 30.3167 138.912 30.2 138.296 30.2H136.434V30.928ZM143.642 30.2V40H144.412V30.2H143.642ZM148.472 30.2L144.188 34.806L148.682 40H149.662L145.14 34.792L149.452 30.2H148.472ZM151.141 35.1C151.141 34.2787 151.314 33.5507 151.659 32.916C152.014 32.272 152.494 31.768 153.101 31.404C153.717 31.0307 154.417 30.844 155.201 30.844C155.985 30.844 156.68 31.0307 157.287 31.404C157.903 31.768 158.384 32.272 158.729 32.916C159.074 33.5507 159.247 34.2787 159.247 35.1C159.247 35.912 159.074 36.64 158.729 37.284C158.384 37.928 157.903 38.4367 157.287 38.81C156.68 39.174 155.985 39.356 155.201 39.356C154.417 39.356 153.717 39.174 153.101 38.81C152.494 38.4367 152.014 37.928 151.659 37.284C151.314 36.64 151.141 35.912 151.141 35.1ZM150.329 35.1C150.329 35.8187 150.45 36.486 150.693 37.102C150.936 37.7087 151.276 38.2407 151.715 38.698C152.154 39.146 152.667 39.496 153.255 39.748C153.852 40 154.501 40.126 155.201 40.126C155.901 40.126 156.545 40 157.133 39.748C157.73 39.496 158.248 39.146 158.687 38.698C159.126 38.2407 159.466 37.7087 159.709 37.102C159.952 36.486 160.073 35.8187 160.073 35.1C160.073 34.3813 159.952 33.7187 159.709 33.112C159.466 32.496 159.126 31.964 158.687 31.516C158.248 31.0587 157.73 30.704 157.133 30.452C156.545 30.2 155.901 30.074 155.201 30.074C154.501 30.074 153.852 30.2 153.255 30.452C152.667 30.704 152.154 31.0587 151.715 31.516C151.276 31.964 150.936 32.496 150.693 33.112C150.45 33.7187 150.329 34.3813 150.329 35.1ZM162.551 34.736H164.133C164.684 34.736 165.169 34.6567 165.589 34.498C166.009 34.33 166.336 34.0873 166.569 33.77C166.812 33.4433 166.933 33.042 166.933 32.566C166.933 32.0433 166.817 31.6093 166.583 31.264C166.35 30.9093 166.019 30.6433 165.589 30.466C165.169 30.2887 164.665 30.2 164.077 30.2H161.949V40H164.217C164.852 40 165.412 39.8973 165.897 39.692C166.392 39.4867 166.779 39.174 167.059 38.754C167.339 38.334 167.479 37.802 167.479 37.158C167.479 36.71 167.386 36.3227 167.199 35.996C167.022 35.66 166.779 35.3847 166.471 35.17C166.173 34.9553 165.832 34.7967 165.449 34.694C165.067 34.582 164.675 34.526 164.273 34.526H162.551V34.974H164.217C164.553 34.974 164.866 35.0207 165.155 35.114C165.454 35.2073 165.72 35.3473 165.953 35.534C166.187 35.7113 166.369 35.9353 166.499 36.206C166.63 36.4673 166.695 36.7707 166.695 37.116C166.695 37.6013 166.593 38.0073 166.387 38.334C166.182 38.6513 165.893 38.894 165.519 39.062C165.146 39.23 164.712 39.314 164.217 39.314H162.719V30.886H164.077C164.712 30.886 165.216 31.04 165.589 31.348C165.972 31.6467 166.163 32.0667 166.163 32.608C166.163 32.9907 166.07 33.308 165.883 33.56C165.697 33.8027 165.445 33.9847 165.127 34.106C164.81 34.2273 164.46 34.288 164.077 34.288H162.551V34.736ZM169.728 30.2V40H170.498V30.2H169.728ZM174.558 30.2L170.274 34.806L174.768 40H175.748L171.226 34.792L175.538 30.2H174.558ZM177.227 35.1C177.227 34.2787 177.399 33.5507 177.745 32.916C178.099 32.272 178.58 31.768 179.187 31.404C179.803 31.0307 180.503 30.844 181.287 30.844C182.071 30.844 182.766 31.0307 183.373 31.404C183.989 31.768 184.469 32.272 184.815 32.916C185.16 33.5507 185.333 34.2787 185.333 35.1C185.333 35.912 185.16 36.64 184.815 37.284C184.469 37.928 183.989 38.4367 183.373 38.81C182.766 39.174 182.071 39.356 181.287 39.356C180.503 39.356 179.803 39.174 179.187 38.81C178.58 38.4367 178.099 37.928 177.745 37.284C177.399 36.64 177.227 35.912 177.227 35.1ZM176.415 35.1C176.415 35.8187 176.536 36.486 176.779 37.102C177.021 37.7087 177.362 38.2407 177.801 38.698C178.239 39.146 178.753 39.496 179.341 39.748C179.938 40 180.587 40.126 181.287 40.126C181.987 40.126 182.631 40 183.219 39.748C183.816 39.496 184.334 39.146 184.773 38.698C185.211 38.2407 185.552 37.7087 185.795 37.102C186.037 36.486 186.159 35.8187 186.159 35.1C186.159 34.3813 186.037 33.7187 185.795 33.112C185.552 32.496 185.211 31.964 184.773 31.516C184.334 31.0587 183.816 30.704 183.219 30.452C182.631 30.2 181.987 30.074 181.287 30.074C180.587 30.074 179.938 30.2 179.341 30.452C178.753 30.704 178.239 31.0587 177.801 31.516C177.362 31.964 177.021 32.496 176.779 33.112C176.536 33.7187 176.415 34.3813 176.415 35.1ZM196.211 30.9L196.253 29.71L188.077 39.3L188.035 40.49L196.211 30.9ZM188.805 30.2H188.035V40.49L188.805 39.44V30.2ZM196.253 29.71L195.483 30.746V40H196.253V29.71ZM190.219 27.358C190.219 27.6753 190.299 27.988 190.457 28.296C190.625 28.5947 190.873 28.842 191.199 29.038C191.535 29.2247 191.946 29.318 192.431 29.318C192.926 29.318 193.337 29.2247 193.663 29.038C193.99 28.842 194.233 28.5947 194.391 28.296C194.559 27.988 194.643 27.6753 194.643 27.358H193.999C193.999 27.554 193.943 27.7593 193.831 27.974C193.729 28.1793 193.561 28.3567 193.327 28.506C193.103 28.646 192.805 28.716 192.431 28.716C192.067 28.716 191.769 28.646 191.535 28.506C191.311 28.3567 191.143 28.1793 191.031 27.974C190.929 27.7593 190.877 27.554 190.877 27.358H190.219Z" fill="#B2ABF2"/>
<circle cx="261.771" cy="113.113" r="48.5809" stroke="#564592" stroke-width="10"/>
<mask id="mask0_322_804" style="mask-type:alpha" maskUnits="userSpaceOnUse" x="189" y="45" width="146" height="134">
<path d="M322.012 110.29L255.907 119.693V84.6904V55.8401L199.549 69.4152C207.341 102.422 209.792 165.651 209.792 169.223C209.792 172.795 271.865 166.947 302.508 169.223L322.012 110.29Z" fill="#D9D9D9" stroke="#564592" stroke-width="17"/>
</mask>
<g mask="url(#mask0_322_804)">
<g filter="url(#filter1_d_322_804)">
<circle cx="262.323" cy="113.278" r="47.5809" stroke="white" stroke-width="12" shape-rendering="crispEdges"/>
</g>
</g>
<path d="M25.224 120.8C25.224 120.096 25.372 119.472 25.668 118.928C25.972 118.376 26.384 117.944 26.904 117.632C27.432 117.312 28.032 117.152 28.704 117.152C29.376 117.152 29.972 117.312 30.492 117.632C31.02 117.944 31.432 118.376 31.728 118.928C32.024 119.472 32.172 120.096 32.172 120.8C32.172 121.496 32.024 122.12 31.728 122.672C31.432 123.224 31.02 123.66 30.492 123.98C29.972 124.292 29.376 124.448 28.704 124.448C28.032 124.448 27.432 124.292 26.904 123.98C26.384 123.66 25.972 123.224 25.668 122.672C25.372 122.12 25.224 121.496 25.224 120.8ZM24.528 120.8C24.528 121.416 24.632 121.988 24.84 122.516C25.048 123.036 25.34 123.492 25.716 123.884C26.092 124.268 26.532 124.568 27.036 124.784C27.548 125 28.104 125.108 28.704 125.108C29.304 125.108 29.856 125 30.36 124.784C30.872 124.568 31.316 124.268 31.692 123.884C32.068 123.492 32.36 123.036 32.568 122.516C32.776 121.988 32.88 121.416 32.88 120.8C32.88 120.184 32.776 119.616 32.568 119.096C32.36 118.568 32.068 118.112 31.692 117.728C31.316 117.336 30.872 117.032 30.36 116.816C29.856 116.6 29.304 116.492 28.704 116.492C28.104 116.492 27.548 116.6 27.036 116.816C26.532 117.032 26.092 117.336 25.716 117.728C25.34 118.112 25.048 118.568 24.84 119.096C24.632 119.616 24.528 120.184 24.528 120.8ZM38.5445 119.48H34.3805V125H35.0045V120.068H37.9205V125H38.5445V119.48ZM40.9573 127.64V119.48H40.3333V127.64H40.9573ZM45.6733 122.24C45.6733 121.64 45.5533 121.128 45.3133 120.704C45.0813 120.272 44.7613 119.94 44.3533 119.708C43.9533 119.476 43.5053 119.36 43.0093 119.36C42.5453 119.36 42.1373 119.488 41.7853 119.744C41.4333 119.992 41.1573 120.332 40.9573 120.764C40.7653 121.196 40.6693 121.688 40.6693 122.24C40.6693 122.784 40.7653 123.276 40.9573 123.716C41.1573 124.148 41.4333 124.492 41.7853 124.748C42.1373 124.996 42.5453 125.12 43.0093 125.12C43.5053 125.12 43.9533 125.004 44.3533 124.772C44.7613 124.54 45.0813 124.208 45.3133 123.776C45.5533 123.344 45.6733 122.832 45.6733 122.24ZM45.0493 122.24C45.0493 122.72 44.9533 123.132 44.7613 123.476C44.5693 123.82 44.3133 124.084 43.9933 124.268C43.6733 124.444 43.3173 124.532 42.9253 124.532C42.5893 124.532 42.2693 124.432 41.9653 124.232C41.6613 124.032 41.4173 123.76 41.2333 123.416C41.0493 123.072 40.9573 122.68 40.9573 122.24C40.9573 121.8 41.0493 121.408 41.2333 121.064C41.4173 120.72 41.6613 120.448 41.9653 120.248C42.2693 120.048 42.5893 119.948 42.9253 119.948C43.3173 119.948 43.6733 120.04 43.9933 120.224C44.3133 120.4 44.5693 120.66 44.7613 121.004C44.9533 121.348 45.0493 121.76 45.0493 122.24ZM46.7571 122.24C46.7571 122.792 46.8811 123.288 47.1291 123.728C47.3771 124.16 47.7131 124.5 48.1371 124.748C48.5691 124.996 49.0531 125.12 49.5891 125.12C50.1251 125.12 50.6051 124.996 51.0291 124.748C51.4611 124.5 51.8011 124.16 52.0491 123.728C52.2971 123.288 52.4211 122.792 52.4211 122.24C52.4211 121.68 52.2971 121.184 52.0491 120.752C51.8011 120.32 51.4611 119.98 51.0291 119.732C50.6051 119.484 50.1251 119.36 49.5891 119.36C49.0531 119.36 48.5691 119.484 48.1371 119.732C47.7131 119.98 47.3771 120.32 47.1291 120.752C46.8811 121.184 46.7571 121.68 46.7571 122.24ZM47.3931 122.24C47.3931 121.792 47.4891 121.396 47.6811 121.052C47.8731 120.708 48.1331 120.44 48.4611 120.248C48.7971 120.048 49.1731 119.948 49.5891 119.948C50.0051 119.948 50.3771 120.048 50.7051 120.248C51.0411 120.44 51.3051 120.712 51.4971 121.064C51.6891 121.408 51.7851 121.8 51.7851 122.24C51.7851 122.688 51.6891 123.084 51.4971 123.428C51.3051 123.772 51.0411 124.044 50.7051 124.244C50.3771 124.436 50.0051 124.532 49.5891 124.532C49.1731 124.532 48.7971 124.436 48.4611 124.244C48.1331 124.044 47.8731 123.772 47.6811 123.428C47.4891 123.084 47.3931 122.688 47.3931 122.24ZM57.6638 124.412V119.48H57.0398V124.412H54.3638V119.48H53.7398V125H60.9638V119.48H60.3398V124.412H57.6638ZM62.7273 122.396H67.4913C67.4993 122.348 67.5033 122.3 67.5033 122.252C67.5113 122.196 67.5153 122.144 67.5153 122.096C67.5153 121.544 67.4033 121.064 67.1793 120.656C66.9633 120.248 66.6633 119.932 66.2793 119.708C65.8953 119.476 65.4633 119.36 64.9833 119.36C64.5433 119.36 64.1433 119.452 63.7833 119.636C63.4233 119.812 63.1273 120.064 62.8953 120.392C62.6633 120.712 62.4993 121.084 62.4033 121.508C62.3793 121.628 62.3593 121.748 62.3433 121.868C62.3353 121.98 62.3313 122.1 62.3313 122.228C62.3313 122.78 62.4433 123.276 62.6673 123.716C62.8913 124.156 63.1953 124.5 63.5793 124.748C63.9713 124.996 64.4073 125.12 64.8873 125.12C65.3753 125.12 65.7753 125.056 66.0873 124.928C66.3993 124.792 66.6593 124.62 66.8673 124.412C67.0753 124.196 67.2593 123.964 67.4193 123.716L66.9153 123.392C66.7953 123.592 66.6473 123.78 66.4713 123.956C66.3033 124.124 66.0953 124.264 65.8473 124.376C65.6073 124.48 65.3113 124.532 64.9593 124.532C64.5673 124.532 64.2193 124.44 63.9153 124.256C63.6193 124.064 63.3873 123.796 63.2193 123.452C63.0513 123.1 62.9673 122.692 62.9673 122.228L62.9793 122.012C62.9793 121.58 63.0713 121.208 63.2553 120.896C63.4393 120.576 63.6833 120.332 63.9873 120.164C64.2913 119.996 64.6233 119.912 64.9833 119.912C65.3433 119.912 65.6593 119.996 65.9313 120.164C66.2113 120.332 66.4313 120.564 66.5913 120.86C66.7513 121.148 66.8313 121.48 66.8313 121.856H62.7273V122.396ZM69.3111 122.372H73.3431V121.784H69.3111V122.372ZM72.9591 119.48V125H73.5831V119.48H72.9591ZM68.9391 119.48V125H69.5631V119.48H68.9391ZM75.7564 122.372H79.7884V121.784H75.7564V122.372ZM79.4044 119.48V125H80.0284V119.48H79.4044ZM75.3844 119.48V125H76.0084V119.48H75.3844ZM86.6897 119.48V125H87.3137V119.48H86.6897ZM81.8297 119.48V125H82.4537V119.48H81.8297ZM82.1777 122.12H83.7737C84.1977 122.12 84.5337 122.22 84.7817 122.42C85.0377 122.612 85.1657 122.9 85.1657 123.284C85.1657 123.548 85.1057 123.768 84.9857 123.944C84.8737 124.112 84.7137 124.24 84.5057 124.328C84.2977 124.408 84.0537 124.448 83.7737 124.448H82.1777V125H83.7737C84.1577 125 84.5017 124.94 84.8057 124.82C85.1097 124.7 85.3497 124.512 85.5257 124.256C85.7017 124 85.7897 123.676 85.7897 123.284C85.7897 122.692 85.5937 122.26 85.2017 121.988C84.8177 121.708 84.3417 121.568 83.7737 121.568H82.1777V122.12ZM92.1788 119.48L90.6428 121.664L89.1068 119.48H88.3868L90.2948 122.156L88.2668 125H88.9868L90.6428 122.648L92.2988 125H93.0188L90.9908 122.156L92.8988 119.48H92.1788ZM102.039 120.02L102.099 119.06L97.8755 124.46L97.8155 125.42L102.039 120.02ZM98.4395 119.48H97.8155V125.42L98.4395 124.532V119.48ZM102.099 119.06L101.475 119.948V125H102.099V119.06ZM109.571 125H110.279L108.839 119.06L108.503 120.188L109.571 125ZM106.463 124.46L106.679 125.372L108.899 120.404L108.839 119.06L106.463 124.46ZM106.679 125.372L106.895 124.46L104.555 119.06L104.495 120.404L106.679 125.372ZM103.115 125H103.835L104.891 120.188L104.555 119.06L103.115 125ZM111.208 122.396H115.972C115.98 122.348 115.984 122.3 115.984 122.252C115.992 122.196 115.996 122.144 115.996 122.096C115.996 121.544 115.884 121.064 115.66 120.656C115.444 120.248 115.144 119.932 114.76 119.708C114.376 119.476 113.944 119.36 113.464 119.36C113.024 119.36 112.624 119.452 112.264 119.636C111.904 119.812 111.608 120.064 111.376 120.392C111.144 120.712 110.98 121.084 110.884 121.508C110.86 121.628 110.84 121.748 110.824 121.868C110.816 121.98 110.812 122.1 110.812 122.228C110.812 122.78 110.924 123.276 111.148 123.716C111.372 124.156 111.676 124.5 112.06 124.748C112.452 124.996 112.888 125.12 113.368 125.12C113.856 125.12 114.256 125.056 114.568 124.928C114.88 124.792 115.14 124.62 115.348 124.412C115.556 124.196 115.74 123.964 115.9 123.716L115.396 123.392C115.276 123.592 115.128 123.78 114.952 123.956C114.784 124.124 114.576 124.264 114.328 124.376C114.088 124.48 113.792 124.532 113.44 124.532C113.048 124.532 112.7 124.44 112.396 124.256C112.1 124.064 111.868 123.796 111.7 123.452C111.532 123.1 111.448 122.692 111.448 122.228L111.46 122.012C111.46 121.58 111.552 121.208 111.736 120.896C111.92 120.576 112.164 120.332 112.468 120.164C112.772 119.996 113.104 119.912 113.464 119.912C113.824 119.912 114.14 119.996 114.412 120.164C114.692 120.332 114.912 120.564 115.072 120.86C115.232 121.148 115.312 121.48 115.312 121.856H111.208V122.396ZM117.792 122.396H119.832V121.808H117.792V122.396ZM117.42 119.48V125H118.044V119.48H117.42ZM119.388 122.24C119.388 122.792 119.512 123.288 119.76 123.728C120.008 124.16 120.348 124.5 120.78 124.748C121.212 124.996 121.692 125.12 122.22 125.12C122.756 125.12 123.236 124.996 123.66 124.748C124.084 124.5 124.42 124.16 124.668 123.728C124.924 123.288 125.052 122.792 125.052 122.24C125.052 121.68 124.924 121.184 124.668 120.752C124.42 120.32 124.084 119.98 123.66 119.732C123.236 119.484 122.756 119.36 122.22 119.36C121.684 119.36 121.2 119.484 120.768 119.732C120.344 119.98 120.008 120.32 119.76 120.752C119.512 121.184 119.388 121.68 119.388 122.24ZM120.024 122.24C120.024 121.792 120.12 121.396 120.312 121.052C120.504 120.708 120.764 120.44 121.092 120.248C121.428 120.048 121.804 119.948 122.22 119.948C122.636 119.948 123.008 120.048 123.336 120.248C123.672 120.44 123.936 120.712 124.128 121.064C124.32 121.408 124.416 121.8 124.416 122.24C124.416 122.688 124.32 123.084 124.128 123.428C123.936 123.772 123.672 124.044 123.336 124.244C123.008 124.436 122.636 124.532 122.22 124.532C121.804 124.532 121.428 124.436 121.092 124.244C120.764 124.044 120.504 123.772 120.312 123.428C120.12 123.084 120.024 122.688 120.024 122.24ZM125.58 119.48V120.068H128.82V119.48H125.58ZM126.888 119.648V125H127.512V119.648H126.888ZM137.544 119.48H133.38V125H134.004V120.068H136.92V125H137.544V119.48ZM139.957 127.64V119.48H139.333V127.64H139.957ZM144.673 122.24C144.673 121.64 144.553 121.128 144.313 120.704C144.081 120.272 143.761 119.94 143.353 119.708C142.953 119.476 142.505 119.36 142.009 119.36C141.545 119.36 141.137 119.488 140.785 119.744C140.433 119.992 140.157 120.332 139.957 120.764C139.765 121.196 139.669 121.688 139.669 122.24C139.669 122.784 139.765 123.276 139.957 123.716C140.157 124.148 140.433 124.492 140.785 124.748C141.137 124.996 141.545 125.12 142.009 125.12C142.505 125.12 142.953 125.004 143.353 124.772C143.761 124.54 144.081 124.208 144.313 123.776C144.553 123.344 144.673 122.832 144.673 122.24ZM144.049 122.24C144.049 122.72 143.953 123.132 143.761 123.476C143.569 123.82 143.313 124.084 142.993 124.268C142.673 124.444 142.317 124.532 141.925 124.532C141.589 124.532 141.269 124.432 140.965 124.232C140.661 124.032 140.417 123.76 140.233 123.416C140.049 123.072 139.957 122.68 139.957 122.24C139.957 121.8 140.049 121.408 140.233 121.064C140.417 120.72 140.661 120.448 140.965 120.248C141.269 120.048 141.589 119.948 141.925 119.948C142.317 119.948 142.673 120.04 142.993 120.224C143.313 120.4 143.569 120.66 143.761 121.004C143.953 121.348 144.049 121.76 144.049 122.24ZM145.757 122.24C145.757 122.792 145.881 123.288 146.129 123.728C146.377 124.16 146.713 124.5 147.137 124.748C147.569 124.996 148.053 125.12 148.589 125.12C149.125 125.12 149.605 124.996 150.029 124.748C150.461 124.5 150.801 124.16 151.049 123.728C151.297 123.288 151.421 122.792 151.421 122.24C151.421 121.68 151.297 121.184 151.049 120.752C150.801 120.32 150.461 119.98 150.029 119.732C149.605 119.484 149.125 119.36 148.589 119.36C148.053 119.36 147.569 119.484 147.137 119.732C146.713 119.98 146.377 120.32 146.129 120.752C145.881 121.184 145.757 121.68 145.757 122.24ZM146.393 122.24C146.393 121.792 146.489 121.396 146.681 121.052C146.873 120.708 147.133 120.44 147.461 120.248C147.797 120.048 148.173 119.948 148.589 119.948C149.005 119.948 149.377 120.048 149.705 120.248C150.041 120.44 150.305 120.712 150.497 121.064C150.689 121.408 150.785 121.8 150.785 122.24C150.785 122.688 150.689 123.084 150.497 123.428C150.305 123.772 150.041 124.044 149.705 124.244C149.377 124.436 149.005 124.532 148.589 124.532C148.173 124.532 147.797 124.436 147.461 124.244C147.133 124.044 146.873 123.772 146.681 123.428C146.489 123.084 146.393 122.688 146.393 122.24ZM155.116 119.948C155.54 119.948 155.916 120.044 156.244 120.236C156.58 120.428 156.844 120.7 157.036 121.052C157.236 121.396 157.336 121.792 157.336 122.24C157.336 122.688 157.236 123.084 157.036 123.428C156.836 123.772 156.568 124.044 156.232 124.244C155.896 124.436 155.524 124.532 155.116 124.532C154.708 124.532 154.34 124.436 154.012 124.244C153.684 124.044 153.42 123.772 153.22 123.428C153.028 123.084 152.932 122.688 152.932 122.24L152.26 121.52C152.26 122.312 152.384 122.976 152.632 123.512C152.888 124.048 153.232 124.452 153.664 124.724C154.096 124.988 154.58 125.12 155.116 125.12C155.66 125.12 156.144 124.996 156.568 124.748C157 124.5 157.34 124.16 157.588 123.728C157.844 123.288 157.972 122.792 157.972 122.24C157.972 121.68 157.844 121.184 157.588 120.752C157.34 120.32 157 119.98 156.568 119.732C156.144 119.484 155.66 119.36 155.116 119.36V119.948ZM152.62 122.24H152.932C152.932 121.872 152.996 121.548 153.124 121.268C153.26 120.98 153.436 120.74 153.652 120.548C153.868 120.356 154.104 120.208 154.36 120.104C154.624 120 154.876 119.948 155.116 119.948V119.36C154.78 119.36 154.46 119.428 154.156 119.564C153.86 119.692 153.596 119.88 153.364 120.128C153.132 120.376 152.948 120.68 152.812 121.04C152.684 121.392 152.62 121.792 152.62 122.24ZM152.26 121.52L152.812 122.192V121.208C152.812 120.64 152.872 120.12 152.992 119.648C153.12 119.176 153.336 118.768 153.64 118.424C153.952 118.08 154.376 117.82 154.912 117.644C155.328 117.5 155.688 117.332 155.992 117.14C156.304 116.94 156.552 116.716 156.736 116.468C156.92 116.212 157.028 115.936 157.06 115.64H156.448C156.392 115.928 156.232 116.204 155.968 116.468C155.704 116.724 155.3 116.944 154.756 117.128C154.116 117.344 153.612 117.656 153.244 118.064C152.876 118.464 152.62 118.952 152.476 119.528C152.332 120.104 152.26 120.768 152.26 121.52ZM163.791 119.48H159.387V123.08C159.387 123.544 159.299 123.884 159.123 124.1C158.955 124.316 158.751 124.424 158.511 124.424V125C158.831 125 159.103 124.932 159.327 124.796C159.551 124.652 159.719 124.44 159.831 124.16C159.951 123.872 160.011 123.512 160.011 123.08V120.068H163.167V125H163.791V119.48ZM165.618 122.396H170.382C170.39 122.348 170.394 122.3 170.394 122.252C170.402 122.196 170.406 122.144 170.406 122.096C170.406 121.544 170.294 121.064 170.07 120.656C169.854 120.248 169.554 119.932 169.17 119.708C168.786 119.476 168.354 119.36 167.874 119.36C167.434 119.36 167.034 119.452 166.674 119.636C166.314 119.812 166.018 120.064 165.786 120.392C165.554 120.712 165.39 121.084 165.294 121.508C165.27 121.628 165.25 121.748 165.234 121.868C165.226 121.98 165.222 122.1 165.222 122.228C165.222 122.78 165.334 123.276 165.558 123.716C165.782 124.156 166.086 124.5 166.47 124.748C166.862 124.996 167.298 125.12 167.778 125.12C168.266 125.12 168.666 125.056 168.978 124.928C169.29 124.792 169.55 124.62 169.758 124.412C169.966 124.196 170.15 123.964 170.31 123.716L169.806 123.392C169.686 123.592 169.538 123.78 169.362 123.956C169.194 124.124 168.986 124.264 168.738 124.376C168.498 124.48 168.202 124.532 167.85 124.532C167.458 124.532 167.11 124.44 166.806 124.256C166.51 124.064 166.278 123.796 166.11 123.452C165.942 123.1 165.858 122.692 165.858 122.228L165.87 122.012C165.87 121.58 165.962 121.208 166.146 120.896C166.33 120.576 166.574 120.332 166.878 120.164C167.182 119.996 167.514 119.912 167.874 119.912C168.234 119.912 168.55 119.996 168.822 120.164C169.102 120.332 169.322 120.564 169.482 120.86C169.642 121.148 169.722 121.48 169.722 121.856H165.618V122.396ZM177.446 125H178.154L176.714 119.06L176.378 120.188L177.446 125ZM174.338 124.46L174.554 125.372L176.774 120.404L176.714 119.06L174.338 124.46ZM174.554 125.372L174.77 124.46L172.43 119.06L172.37 120.404L174.554 125.372ZM170.99 125H171.71L172.766 120.188L172.43 119.06L170.99 125ZM183.979 119.48V125H184.603V119.48H183.979ZM179.119 119.48V125H179.743V119.48H179.119ZM179.467 122.12H181.063C181.487 122.12 181.823 122.22 182.071 122.42C182.327 122.612 182.455 122.9 182.455 123.284C182.455 123.548 182.395 123.768 182.275 123.944C182.163 124.112 182.003 124.24 181.795 124.328C181.587 124.408 181.343 124.448 181.063 124.448H179.467V125H181.063C181.447 125 181.791 124.94 182.095 124.82C182.399 124.7 182.639 124.512 182.815 124.256C182.991 124 183.079 123.676 183.079 123.284C183.079 122.692 182.883 122.26 182.491 121.988C182.107 121.708 181.631 121.568 181.063 121.568H179.467V122.12ZM25.044 139.24C25.044 138.792 25.14 138.396 25.332 138.052C25.524 137.708 25.784 137.44 26.112 137.248C26.448 137.048 26.824 136.948 27.24 136.948C27.536 136.948 27.812 136.992 28.068 137.08C28.324 137.168 28.544 137.28 28.728 137.416C28.92 137.552 29.056 137.696 29.136 137.848V137.068C28.968 136.876 28.708 136.712 28.356 136.576C28.012 136.432 27.64 136.36 27.24 136.36C26.704 136.36 26.224 136.484 25.8 136.732C25.376 136.98 25.036 137.32 24.78 137.752C24.532 138.184 24.408 138.68 24.408 139.24C24.408 139.792 24.532 140.288 24.78 140.728C25.036 141.16 25.376 141.5 25.8 141.748C26.224 141.996 26.704 142.12 27.24 142.12C27.64 142.12 28.012 142.052 28.356 141.916C28.708 141.78 28.968 141.612 29.136 141.412V140.632C29.056 140.776 28.92 140.92 28.728 141.064C28.544 141.2 28.324 141.312 28.068 141.4C27.812 141.488 27.536 141.532 27.24 141.532C26.824 141.532 26.448 141.436 26.112 141.244C25.784 141.044 25.524 140.772 25.332 140.428C25.14 140.084 25.044 139.688 25.044 139.24ZM38.3921 136.48H34.2281V142H34.8521V137.068H37.7681V142H38.3921V136.48ZM39.761 139.24C39.761 139.792 39.885 140.288 40.133 140.728C40.381 141.16 40.717 141.5 41.141 141.748C41.573 141.996 42.057 142.12 42.593 142.12C43.129 142.12 43.609 141.996 44.033 141.748C44.465 141.5 44.805 141.16 45.053 140.728C45.301 140.288 45.425 139.792 45.425 139.24C45.425 138.68 45.301 138.184 45.053 137.752C44.805 137.32 44.465 136.98 44.033 136.732C43.609 136.484 43.129 136.36 42.593 136.36C42.057 136.36 41.573 136.484 41.141 136.732C40.717 136.98 40.381 137.32 40.133 137.752C39.885 138.184 39.761 138.68 39.761 139.24ZM40.397 139.24C40.397 138.792 40.493 138.396 40.685 138.052C40.877 137.708 41.137 137.44 41.465 137.248C41.801 137.048 42.177 136.948 42.593 136.948C43.009 136.948 43.381 137.048 43.709 137.248C44.045 137.44 44.309 137.712 44.501 138.064C44.693 138.408 44.789 138.8 44.789 139.24C44.789 139.688 44.693 140.084 44.501 140.428C44.309 140.772 44.045 141.044 43.709 141.244C43.381 141.436 43.009 141.532 42.593 141.532C42.177 141.532 41.801 141.436 41.465 141.244C41.137 141.044 40.877 140.772 40.685 140.428C40.493 140.084 40.397 139.688 40.397 139.24ZM51.0278 137.02L51.0878 136.06L46.8638 141.46L46.8038 142.42L51.0278 137.02ZM47.4277 136.48H46.8038V142.42L47.4277 141.532V136.48ZM51.0878 136.06L50.4638 136.948V142H51.0878V136.06ZM53.087 139.24C53.087 138.792 53.183 138.396 53.375 138.052C53.567 137.708 53.827 137.44 54.155 137.248C54.491 137.048 54.867 136.948 55.283 136.948C55.579 136.948 55.855 136.992 56.111 137.08C56.367 137.168 56.587 137.28 56.771 137.416C56.963 137.552 57.099 137.696 57.179 137.848V137.068C57.011 136.876 56.751 136.712 56.399 136.576C56.055 136.432 55.683 136.36 55.283 136.36C54.747 136.36 54.267 136.484 53.843 136.732C53.419 136.98 53.079 137.32 52.823 137.752C52.575 138.184 52.451 138.68 52.451 139.24C52.451 139.792 52.575 140.288 52.823 140.728C53.079 141.16 53.419 141.5 53.843 141.748C54.267 141.996 54.747 142.12 55.283 142.12C55.683 142.12 56.055 142.052 56.399 141.916C56.751 141.78 57.011 141.612 57.179 141.412V140.632C57.099 140.776 56.963 140.92 56.771 141.064C56.587 141.2 56.367 141.312 56.111 141.4C55.855 141.488 55.579 141.532 55.283 141.532C54.867 141.532 54.491 141.436 54.155 141.244C53.827 141.044 53.567 140.772 53.375 140.428C53.183 140.084 53.087 139.688 53.087 139.24ZM58.6614 136.48V142H59.2854V136.48H58.6614ZM61.6494 136.48L59.0574 138.76L61.8894 142H62.6814L59.8494 138.76L62.4534 136.48H61.6494ZM63.3508 139.24C63.3508 139.792 63.4748 140.288 63.7228 140.728C63.9708 141.16 64.3068 141.5 64.7308 141.748C65.1628 141.996 65.6468 142.12 66.1828 142.12C66.7188 142.12 67.1988 141.996 67.6228 141.748C68.0548 141.5 68.3948 141.16 68.6428 140.728C68.8908 140.288 69.0148 139.792 69.0148 139.24C69.0148 138.68 68.8908 138.184 68.6428 137.752C68.3948 137.32 68.0548 136.98 67.6228 136.732C67.1988 136.484 66.7188 136.36 66.1828 136.36C65.6468 136.36 65.1628 136.484 64.7308 136.732C64.3068 136.98 63.9708 137.32 63.7228 137.752C63.4748 138.184 63.3508 138.68 63.3508 139.24ZM63.9868 139.24C63.9868 138.792 64.0828 138.396 64.2748 138.052C64.4668 137.708 64.7268 137.44 65.0548 137.248C65.3908 137.048 65.7668 136.948 66.1828 136.948C66.5988 136.948 66.9708 137.048 67.2988 137.248C67.6348 137.44 67.8988 137.712 68.0908 138.064C68.2828 138.408 68.3788 138.8 68.3788 139.24C68.3788 139.688 68.2828 140.084 68.0908 140.428C67.8988 140.772 67.6348 141.044 67.2988 141.244C66.9708 141.436 66.5988 141.532 66.1828 141.532C65.7668 141.532 65.3908 141.436 65.0548 141.244C64.7268 141.044 64.4668 140.772 64.2748 140.428C64.0828 140.084 63.9868 139.688 63.9868 139.24ZM75.9496 142H76.6576L75.2176 136.06L74.8816 137.188L75.9496 142ZM72.8416 141.46L73.0576 142.372L75.2776 137.404L75.2176 136.06L72.8416 141.46ZM73.0576 142.372L73.2736 141.46L70.9336 136.06L70.8736 137.404L73.0576 142.372ZM69.4936 142H70.2136L71.2696 137.188L70.9336 136.06L69.4936 142ZM85.3843 136.48H81.2203V142H81.8443V137.068H84.7603V142H85.3843V136.48ZM87.3292 140.38C87.3292 140.1 87.4012 139.864 87.5452 139.672C87.6892 139.48 87.8852 139.336 88.1332 139.24C88.3892 139.136 88.6772 139.084 88.9972 139.084C89.3732 139.084 89.6972 139.136 89.9692 139.24C90.2492 139.336 90.5012 139.468 90.7252 139.636V139.252C90.6612 139.18 90.5532 139.092 90.4012 138.988C90.2572 138.884 90.0652 138.792 89.8252 138.712C89.5932 138.632 89.3092 138.592 88.9732 138.592C88.5412 138.592 88.1532 138.664 87.8092 138.808C87.4652 138.944 87.1932 139.148 86.9932 139.42C86.7932 139.684 86.6932 140.012 86.6932 140.404C86.6932 140.796 86.7812 141.12 86.9572 141.376C87.1332 141.624 87.3612 141.812 87.6412 141.94C87.9292 142.06 88.2372 142.12 88.5652 142.12C88.9572 142.12 89.3052 142.044 89.6092 141.892C89.9212 141.732 90.1652 141.516 90.3412 141.244C90.5252 140.964 90.6172 140.648 90.6172 140.296L90.4732 139.936C90.4732 140.28 90.3972 140.572 90.2452 140.812C90.0932 141.052 89.8812 141.236 89.6092 141.364C89.3452 141.492 89.0452 141.556 88.7092 141.556C88.4692 141.556 88.2412 141.516 88.0252 141.436C87.8172 141.348 87.6492 141.22 87.5212 141.052C87.3932 140.876 87.3292 140.652 87.3292 140.38ZM87.4852 137.572C87.5972 137.476 87.7332 137.376 87.8932 137.272C88.0612 137.168 88.2532 137.084 88.4692 137.02C88.6852 136.948 88.9252 136.912 89.1892 136.912C89.5732 136.912 89.8812 137.016 90.1132 137.224C90.3532 137.424 90.4732 137.712 90.4732 138.088V142H91.0972V138.088C91.0972 137.728 91.0212 137.42 90.8692 137.164C90.7172 136.908 90.4972 136.712 90.2092 136.576C89.9292 136.432 89.5892 136.36 89.1892 136.36C88.7172 136.36 88.3132 136.44 87.9772 136.6C87.6492 136.76 87.3812 136.924 87.1732 137.092L87.4852 137.572ZM93.6214 144.64V136.48H92.9974V144.64H93.6214ZM98.3374 139.24C98.3374 138.64 98.2174 138.128 97.9774 137.704C97.7454 137.272 97.4254 136.94 97.0174 136.708C96.6174 136.476 96.1694 136.36 95.6734 136.36C95.2094 136.36 94.8014 136.488 94.4494 136.744C94.0974 136.992 93.8214 137.332 93.6214 137.764C93.4294 138.196 93.3334 138.688 93.3334 139.24C93.3334 139.784 93.4294 140.276 93.6214 140.716C93.8214 141.148 94.0974 141.492 94.4494 141.748C94.8014 141.996 95.2094 142.12 95.6734 142.12C96.1694 142.12 96.6174 142.004 97.0174 141.772C97.4254 141.54 97.7454 141.208 97.9774 140.776C98.2174 140.344 98.3374 139.832 98.3374 139.24ZM97.7134 139.24C97.7134 139.72 97.6174 140.132 97.4254 140.476C97.2334 140.82 96.9774 141.084 96.6574 141.268C96.3374 141.444 95.9814 141.532 95.5894 141.532C95.2534 141.532 94.9334 141.432 94.6294 141.232C94.3254 141.032 94.0814 140.76 93.8974 140.416C93.7134 140.072 93.6214 139.68 93.6214 139.24C93.6214 138.8 93.7134 138.408 93.8974 138.064C94.0814 137.72 94.3254 137.448 94.6294 137.248C94.9334 137.048 95.2534 136.948 95.5894 136.948C95.9814 136.948 96.3374 137.04 96.6574 137.224C96.9774 137.4 97.2334 137.66 97.4254 138.004C97.6174 138.348 97.7134 138.76 97.7134 139.24ZM99.8411 136.48V142H100.465V136.48H99.8411ZM102.829 136.48L100.237 138.76L103.069 142H103.861L101.029 138.76L103.633 136.48H102.829ZM104.531 139.24C104.531 139.792 104.655 140.288 104.903 140.728C105.151 141.16 105.487 141.5 105.911 141.748C106.343 141.996 106.827 142.12 107.363 142.12C107.899 142.12 108.379 141.996 108.803 141.748C109.235 141.5 109.575 141.16 109.823 140.728C110.071 140.288 110.195 139.792 110.195 139.24C110.195 138.68 110.071 138.184 109.823 137.752C109.575 137.32 109.235 136.98 108.803 136.732C108.379 136.484 107.899 136.36 107.363 136.36C106.827 136.36 106.343 136.484 105.911 136.732C105.487 136.98 105.151 137.32 104.903 137.752C104.655 138.184 104.531 138.68 104.531 139.24ZM105.167 139.24C105.167 138.792 105.263 138.396 105.455 138.052C105.647 137.708 105.907 137.44 106.235 137.248C106.571 137.048 106.947 136.948 107.363 136.948C107.779 136.948 108.151 137.048 108.479 137.248C108.815 137.44 109.079 137.712 109.271 138.064C109.463 138.408 109.559 138.8 109.559 139.24C109.559 139.688 109.463 140.084 109.271 140.428C109.079 140.772 108.815 141.044 108.479 141.244C108.151 141.436 107.779 141.532 107.363 141.532C106.947 141.532 106.571 141.436 106.235 141.244C105.907 141.044 105.647 140.772 105.455 140.428C105.263 140.084 105.167 139.688 105.167 139.24ZM111.873 139.168V139.492H113.469C113.653 139.492 113.829 139.508 113.997 139.54C114.165 139.572 114.313 139.624 114.441 139.696C114.569 139.768 114.669 139.864 114.741 139.984C114.821 140.096 114.861 140.244 114.861 140.428C114.861 140.708 114.757 140.948 114.549 141.148C114.349 141.348 114.021 141.448 113.565 141.448H111.873V142H113.709C114.341 142 114.793 141.856 115.065 141.568C115.345 141.272 115.485 140.916 115.485 140.5C115.485 140.14 115.397 139.864 115.221 139.672C115.045 139.48 114.805 139.348 114.501 139.276C114.197 139.204 113.853 139.168 113.469 139.168H111.873ZM111.873 139.312H113.349C113.693 139.312 114.005 139.268 114.285 139.18C114.573 139.084 114.805 138.94 114.981 138.748C115.157 138.548 115.245 138.292 115.245 137.98C115.245 137.62 115.157 137.332 114.981 137.116C114.805 136.892 114.573 136.732 114.285 136.636C114.005 136.532 113.693 136.48 113.349 136.48H111.873V137.032H113.349C113.725 137.032 114.029 137.116 114.261 137.284C114.501 137.452 114.621 137.696 114.621 138.016C114.621 138.184 114.581 138.328 114.501 138.448C114.429 138.56 114.329 138.656 114.201 138.736C114.081 138.816 113.945 138.872 113.793 138.904C113.641 138.936 113.493 138.952 113.349 138.952H111.873V139.312ZM111.513 136.48V142H112.137V136.48H111.513ZM116.308 139.24C116.308 139.792 116.432 140.288 116.68 140.728C116.928 141.16 117.264 141.5 117.688 141.748C118.12 141.996 118.604 142.12 119.14 142.12C119.676 142.12 120.156 141.996 120.58 141.748C121.012 141.5 121.352 141.16 121.6 140.728C121.848 140.288 121.972 139.792 121.972 139.24C121.972 138.68 121.848 138.184 121.6 137.752C121.352 137.32 121.012 136.98 120.58 136.732C120.156 136.484 119.676 136.36 119.14 136.36C118.604 136.36 118.12 136.484 117.688 136.732C117.264 136.98 116.928 137.32 116.68 137.752C116.432 138.184 116.308 138.68 116.308 139.24ZM116.944 139.24C116.944 138.792 117.04 138.396 117.232 138.052C117.424 137.708 117.684 137.44 118.012 137.248C118.348 137.048 118.724 136.948 119.14 136.948C119.556 136.948 119.928 137.048 120.256 137.248C120.592 137.44 120.856 137.712 121.048 138.064C121.24 138.408 121.336 138.8 121.336 139.24C121.336 139.688 121.24 140.084 121.048 140.428C120.856 140.772 120.592 141.044 120.256 141.244C119.928 141.436 119.556 141.532 119.14 141.532C118.724 141.532 118.348 141.436 118.012 141.244C117.684 141.044 117.424 140.772 117.232 140.428C117.04 140.084 116.944 139.688 116.944 139.24ZM125.151 140.32H126.795V139.732H125.151V140.32ZM126.351 136.48V142H126.975V136.48H126.351ZM123.615 136.48H122.991V138.064C122.991 138.6 123.055 139.036 123.183 139.372C123.311 139.7 123.531 139.94 123.843 140.092C124.163 140.244 124.599 140.32 125.151 140.32V139.732C124.767 139.732 124.463 139.68 124.239 139.576C124.015 139.464 123.855 139.288 123.759 139.048C123.663 138.8 123.615 138.472 123.615 138.064V136.48ZM129.147 139.372H133.179V138.784H129.147V139.372ZM132.795 136.48V142H133.419V136.48H132.795ZM128.775 136.48V142H129.399V136.48H128.775ZM140.08 136.48V142H140.704V136.48H140.08ZM135.22 136.48V142H135.844V136.48H135.22ZM135.568 139.12H137.164C137.588 139.12 137.924 139.22 138.172 139.42C138.428 139.612 138.556 139.9 138.556 140.284C138.556 140.548 138.496 140.768 138.376 140.944C138.264 141.112 138.104 141.24 137.896 141.328C137.688 141.408 137.444 141.448 137.164 141.448H135.568V142H137.164C137.548 142 137.892 141.94 138.196 141.82C138.5 141.7 138.74 141.512 138.916 141.256C139.092 141 139.18 140.676 139.18 140.284C139.18 139.692 138.984 139.26 138.592 138.988C138.208 138.708 137.732 138.568 137.164 138.568H135.568V139.12ZM145.569 136.48L144.033 138.664L142.497 136.48H141.777L143.685 139.156L141.657 142H142.377L144.033 139.648L145.689 142H146.409L144.381 139.156L146.289 136.48H145.569ZM156.762 142H157.47L156.03 136.06L155.694 137.188L156.762 142ZM153.654 141.46L153.87 142.372L156.09 137.404L156.03 136.06L153.654 141.46ZM153.87 142.372L154.086 141.46L151.746 136.06L151.686 137.404L153.87 142.372ZM150.306 142H151.026L152.082 137.188L151.746 136.06L150.306 142ZM158.399 139.396H163.163C163.171 139.348 163.175 139.3 163.175 139.252C163.183 139.196 163.187 139.144 163.187 139.096C163.187 138.544 163.075 138.064 162.851 137.656C162.635 137.248 162.335 136.932 161.951 136.708C161.567 136.476 161.135 136.36 160.655 136.36C160.215 136.36 159.815 136.452 159.455 136.636C159.095 136.812 158.799 137.064 158.567 137.392C158.335 137.712 158.171 138.084 158.075 138.508C158.051 138.628 158.031 138.748 158.015 138.868C158.007 138.98 158.003 139.1 158.003 139.228C158.003 139.78 158.115 140.276 158.339 140.716C158.563 141.156 158.867 141.5 159.251 141.748C159.643 141.996 160.079 142.12 160.559 142.12C161.047 142.12 161.447 142.056 161.759 141.928C162.071 141.792 162.331 141.62 162.539 141.412C162.747 141.196 162.931 140.964 163.091 140.716L162.587 140.392C162.467 140.592 162.319 140.78 162.143 140.956C161.975 141.124 161.767 141.264 161.519 141.376C161.279 141.48 160.983 141.532 160.631 141.532C160.239 141.532 159.891 141.44 159.587 141.256C159.291 141.064 159.059 140.796 158.891 140.452C158.723 140.1 158.639 139.692 158.639 139.228L158.651 139.012C158.651 138.58 158.743 138.208 158.927 137.896C159.111 137.576 159.355 137.332 159.659 137.164C159.963 136.996 160.295 136.912 160.655 136.912C161.015 136.912 161.331 136.996 161.603 137.164C161.883 137.332 162.103 137.564 162.263 137.86C162.423 138.148 162.503 138.48 162.503 138.856H158.399V139.396ZM164.755 139.24C164.755 138.792 164.851 138.396 165.043 138.052C165.235 137.708 165.495 137.44 165.823 137.248C166.159 137.048 166.535 136.948 166.951 136.948C167.247 136.948 167.523 136.992 167.779 137.08C168.035 137.168 168.255 137.28 168.439 137.416C168.631 137.552 168.767 137.696 168.847 137.848V137.068C168.679 136.876 168.419 136.712 168.067 136.576C167.723 136.432 167.351 136.36 166.951 136.36C166.415 136.36 165.935 136.484 165.511 136.732C165.087 136.98 164.747 137.32 164.491 137.752C164.243 138.184 164.119 138.68 164.119 139.24C164.119 139.792 164.243 140.288 164.491 140.728C164.747 141.16 165.087 141.5 165.511 141.748C165.935 141.996 166.415 142.12 166.951 142.12C167.351 142.12 167.723 142.052 168.067 141.916C168.419 141.78 168.679 141.612 168.847 141.412V140.632C168.767 140.776 168.631 140.92 168.439 141.064C168.255 141.2 168.035 141.312 167.779 141.4C167.523 141.488 167.247 141.532 166.951 141.532C166.535 141.532 166.159 141.436 165.823 141.244C165.495 141.044 165.235 140.772 165.043 140.428C164.851 140.084 164.755 139.688 164.755 139.24ZM169.501 136.48V137.068H172.741V136.48H169.501ZM170.809 136.648V142H171.433V136.648H170.809ZM25.26 156.168V156.492H26.856C27.04 156.492 27.216 156.508 27.384 156.54C27.552 156.572 27.7 156.624 27.828 156.696C27.956 156.768 28.056 156.864 28.128 156.984C28.208 157.096 28.248 157.244 28.248 157.428C28.248 157.708 28.144 157.948 27.936 158.148C27.736 158.348 27.408 158.448 26.952 158.448H25.26V159H27.096C27.728 159 28.18 158.856 28.452 158.568C28.732 158.272 28.872 157.916 28.872 157.5C28.872 157.14 28.784 156.864 28.608 156.672C28.432 156.48 28.192 156.348 27.888 156.276C27.584 156.204 27.24 156.168 26.856 156.168H25.26ZM25.26 156.312H26.736C27.08 156.312 27.392 156.268 27.672 156.18C27.96 156.084 28.192 155.94 28.368 155.748C28.544 155.548 28.632 155.292 28.632 154.98C28.632 154.62 28.544 154.332 28.368 154.116C28.192 153.892 27.96 153.732 27.672 153.636C27.392 153.532 27.08 153.48 26.736 153.48H25.26V154.032H26.736C27.112 154.032 27.416 154.116 27.648 154.284C27.888 154.452 28.008 154.696 28.008 155.016C28.008 155.184 27.968 155.328 27.888 155.448C27.816 155.56 27.716 155.656 27.588 155.736C27.468 155.816 27.332 155.872 27.18 155.904C27.028 155.936 26.88 155.952 26.736 155.952H25.26V156.312ZM24.9 153.48V159H25.524V153.48H24.9ZM29.6946 156.24C29.6946 156.792 29.8186 157.288 30.0666 157.728C30.3146 158.16 30.6506 158.5 31.0746 158.748C31.5066 158.996 31.9906 159.12 32.5266 159.12C33.0626 159.12 33.5426 158.996 33.9666 158.748C34.3986 158.5 34.7386 158.16 34.9866 157.728C35.2346 157.288 35.3586 156.792 35.3586 156.24C35.3586 155.68 35.2346 155.184 34.9866 154.752C34.7386 154.32 34.3986 153.98 33.9666 153.732C33.5426 153.484 33.0626 153.36 32.5266 153.36C31.9906 153.36 31.5066 153.484 31.0746 153.732C30.6506 153.98 30.3146 154.32 30.0666 154.752C29.8186 155.184 29.6946 155.68 29.6946 156.24ZM30.3306 156.24C30.3306 155.792 30.4266 155.396 30.6186 155.052C30.8106 154.708 31.0706 154.44 31.3986 154.248C31.7346 154.048 32.1106 153.948 32.5266 153.948C32.9426 153.948 33.3146 154.048 33.6426 154.248C33.9786 154.44 34.2426 154.712 34.4346 155.064C34.6266 155.408 34.7226 155.8 34.7226 156.24C34.7226 156.688 34.6266 157.084 34.4346 157.428C34.2426 157.772 33.9786 158.044 33.6426 158.244C33.3146 158.436 32.9426 158.532 32.5266 158.532C32.1106 158.532 31.7346 158.436 31.3986 158.244C31.0706 158.044 30.8106 157.772 30.6186 157.428C30.4266 157.084 30.3306 156.688 30.3306 156.24ZM43.275 154.428L45.279 158.736H45.975L43.275 153.06L40.575 158.736H41.271L43.275 154.428ZM46.071 159V160.08H46.695V158.412H39.855V160.08H40.515V159H46.071ZM48.4983 156.168V156.492H50.0943C50.2783 156.492 50.4543 156.508 50.6223 156.54C50.7903 156.572 50.9383 156.624 51.0663 156.696C51.1943 156.768 51.2943 156.864 51.3663 156.984C51.4463 157.096 51.4863 157.244 51.4863 157.428C51.4863 157.708 51.3823 157.948 51.1743 158.148C50.9743 158.348 50.6463 158.448 50.1903 158.448H48.4983V159H50.3343C50.9663 159 51.4183 158.856 51.6903 158.568C51.9703 158.272 52.1103 157.916 52.1103 157.5C52.1103 157.14 52.0223 156.864 51.8463 156.672C51.6703 156.48 51.4303 156.348 51.1263 156.276C50.8223 156.204 50.4783 156.168 50.0943 156.168H48.4983ZM48.4983 156.312H49.9743C50.3183 156.312 50.6303 156.268 50.9103 156.18C51.1983 156.084 51.4303 155.94 51.6063 155.748C51.7823 155.548 51.8703 155.292 51.8703 154.98C51.8703 154.62 51.7823 154.332 51.6063 154.116C51.4303 153.892 51.1983 153.732 50.9103 153.636C50.6303 153.532 50.3183 153.48 49.9743 153.48H48.4983V154.032H49.9743C50.3503 154.032 50.6543 154.116 50.8863 154.284C51.1263 154.452 51.2463 154.696 51.2463 155.016C51.2463 155.184 51.2063 155.328 51.1263 155.448C51.0543 155.56 50.9543 155.656 50.8263 155.736C50.7063 155.816 50.5703 155.872 50.4183 155.904C50.2663 155.936 50.1183 155.952 49.9743 155.952H48.4983V156.312ZM48.1383 153.48V159H48.7623V153.48H48.1383ZM52.9328 156.24C52.9328 156.792 53.0568 157.288 53.3048 157.728C53.5528 158.16 53.8888 158.5 54.3128 158.748C54.7448 158.996 55.2288 159.12 55.7648 159.12C56.3008 159.12 56.7808 158.996 57.2048 158.748C57.6368 158.5 57.9768 158.16 58.2248 157.728C58.4728 157.288 58.5968 156.792 58.5968 156.24C58.5968 155.68 58.4728 155.184 58.2248 154.752C57.9768 154.32 57.6368 153.98 57.2048 153.732C56.7808 153.484 56.3008 153.36 55.7648 153.36C55.2288 153.36 54.7448 153.484 54.3128 153.732C53.8888 153.98 53.5528 154.32 53.3048 154.752C53.0568 155.184 52.9328 155.68 52.9328 156.24ZM53.5688 156.24C53.5688 155.792 53.6648 155.396 53.8568 155.052C54.0488 154.708 54.3088 154.44 54.6368 154.248C54.9728 154.048 55.3488 153.948 55.7648 153.948C56.1808 153.948 56.5528 154.048 56.8808 154.248C57.2168 154.44 57.4808 154.712 57.6728 155.064C57.8648 155.408 57.9608 155.8 57.9608 156.24C57.9608 156.688 57.8648 157.084 57.6728 157.428C57.4808 157.772 57.2168 158.044 56.8808 158.244C56.5528 158.436 56.1808 158.532 55.7648 158.532C55.3488 158.532 54.9728 158.436 54.6368 158.244C54.3088 158.044 54.0488 157.772 53.8568 157.428C53.6648 157.084 53.5688 156.688 53.5688 156.24ZM60.5276 161.64V153.48H59.9036V161.64H60.5276ZM65.2436 156.24C65.2436 155.64 65.1236 155.128 64.8836 154.704C64.6516 154.272 64.3316 153.94 63.9236 153.708C63.5236 153.476 63.0756 153.36 62.5796 153.36C62.1156 153.36 61.7076 153.488 61.3556 153.744C61.0036 153.992 60.7276 154.332 60.5276 154.764C60.3356 155.196 60.2396 155.688 60.2396 156.24C60.2396 156.784 60.3356 157.276 60.5276 157.716C60.7276 158.148 61.0036 158.492 61.3556 158.748C61.7076 158.996 62.1156 159.12 62.5796 159.12C63.0756 159.12 63.5236 159.004 63.9236 158.772C64.3316 158.54 64.6516 158.208 64.8836 157.776C65.1236 157.344 65.2436 156.832 65.2436 156.24ZM64.6196 156.24C64.6196 156.72 64.5236 157.132 64.3316 157.476C64.1396 157.82 63.8836 158.084 63.5636 158.268C63.2436 158.444 62.8876 158.532 62.4956 158.532C62.1596 158.532 61.8396 158.432 61.5356 158.232C61.2316 158.032 60.9876 157.76 60.8036 157.416C60.6196 157.072 60.5276 156.68 60.5276 156.24C60.5276 155.8 60.6196 155.408 60.8036 155.064C60.9876 154.72 61.2316 154.448 61.5356 154.248C61.8396 154.048 62.1596 153.948 62.4956 153.948C62.8876 153.948 63.2436 154.04 63.5636 154.224C63.8836 154.4 64.1396 154.66 64.3316 155.004C64.5236 155.348 64.6196 155.76 64.6196 156.24ZM66.7234 156.396H71.4874C71.4954 156.348 71.4994 156.3 71.4994 156.252C71.5074 156.196 71.5114 156.144 71.5114 156.096C71.5114 155.544 71.3994 155.064 71.1754 154.656C70.9594 154.248 70.6594 153.932 70.2754 153.708C69.8914 153.476 69.4594 153.36 68.9794 153.36C68.5394 153.36 68.1394 153.452 67.7794 153.636C67.4194 153.812 67.1234 154.064 66.8914 154.392C66.6594 154.712 66.4954 155.084 66.3994 155.508C66.3754 155.628 66.3554 155.748 66.3394 155.868C66.3314 155.98 66.3274 156.1 66.3274 156.228C66.3274 156.78 66.4394 157.276 66.6634 157.716C66.8874 158.156 67.1914 158.5 67.5754 158.748C67.9674 158.996 68.4034 159.12 68.8834 159.12C69.3714 159.12 69.7714 159.056 70.0834 158.928C70.3954 158.792 70.6554 158.62 70.8634 158.412C71.0714 158.196 71.2554 157.964 71.4154 157.716L70.9114 157.392C70.7914 157.592 70.6434 157.78 70.4674 157.956C70.2994 158.124 70.0914 158.264 69.8434 158.376C69.6034 158.48 69.3074 158.532 68.9554 158.532C68.5634 158.532 68.2154 158.44 67.9114 158.256C67.6154 158.064 67.3834 157.796 67.2154 157.452C67.0474 157.1 66.9634 156.692 66.9634 156.228L66.9754 156.012C66.9754 155.58 67.0674 155.208 67.2514 154.896C67.4354 154.576 67.6794 154.332 67.9834 154.164C68.2874 153.996 68.6194 153.912 68.9794 153.912C69.3394 153.912 69.6554 153.996 69.9274 154.164C70.2074 154.332 70.4274 154.564 70.5874 154.86C70.7474 155.148 70.8274 155.48 70.8274 155.856H66.7234V156.396ZM80.8168 154.02L80.8768 153.06L76.6528 158.46L76.5928 159.42L80.8168 154.02ZM77.2168 153.48H76.5928V159.42L77.2168 158.532V153.48ZM80.8768 153.06L80.2528 153.948V159H80.8768V153.06ZM87.232 153.48H82.828V157.08C82.828 157.544 82.74 157.884 82.564 158.1C82.396 158.316 82.192 158.424 81.952 158.424V159C82.272 159 82.544 158.932 82.768 158.796C82.992 158.652 83.16 158.44 83.272 158.16C83.392 157.872 83.452 157.512 83.452 157.08V154.068H86.608V159H87.232V153.48ZM93.3793 154.02L93.4393 153.06L89.2153 158.46L89.1553 159.42L93.3793 154.02ZM89.7793 153.48H89.1553V159.42L89.7793 158.532V153.48ZM93.4393 153.06L92.8153 153.948V159H93.4393V153.06ZM99.2642 156.372H103.296V155.784H99.2642V156.372ZM102.912 153.48V159H103.536V153.48H102.912ZM98.8922 153.48V159H99.5162V153.48H98.8922ZM105.482 157.38C105.482 157.1 105.554 156.864 105.698 156.672C105.842 156.48 106.038 156.336 106.286 156.24C106.542 156.136 106.83 156.084 107.15 156.084C107.526 156.084 107.85 156.136 108.122 156.24C108.402 156.336 108.654 156.468 108.878 156.636V156.252C108.814 156.18 108.706 156.092 108.554 155.988C108.41 155.884 108.218 155.792 107.978 155.712C107.746 155.632 107.462 155.592 107.126 155.592C106.694 155.592 106.306 155.664 105.962 155.808C105.618 155.944 105.346 156.148 105.146 156.42C104.946 156.684 104.846 157.012 104.846 157.404C104.846 157.796 104.934 158.12 105.11 158.376C105.286 158.624 105.514 158.812 105.794 158.94C106.082 159.06 106.39 159.12 106.718 159.12C107.11 159.12 107.458 159.044 107.762 158.892C108.074 158.732 108.318 158.516 108.494 158.244C108.678 157.964 108.77 157.648 108.77 157.296L108.626 156.936C108.626 157.28 108.55 157.572 108.398 157.812C108.246 158.052 108.034 158.236 107.762 158.364C107.498 158.492 107.198 158.556 106.862 158.556C106.622 158.556 106.394 158.516 106.178 158.436C105.97 158.348 105.802 158.22 105.674 158.052C105.546 157.876 105.482 157.652 105.482 157.38ZM105.638 154.572C105.75 154.476 105.886 154.376 106.046 154.272C106.214 154.168 106.406 154.084 106.622 154.02C106.838 153.948 107.078 153.912 107.342 153.912C107.726 153.912 108.034 154.016 108.266 154.224C108.506 154.424 108.626 154.712 108.626 155.088V159H109.25V155.088C109.25 154.728 109.174 154.42 109.022 154.164C108.87 153.908 108.65 153.712 108.362 153.576C108.082 153.432 107.742 153.36 107.342 153.36C106.87 153.36 106.466 153.44 106.13 153.6C105.802 153.76 105.534 153.924 105.326 154.092L105.638 154.572ZM119.019 153.48H118.323L116.367 158.16L116.655 158.184L114.651 153.48H113.907L116.139 158.436L114.723 161.64H115.419L119.019 153.48ZM124.545 153.48H120.141V157.08C120.141 157.544 120.053 157.884 119.877 158.1C119.709 158.316 119.505 158.424 119.265 158.424V159C119.585 159 119.857 158.932 120.081 158.796C120.305 158.652 120.473 158.44 120.585 158.16C120.705 157.872 120.765 157.512 120.765 157.08V154.068H123.921V159H124.545V153.48ZM130.692 154.02L130.752 153.06L126.528 158.46L126.468 159.42L130.692 154.02ZM127.092 153.48H126.468V159.42L127.092 158.532V153.48ZM130.752 153.06L130.128 153.948V159H130.752V153.06ZM136.771 158.412V153.48H136.147V158.412H133.231V153.48H132.607V159H137.179V160.08H137.731V158.412H136.771ZM139.016 156.396H143.78C143.788 156.348 143.792 156.3 143.792 156.252C143.8 156.196 143.804 156.144 143.804 156.096C143.804 155.544 143.692 155.064 143.468 154.656C143.252 154.248 142.952 153.932 142.568 153.708C142.184 153.476 141.752 153.36 141.272 153.36C140.832 153.36 140.432 153.452 140.072 153.636C139.712 153.812 139.416 154.064 139.184 154.392C138.952 154.712 138.788 155.084 138.692 155.508C138.668 155.628 138.648 155.748 138.632 155.868C138.624 155.98 138.62 156.1 138.62 156.228C138.62 156.78 138.732 157.276 138.956 157.716C139.18 158.156 139.484 158.5 139.868 158.748C140.26 158.996 140.696 159.12 141.176 159.12C141.664 159.12 142.064 159.056 142.376 158.928C142.688 158.792 142.948 158.62 143.156 158.412C143.364 158.196 143.548 157.964 143.708 157.716L143.204 157.392C143.084 157.592 142.936 157.78 142.76 157.956C142.592 158.124 142.384 158.264 142.136 158.376C141.896 158.48 141.6 158.532 141.248 158.532C140.856 158.532 140.508 158.44 140.204 158.256C139.908 158.064 139.676 157.796 139.508 157.452C139.34 157.1 139.256 156.692 139.256 156.228L139.268 156.012C139.268 155.58 139.36 155.208 139.544 154.896C139.728 154.576 139.972 154.332 140.276 154.164C140.58 153.996 140.912 153.912 141.272 153.912C141.632 153.912 141.948 153.996 142.22 154.164C142.5 154.332 142.72 154.564 142.88 154.86C143.04 155.148 143.12 155.48 143.12 155.856H139.016V156.396Z" fill="white"/>
<defs>
<filter id="filter0_bdi_322_804" x="-46" y="-49.6789" width="435" height="290.882" filterUnits="userSpaceOnUse" color-interpolation-filters="sRGB">
<feFlood flood-opacity="0" result="BackgroundImageFix"/>
<feGaussianBlur in="BackgroundImageFix" stdDeviation="25"/>
<feComposite in2="SourceAlpha" operator="in" result="effect1_backgroundBlur_322_804"/>
<feColorMatrix in="SourceAlpha" type="matrix" values="0 0 0 0 0 0 0 0 0 0 0 0 0 0 0 0 0 0 127 0" result="hardAlpha"/>
<feOffset dy="4"/>
<feGaussianBlur stdDeviation="2"/>
<feComposite in2="hardAlpha" operator="out"/>
<feColorMatrix type="matrix" values="0 0 0 0 0 0 0 0 0 0 0 0 0 0 0 0 0 0 0.25 0"/>
<feBlend mode="normal" in2="effect1_backgroundBlur_322_804" result="effect2_dropShadow_322_804"/>
<feBlend mode="normal" in="SourceGraphic" in2="effect2_dropShadow_322_804" result="shape"/>
<feColorMatrix in="SourceAlpha" type="matrix" values="0 0 0 0 0 0 0 0 0 0 0 0 0 0 0 0 0 0 127 0" result="hardAlpha"/>
<feMorphology radius="1" operator="erode" in="SourceAlpha" result="effect3_innerShadow_322_804"/>
<feOffset/>
<feGaussianBlur stdDeviation="4"/>
<feComposite in2="hardAlpha" operator="arithmetic" k2="-1" k3="1"/>
<feColorMatrix type="matrix" values="0 0 0 0 1 0 0 0 0 1 0 0 0 0 1 0 0 0 0.1 0"/>
<feBlend mode="normal" in2="shape" result="effect3_innerShadow_322_804"/>
</filter>
<filter id="filter1_d_322_804" x="206.742" y="57.697" width="111.162" height="111.162" filterUnits="userSpaceOnUse" color-interpolation-filters="sRGB">
<feFlood flood-opacity="0" result="BackgroundImageFix"/>
<feColorMatrix in="SourceAlpha" type="matrix" values="0 0 0 0 0 0 0 0 0 0 0 0 0 0 0 0 0 0 127 0" result="hardAlpha"/>
<feMorphology radius="2" operator="dilate" in="SourceAlpha" result="effect1_dropShadow_322_804"/>
<feOffset/>
<feComposite in2="hardAlpha" operator="out"/>
<feColorMatrix type="matrix" values="0 0 0 0 1 0 0 0 0 1 0 0 0 0 1 0 0 0 1 0"/>
<feBlend mode="normal" in2="BackgroundImageFix" result="effect1_dropShadow_322_804"/>
<feBlend mode="normal" in="SourceGraphic" in2="effect1_dropShadow_322_804" result="shape"/>
</filter>
</defs>
</svg>
