<svg width="563" height="1098" viewBox="0 0 563 1098" fill="none" xmlns="http://www.w3.org/2000/svg">
<g filter="url(#filter0_f_25_60)">
<path fill-rule="evenodd" clip-rule="evenodd" d="M315.251 206.256C353.848 181.288 404.095 244.738 448.726 266.816C483.493 284.014 515.066 310.554 550.694 322.723C598.107 338.918 657.676 304.257 692.788 350.182C726.896 394.793 695.826 463.681 702.689 521.527C708.237 568.292 739.705 616.533 729.482 659.468C718.895 703.932 675.591 717.773 648.733 748.135C627.928 771.654 609.371 796.49 588.07 819.331C564.447 844.661 545.873 878.574 515.527 890.972C483.796 903.937 447.547 894.229 412.615 891.017C370.76 887.168 326.574 897.215 288.209 870.07C249.736 842.849 214.557 794.984 203.631 743.154C192.347 689.625 214.606 639.658 229.565 591.879C240.824 555.918 271.636 535.77 280.276 498.347C289.082 460.209 274.546 416.243 279.316 376.405C286.427 317.023 273.784 233.081 315.251 206.256Z" fill="#564592"/>
</g>
<defs>
<filter id="filter0_f_25_60" x="0.551514" y="0.530243" width="930.958" height="1097" filterUnits="userSpaceOnUse" color-interpolation-filters="sRGB">
<feFlood flood-opacity="0" result="BackgroundImageFix"/>
<feBlend mode="normal" in="SourceGraphic" in2="BackgroundImageFix" result="shape"/>
<feGaussianBlur stdDeviation="100" result="effect1_foregroundBlur_25_60"/>
</filter>
</defs>
</svg>
